# https://github.com/mikedh/trimesh
v -0.90865684 -0.39692608 -0.23186770
v -0.90782100 -0.39692608 -0.23771875
v -0.90782100 -0.40193307 -0.23186770
v -0.90782100 -0.40194035 -0.22400779
v -0.90865970 -0.39692608 -0.22400779
v -0.90782100 -0.39692608 -0.21810786
v -0.90853387 -0.38906616 -0.23972763
v -0.90782100 -0.38906616 -0.24220946
v -0.90782100 -0.39460430 -0.23972763
v -0.90966415 -0.38906616 -0.23186770
v -0.90969712 -0.38906616 -0.22400779
v -0.90782100 -0.39466125 -0.21614785
v -0.90853882 -0.38906616 -0.21614785
v -0.90782100 -0.38906616 -0.21370675
v -0.90875089 -0.38120621 -0.23972763
v -0.90782100 -0.38120621 -0.24298386
v -0.90981436 -0.38120621 -0.23186770
v -0.90982938 -0.38120621 -0.22400779
v -0.90876311 -0.38120621 -0.21614785
v -0.90782100 -0.38120621 -0.21282423
v -0.90782100 -0.37934116 -0.23972763
v -0.90782100 -0.37742683 -0.23186770
v -0.90782100 -0.37739566 -0.22400779
v -0.90782100 -0.37925139 -0.21614785
v -0.90003949 -0.44408560 -0.23186770
v -0.89996111 -0.44408560 -0.23233958
v -0.89996111 -0.44451436 -0.23186770
v -0.89996111 -0.44567621 -0.22400779
v -0.90023929 -0.44408560 -0.22400779
v -0.89996111 -0.44408560 -0.22167034
v -0.90027916 -0.43622568 -0.23972763
v -0.89996111 -0.43622568 -0.24077278
v -0.89996111 -0.43786156 -0.23972763
v -0.90152234 -0.43622568 -0.23186770
v -0.90165102 -0.43622568 -0.22400779
v -0.89996111 -0.44047862 -0.21614785
v -0.90072268 -0.43622568 -0.21614785
v -0.89996111 -0.43622568 -0.21309268
v -0.90182602 -0.42836577 -0.23972763
v -0.89996111 -0.42836577 -0.24629959
v -0.90300405 -0.42836577 -0.23186770
v -0.90314281 -0.42836577 -0.22400779
v -0.90218061 -0.42836577 -0.21614785
v -0.89996111 -0.42928937 -0.20828794
v -0.90012485 -0.42836577 -0.20828794
v -0.89996111 -0.42836577 -0.20788305
v -0.90106821 -0.42050582 -0.24758755
v -0.89996111 -0.42050582 -0.25014362
v -0.89996111 -0.42638189 -0.24758755
v -0.90331680 -0.42050582 -0.23972763
v -0.90443981 -0.42050582 -0.23186770
v -0.90455288 -0.42050582 -0.22400779
v -0.90356112 -0.42050582 -0.21614785
v -0.90144598 -0.42050582 -0.20828794
v -0.89996111 -0.42050582 -0.20452642
v -0.90252042 -0.41264591 -0.24758755
v -0.89996111 -0.41264591 -0.25332281
v -0.90477425 -0.41264591 -0.23972763
v -0.90589696 -0.41264591 -0.23186770
v -0.90596062 -0.41264591 -0.22400779
v -0.90488845 -0.41264591 -0.21614785
v -0.90273345 -0.41264591 -0.20828794
v -0.89996111 -0.41264591 -0.20159832
v -0.90029407 -0.40478599 -0.25544748
v -0.89996111 -0.40478599 -0.25598028
v -0.89996111 -0.40671462 -0.25544748
v -0.90386194 -0.40478599 -0.24758755
v -0.90621310 -0.40478599 -0.23972763
v -0.90733027 -0.40478599 -0.23186770
v -0.90733135 -0.40478599 -0.22400779
v -0.90624750 -0.40478599 -0.21614785
v -0.90392315 -0.40478599 -0.20828794
v -0.89996111 -0.40879926 -0.20042801
v -0.90049750 -0.40478599 -0.20042801
v -0.89996111 -0.40478599 -0.19948684
v -0.90153480 -0.39692608 -0.25544748
v -0.89996111 -0.39692608 -0.25790113
v -0.90519834 -0.39692608 -0.24758755
v -0.90751624 -0.39692608 -0.23972763
v -0.90752542 -0.39692608 -0.21614785
v -0.90519696 -0.39692608 -0.20828794
v -0.90159708 -0.39692608 -0.20042801
v -0.89996111 -0.39692608 -0.19769138
v -0.90241933 -0.38906616 -0.25544748
v -0.89996111 -0.38906616 -0.25924850
v -0.90623540 -0.38906616 -0.24758755
v -0.90618628 -0.38906616 -0.20828794
v -0.90248626 -0.38906616 -0.20042801
v -0.89996111 -0.38906616 -0.19634838
v -0.90248430 -0.38120621 -0.25544748
v -0.89996111 -0.38120621 -0.25939265
v -0.90637946 -0.38120621 -0.24758755
v -0.90642810 -0.38120621 -0.20828794
v -0.90266663 -0.38120621 -0.20042801
v -0.89996111 -0.38120621 -0.19606198
v -0.89996111 -0.37677622 -0.25544748
v -0.90035135 -0.37334630 -0.24758755
v -0.89996111 -0.37334630 -0.24852993
v -0.90193707 -0.37334630 -0.23972763
v -0.90279597 -0.37334630 -0.23186770
v -0.90291703 -0.37334630 -0.22400779
v -0.90219796 -0.37334630 -0.21614785
v -0.90088558 -0.37334630 -0.20828794
v -0.89996111 -0.37334630 -0.20561008
v -0.89996111 -0.37580714 -0.20042801
v -0.89996111 -0.37310189 -0.24758755
v -0.89996111 -0.37236440 -0.23972763
v -0.89996111 -0.37212154 -0.23186770
v -0.89996111 -0.37205529 -0.22400779
v -0.89996111 -0.37222680 -0.21614785
v -0.89996111 -0.37276012 -0.20828794
v -0.89229214 -0.49910507 -0.23186770
v -0.89210117 -0.49910507 -0.23284756
v -0.89210117 -0.50133193 -0.23186770
v -0.89210117 -0.50646508 -0.22400779
v -0.89269620 -0.49910507 -0.22400779
v -0.89210117 -0.49997696 -0.21614785
v -0.89217103 -0.49910507 -0.21614785
v -0.89210117 -0.49910507 -0.21579213
v -0.89335376 -0.49124515 -0.23186770
v -0.89210117 -0.49124515 -0.23881452
v -0.89370722 -0.49124515 -0.22400779
v -0.89310515 -0.49124515 -0.21614785
v -0.89210117 -0.49124515 -0.21086392
v -0.89293486 -0.48338521 -0.23972763
v -0.89210117 -0.48338521 -0.24229671
v -0.89210117 -0.48993546 -0.23972763
v -0.89425939 -0.48338521 -0.23186770
v -0.89452535 -0.48338521 -0.22400779
v -0.89393371 -0.48338521 -0.21614785
v -0.89210117 -0.48652157 -0.20828794
v -0.89243549 -0.48338521 -0.20828794
v -0.89210117 -0.48338521 -0.20728284
v -0.89384449 -0.47552529 -0.23972763
v -0.89210117 -0.47552529 -0.24533761
v -0.89514351 -0.47552529 -0.23186770
v -0.89541495 -0.47552529 -0.22400779
v -0.89468533 -0.47552529 -0.21614785
v -0.89306295 -0.47552529 -0.20828794
v -0.89210117 -0.47552529 -0.20526539
v -0.89245427 -0.46766537 -0.24758755
v -0.89210117 -0.46766537 -0.24832520
v -0.89210117 -0.47018665 -0.24758755
v -0.89487064 -0.46766537 -0.23972763
v -0.89617682 -0.46766537 -0.23186770
v -0.89641130 -0.46766537 -0.22400779
v -0.89557701 -0.46766537 -0.21614785
v -0.89384848 -0.46766537 -0.20828794
v -0.89210117 -0.46766537 -0.20304507
v -0.89361691 -0.45980546 -0.24758755
v -0.89210117 -0.45980546 -0.25083271
v -0.89603209 -0.45980546 -0.23972763
v -0.89742208 -0.45980546 -0.23186770
v -0.89760846 -0.45980546 -0.22400779
v -0.89672625 -0.45980546 -0.21614785
v -0.89482790 -0.45980546 -0.20828794
v -0.89210117 -0.45980546 -0.20070338
v -0.89484131 -0.45194551 -0.24758755
v -0.89210117 -0.45194551 -0.25350156
v -0.89735568 -0.45194551 -0.23972763
v -0.89869428 -0.45194551 -0.23186770
v -0.89892161 -0.45194551 -0.22400779
v -0.89800149 -0.45194551 -0.21614785
v -0.89593709 -0.45194551 -0.20828794
v -0.89210117 -0.45891985 -0.20042801
v -0.89292479 -0.45194551 -0.20042801
v -0.89210117 -0.45194551 -0.19877642
v -0.89255345 -0.44408560 -0.25544748
v -0.89210117 -0.44408560 -0.25615224
v -0.89210117 -0.44659004 -0.25544748
v -0.89624459 -0.44408560 -0.24758755
v -0.89879334 -0.44408560 -0.23972763
v -0.89932650 -0.44408560 -0.21614785
v -0.89728719 -0.44408560 -0.20828794
v -0.89406276 -0.44408560 -0.20042801
v -0.89210117 -0.44408560 -0.19660401
v -0.89403725 -0.43622568 -0.25544748
v -0.89210117 -0.43622568 -0.25846162
v -0.89786321 -0.43622568 -0.24758755
v -0.89876080 -0.43622568 -0.20828794
v -0.89540684 -0.43622568 -0.20042801
v -0.89210117 -0.43622568 -0.19434945
v -0.89569408 -0.42836577 -0.25544748
v -0.89210117 -0.42836577 -0.26091078
v -0.89956033 -0.42836577 -0.24758755
v -0.89685023 -0.42836577 -0.20042801
v -0.89210117 -0.42957911 -0.19256809
v -0.89228916 -0.42836577 -0.19256809
v -0.89210117 -0.42836577 -0.19231191
v -0.89732635 -0.42050582 -0.25544748
v -0.89210117 -0.42050582 -0.26305363
v -0.89818615 -0.42050582 -0.20042801
v -0.89352953 -0.42050582 -0.19256809
v -0.89210117 -0.42050582 -0.19066656
v -0.89340013 -0.41264591 -0.26330739
v -0.89210117 -0.41264591 -0.26478785
v -0.89210117 -0.41952136 -0.26330739
v -0.89887971 -0.41264591 -0.25544748
v -0.89943147 -0.41264591 -0.20042801
v -0.89460927 -0.41264591 -0.19256809
v -0.89210117 -0.41264591 -0.18934244
v -0.89474338 -0.40478599 -0.26330739
v -0.89210117 -0.40478599 -0.26621583
v -0.89555824 -0.40478599 -0.19256809
v -0.89210117 -0.40478599 -0.18826699
v -0.89594018 -0.39692608 -0.26330739
v -0.89210117 -0.39692608 -0.26748759
v -0.89652967 -0.39692608 -0.19256809
v -0.89210117 -0.39692608 -0.18729776
v -0.89693689 -0.38906616 -0.26330739
v -0.89210117 -0.38906616 -0.26850799
v -0.89732659 -0.38906616 -0.19256809
v -0.89210117 -0.38906616 -0.18656766
v -0.89705729 -0.38120621 -0.26330739
v -0.89210117 -0.38120621 -0.26861551
v -0.89748770 -0.38120621 -0.19256809
v -0.89210117 -0.38120621 -0.18655317
v -0.89210117 -0.37395334 -0.26330739
v -0.89583921 -0.37334630 -0.25544748
v -0.89210117 -0.37334630 -0.26198724
v -0.89743471 -0.37334630 -0.20042801
v -0.89323628 -0.37334630 -0.19256809
v -0.89210117 -0.37334630 -0.19120494
v -0.89210117 -0.37175959 -0.25544748
v -0.89210117 -0.37110391 -0.24758755
v -0.89210117 -0.37083256 -0.23972763
v -0.89210117 -0.37069800 -0.23186770
v -0.89210117 -0.37060764 -0.22400779
v -0.89210117 -0.37060410 -0.21614785
v -0.89210117 -0.37062851 -0.20828794
v -0.89210117 -0.37095293 -0.20042801
v -0.89210117 -0.37254125 -0.19256809
v -0.88779712 -0.50696498 -0.24758755
v -0.88424122 -0.50696498 -0.25468308
v -0.89034837 -0.50696498 -0.23972763
v -0.89164430 -0.50696498 -0.23186770
v -0.89206105 -0.50696498 -0.22400779
v -0.89157408 -0.50696498 -0.21614785
v -0.89034688 -0.50696498 -0.20828794
v -0.88794672 -0.50696498 -0.20042801
v -0.88432395 -0.50696498 -0.19256809
v -0.88424122 -0.50696498 -0.19243149
v -0.88441890 -0.49910507 -0.25544748
v -0.88424122 -0.49910507 -0.25573128
v -0.88424122 -0.50151044 -0.25544748
v -0.88829386 -0.49910507 -0.24758755
v -0.89081645 -0.49910507 -0.23972763
v -0.89069068 -0.49910507 -0.20828794
v -0.88828444 -0.49910507 -0.20042801
v -0.88474572 -0.49910507 -0.19256809
v -0.88424122 -0.49910507 -0.19173481
v -0.88543868 -0.49124515 -0.25544748
v -0.88424122 -0.49124515 -0.25735644
v -0.88928610 -0.49124515 -0.24758755
v -0.89192927 -0.49124515 -0.23972763
v -0.89160478 -0.49124515 -0.20828794
v -0.88907593 -0.49124515 -0.20042801
v -0.88552755 -0.49124515 -0.19256809
v -0.88424122 -0.49124515 -0.19047575
v -0.88647997 -0.48338521 -0.25544748
v -0.88424122 -0.48338521 -0.25893229
v -0.89033788 -0.48338521 -0.24758755
v -0.88983738 -0.48338521 -0.20042801
v -0.88623720 -0.48338521 -0.19256809
v -0.88424122 -0.48338521 -0.18935221
v -0.88743329 -0.47552529 -0.25544748
v -0.88424122 -0.47552529 -0.26040849
v -0.89136750 -0.47552529 -0.24758755
v -0.89053953 -0.47552529 -0.20042801
v -0.88673556 -0.47552529 -0.19256809
v -0.88424122 -0.47552529 -0.18862320
v -0.88849157 -0.46766537 -0.25544748
v -0.88424122 -0.46766537 -0.26194197
v -0.89120686 -0.46766537 -0.20042801
v -0.88723582 -0.46766537 -0.19256809
v -0.88424122 -0.46766537 -0.18794385
v -0.88432544 -0.45980546 -0.26330739
v -0.88424122 -0.45980546 -0.26340652
v -0.88424122 -0.46042749 -0.26330739
v -0.88974941 -0.45980546 -0.25544748
v -0.89199746 -0.45980546 -0.20042801
v -0.88793463 -0.45980546 -0.19256809
v -0.88424122 -0.45980546 -0.18709099
v -0.88554513 -0.45194551 -0.26330739
v -0.88424122 -0.45194551 -0.26480120
v -0.89112097 -0.45194551 -0.25544748
v -0.88880694 -0.45194551 -0.19256809
v -0.88424122 -0.45194551 -0.18618634
v -0.88695478 -0.44408560 -0.26330739
v -0.88424122 -0.44408560 -0.26632330
v -0.88986051 -0.44408560 -0.19256809
v -0.88424122 -0.44408560 -0.18520397
v -0.88852257 -0.43622568 -0.26330739
v -0.88424122 -0.43622568 -0.26791054
v -0.89106661 -0.43622568 -0.19256809
v -0.88424122 -0.44047537 -0.18470818
v -0.88473111 -0.43622568 -0.18470818
v -0.88424122 -0.43622568 -0.18421009
v -0.89024568 -0.42836577 -0.26330739
v -0.88424122 -0.42836577 -0.26945442
v -0.88580412 -0.42836577 -0.18470818
v -0.88424122 -0.42836577 -0.18318185
v -0.89189970 -0.42050582 -0.26330739
v -0.88424122 -0.42050582 -0.27090821
v -0.88686901 -0.42050582 -0.18470818
v -0.88424122 -0.42050582 -0.18224463
v -0.88533717 -0.41264591 -0.27116731
v -0.88424122 -0.41264591 -0.27205762
v -0.88424122 -0.41885543 -0.27116731
v -0.88785452 -0.41264591 -0.18470818
v -0.88424122 -0.41264591 -0.18147622
v -0.88673621 -0.40478599 -0.27116731
v -0.88424122 -0.40478599 -0.27316761
v -0.88867164 -0.40478599 -0.18470818
v -0.88424122 -0.40478599 -0.18094426
v -0.88802755 -0.39692608 -0.27116731
v -0.88424122 -0.39692608 -0.27408397
v -0.88948888 -0.39692608 -0.18470818
v -0.88424122 -0.39692608 -0.18041925
v -0.88909608 -0.38906616 -0.27116731
v -0.88424122 -0.38906616 -0.27480951
v -0.89011121 -0.38906616 -0.18470818
v -0.88424122 -0.38906616 -0.18008566
v -0.88919187 -0.38120621 -0.27116731
v -0.88424122 -0.38120621 -0.27487013
v -0.89008540 -0.38120621 -0.18470818
v -0.88424122 -0.38120621 -0.18023929
v -0.88424122 -0.37376583 -0.27116731
v -0.89119303 -0.37334630 -0.26330739
v -0.88424122 -0.37334630 -0.27063942
v -0.88613361 -0.37334630 -0.18470818
v -0.88424122 -0.37334630 -0.18317190
v -0.88424122 -0.37083364 -0.26330739
v -0.88424122 -0.37018758 -0.25544748
v -0.88424122 -0.36995161 -0.24758755
v -0.88424122 -0.36977255 -0.23972763
v -0.88424122 -0.36963761 -0.23186770
v -0.88424122 -0.36954743 -0.22400779
v -0.88424122 -0.36949405 -0.21614785
v -0.88424122 -0.36943206 -0.20828794
v -0.88424122 -0.36938211 -0.20042801
v -0.88424122 -0.36962047 -0.19256809
v -0.88424122 -0.37203214 -0.18470818
v -0.87817383 -0.50696498 -0.26330739
v -0.87638134 -0.50696498 -0.26533264
v -0.88383281 -0.50696498 -0.25544748
v -0.87913662 -0.50696498 -0.18470818
v -0.87638134 -0.50696498 -0.18150961
v -0.87881583 -0.49910507 -0.26330739
v -0.87638134 -0.49910507 -0.26600313
v -0.87938708 -0.49910507 -0.18470818
v -0.87638134 -0.49910507 -0.18128696
v -0.87990624 -0.49124515 -0.26330739
v -0.87638134 -0.49124515 -0.26716748
v -0.88018221 -0.49124515 -0.18470818
v -0.87638134 -0.49124515 -0.18046890
v -0.88100725 -0.48338521 -0.26330739
v -0.87638134 -0.48338521 -0.26833719
v -0.88088202 -0.48338521 -0.18470818
v -0.87638134 -0.48338521 -0.17981797
v -0.88208365 -0.47552529 -0.26330739
v -0.87638134 -0.47552529 -0.26935735
v -0.88136852 -0.47552529 -0.18470818
v -0.87638134 -0.47552529 -0.17936936
v -0.88321966 -0.46766537 -0.26330739
v -0.87638134 -0.46766537 -0.27035376
v -0.88181895 -0.46766537 -0.18470818
v -0.87638134 -0.46766537 -0.17911384
v -0.87648666 -0.45980546 -0.27116731
v -0.87638134 -0.45980546 -0.27125743
v -0.87638134 -0.46063659 -0.27116731
v -0.88239431 -0.45980546 -0.18470818
v -0.87638134 -0.45980546 -0.17876658
v -0.87770444 -0.45194551 -0.27116731
v -0.87638134 -0.45194551 -0.27225745
v -0.88301432 -0.45194551 -0.18470818
v -0.87638134 -0.45194551 -0.17843586
v -0.87903661 -0.44408560 -0.27116731
v -0.87638134 -0.44408560 -0.27329043
v -0.88380814 -0.44408560 -0.18470818
v -0.87638134 -0.44408560 -0.17796861
v -0.88056558 -0.43622568 -0.27116731
v -0.87638134 -0.43622568 -0.27433062
v -0.87638134 -0.43622568 -0.17743880
v -0.88221365 -0.42836577 -0.27116731
v -0.87638134 -0.42836577 -0.27538902
v -0.87638134 -0.42836577 -0.17686054
v -0.88391542 -0.42050582 -0.27116731
v -0.87638134 -0.42050582 -0.27638662
v -0.87638134 -0.42818609 -0.17684825
v -0.87712902 -0.42050582 -0.17684825
v -0.87638134 -0.42050582 -0.17634675
v -0.87638134 -0.41264591 -0.27728131
v -0.87772369 -0.41264591 -0.17684825
v -0.87638134 -0.41264591 -0.17599115
v -0.87638134 -0.40478599 -0.27809903
v -0.87825942 -0.40478599 -0.17684825
v -0.87638134 -0.40478599 -0.17569150
v -0.87638134 -0.39692608 -0.27887440
v -0.87875122 -0.39692608 -0.17684825
v -0.87638134 -0.39692608 -0.17546417
v -0.87706190 -0.38906616 -0.27902722
v -0.87638134 -0.38906616 -0.27939039
v -0.87638134 -0.39466444 -0.27902722
v -0.87903029 -0.38906616 -0.17684825
v -0.87638134 -0.38906616 -0.17536114
v -0.87708259 -0.38120621 -0.27902722
v -0.87638134 -0.38120621 -0.27939501
v -0.87837589 -0.38120621 -0.17684825
v -0.87638134 -0.38120621 -0.17577443
v -0.87638134 -0.37993151 -0.27902722
v -0.88377345 -0.37334630 -0.27116731
v -0.87638134 -0.37334630 -0.27596673
v -0.87638134 -0.37650067 -0.17684825
v -0.87638134 -0.37334630 -0.17787962
v -0.87638134 -0.37039524 -0.27116731
v -0.87638134 -0.36929396 -0.26330739
v -0.87638134 -0.36905625 -0.25544748
v -0.87638134 -0.36885050 -0.24758755
v -0.87638134 -0.36867726 -0.23972763
v -0.87638134 -0.36854675 -0.23186770
v -0.87638134 -0.36843774 -0.22400779
v -0.87638134 -0.36836585 -0.21614785
v -0.87638134 -0.36828914 -0.20828794
v -0.87638134 -0.36820689 -0.20042801
v -0.87638134 -0.36816329 -0.19256809
v -0.87638134 -0.36886886 -0.18470818
v -0.87014997 -0.50696498 -0.27116731
v -0.86852139 -0.50696498 -0.27248341
v -0.87155318 -0.50696498 -0.17684825
v -0.86852139 -0.50696498 -0.17437175
v -0.87079799 -0.49910507 -0.27116731
v -0.86852139 -0.49910507 -0.27296031
v -0.87168455 -0.49910507 -0.17684825
v -0.86852139 -0.49910507 -0.17432126
v -0.87200916 -0.49124515 -0.27116731
v -0.86852139 -0.49124515 -0.27392679
v -0.87239856 -0.49124515 -0.17684825
v -0.86852139 -0.49124515 -0.17385203
v -0.87322313 -0.48338521 -0.27116731
v -0.86852139 -0.48338521 -0.27477813
v -0.87300599 -0.48338521 -0.17684825
v -0.86852139 -0.48338521 -0.17349625
v -0.87429214 -0.47552529 -0.27116731
v -0.86852139 -0.47552529 -0.27543801
v -0.87341321 -0.47552529 -0.17684825
v -0.86852139 -0.47552529 -0.17337020
v -0.87539679 -0.46766537 -0.27116731
v -0.86852139 -0.46766537 -0.27610898
v -0.87363452 -0.46766537 -0.17684825
v -0.86852139 -0.46766537 -0.17329860
v -0.86852139 -0.45980546 -0.27680200
v -0.87391889 -0.45980546 -0.17684825
v -0.86852139 -0.45980546 -0.17328133
v -0.86852139 -0.45194551 -0.27756059
v -0.87426347 -0.45194551 -0.17684825
v -0.86852139 -0.45194551 -0.17316163
v -0.86852139 -0.44408560 -0.27834758
v -0.87477702 -0.44408560 -0.17684825
v -0.86852139 -0.44408560 -0.17302623
v -0.86870027 -0.43622568 -0.27902722
v -0.86852139 -0.43622568 -0.27912691
v -0.86852139 -0.43724439 -0.27902722
v -0.87548131 -0.43622568 -0.17684825
v -0.86852139 -0.43622568 -0.17277251
v -0.87015581 -0.42836577 -0.27902722
v -0.86852139 -0.42836577 -0.27989063
v -0.87636149 -0.42836577 -0.17684825
v -0.86852139 -0.42836577 -0.17251147
v -0.87154382 -0.42050582 -0.27902722
v -0.86852139 -0.42050582 -0.28052759
v -0.86852139 -0.42050582 -0.17230453
v -0.87296969 -0.41264591 -0.27902722
v -0.86852139 -0.41264591 -0.28111640
v -0.86852139 -0.41264591 -0.17221998
v -0.87441182 -0.40478599 -0.27902722
v -0.86852139 -0.40478599 -0.28160891
v -0.86852139 -0.40478599 -0.17220901
v -0.87603790 -0.39692608 -0.27902722
v -0.86852139 -0.39692608 -0.28206563
v -0.86852139 -0.39692608 -0.17220588
v -0.86852139 -0.38906616 -0.28239185
v -0.86852139 -0.38906616 -0.17228468
v -0.86852139 -0.38120621 -0.28235897
v -0.86852139 -0.38120621 -0.17276232
v -0.87122846 -0.37334630 -0.27902722
v -0.86852139 -0.37334630 -0.28013128
v -0.87453079 -0.37334630 -0.17684825
v -0.86852139 -0.37334630 -0.17449613
v -0.86852139 -0.37215549 -0.27902722
v -0.86852139 -0.36863846 -0.27116731
v -0.86852139 -0.36810765 -0.26330739
v -0.86852139 -0.36792749 -0.25544748
v -0.86852139 -0.36773345 -0.24758755
v -0.86852139 -0.36757532 -0.23972763
v -0.86852139 -0.36746809 -0.23186770
v -0.86852139 -0.36736998 -0.22400779
v -0.86852139 -0.36728394 -0.21614785
v -0.86852139 -0.36720905 -0.20828794
v -0.86852139 -0.36710674 -0.20042801
v -0.86852139 -0.36701432 -0.19256809
v -0.86852139 -0.36722055 -0.18470818
v -0.86852139 -0.37051451 -0.17684825
v -0.86066151 -0.50696498 -0.27780256
v -0.86066151 -0.50696498 -0.16936630
v -0.86066151 -0.49910507 -0.27799138
v -0.86066151 -0.49910507 -0.16959099
v -0.86066151 -0.49124515 -0.27872285
v -0.86066151 -0.49124515 -0.16941877
v -0.86125547 -0.48338521 -0.27902722
v -0.86066151 -0.48338521 -0.27934358
v -0.86066151 -0.48742965 -0.27902722
v -0.86066151 -0.48338521 -0.16929325
v -0.86219621 -0.47552529 -0.27902722
v -0.86066151 -0.47552529 -0.27982545
v -0.86066151 -0.47552529 -0.16931742
v -0.86300522 -0.46766537 -0.27902722
v -0.86066151 -0.46766537 -0.28017476
v -0.86066151 -0.46766537 -0.16936323
v -0.86419034 -0.45980546 -0.27902722
v -0.86066151 -0.45980546 -0.28070271
v -0.86066151 -0.45980546 -0.16945277
v -0.86548382 -0.45194551 -0.27902722
v -0.86066151 -0.45194551 -0.28120828
v -0.86066151 -0.45194551 -0.16946584
v -0.86704910 -0.44408560 -0.27902722
v -0.86066151 -0.44408560 -0.28180793
v -0.86066151 -0.44408560 -0.16950092
v -0.86066151 -0.43622568 -0.28233930
v -0.86066151 -0.43622568 -0.16948198
v -0.86066151 -0.42836577 -0.28286245
v -0.86066151 -0.42836577 -0.16947016
v -0.86066151 -0.42050582 -0.28326872
v -0.86066151 -0.42050582 -0.16940792
v -0.86066151 -0.41264591 -0.28361905
v -0.86066151 -0.41264591 -0.16953084
v -0.86066151 -0.40478599 -0.28394490
v -0.86066151 -0.40478599 -0.16971806
v -0.86066151 -0.39692608 -0.28423041
v -0.86066151 -0.39692608 -0.16992098
v -0.86066151 -0.38906616 -0.28443226
v -0.86066151 -0.38906616 -0.17021050
v -0.86066151 -0.38120621 -0.28429174
v -0.86066151 -0.38120621 -0.17081280
v -0.86066151 -0.37334630 -0.28238133
v -0.86066151 -0.37334630 -0.17236798
v -0.86066151 -0.36990166 -0.27902722
v -0.86066151 -0.36740267 -0.27116731
v -0.86066151 -0.36707795 -0.26330739
v -0.86066151 -0.36689198 -0.25544748
v -0.86066151 -0.36672097 -0.24758755
v -0.86066151 -0.36657706 -0.23972763
v -0.86066151 -0.36644235 -0.23186770
v -0.86066151 -0.36635926 -0.22400779
v -0.86066151 -0.36625311 -0.21614785
v -0.86066151 -0.36615765 -0.20828794
v -0.86066151 -0.36609083 -0.20042801
v -0.86066151 -0.36600336 -0.19256809
v -0.86066151 -0.36601096 -0.18470818
v -0.86066151 -0.36801696 -0.17684825
v -0.85810173 -0.50696498 -0.27902722
v -0.85280156 -0.50696498 -0.28146192
v -0.85985702 -0.50696498 -0.16898833
v -0.85280156 -0.50696498 -0.16582635
v -0.85855711 -0.49910507 -0.27902722
v -0.85280156 -0.49910507 -0.28164592
v -0.85929191 -0.49910507 -0.16898833
v -0.85280156 -0.49910507 -0.16632983
v -0.86000562 -0.49124515 -0.27902722
v -0.85280156 -0.49124515 -0.28213537
v -0.85961956 -0.49124515 -0.16898833
v -0.85280156 -0.49124515 -0.16635527
v -0.85280156 -0.48338521 -0.28251028
v -0.85985786 -0.48338521 -0.16898833
v -0.85280156 -0.48338521 -0.16646716
v -0.85280156 -0.47552529 -0.28273538
v -0.85974151 -0.47552529 -0.16898833
v -0.85280156 -0.47552529 -0.16661072
v -0.85280156 -0.46766537 -0.28296396
v -0.85953802 -0.46766537 -0.16898833
v -0.85280156 -0.46766537 -0.16681388
v -0.85280156 -0.45980546 -0.28325638
v -0.85921860 -0.45980546 -0.16898833
v -0.85280156 -0.45980546 -0.16697663
v -0.85280156 -0.45194551 -0.28362384
v -0.85907495 -0.45194551 -0.16898833
v -0.85280156 -0.45194551 -0.16713123
v -0.85280156 -0.44408560 -0.28403714
v -0.85885829 -0.44408560 -0.16898833
v -0.85280156 -0.44408560 -0.16728048
v -0.85280156 -0.43622568 -0.28441557
v -0.85883486 -0.43622568 -0.16898833
v -0.85280156 -0.43622568 -0.16737738
v -0.85280156 -0.42836577 -0.28479996
v -0.85875803 -0.42836577 -0.16898833
v -0.85280156 -0.42836577 -0.16750032
v -0.85280156 -0.42050582 -0.28506657
v -0.85875928 -0.42050582 -0.16898833
v -0.85280156 -0.42050582 -0.16770481
v -0.85280156 -0.41264591 -0.28526363
v -0.85800910 -0.41264591 -0.16898833
v -0.85280156 -0.41264591 -0.16794348
v -0.85280156 -0.40478599 -0.28538626
v -0.85666817 -0.40478599 -0.16898833
v -0.85280156 -0.40478599 -0.16828211
v -0.85280156 -0.39692608 -0.28546271
v -0.85488236 -0.39692608 -0.16898833
v -0.85280156 -0.39692608 -0.16864622
v -0.85280156 -0.38906616 -0.28554368
v -0.85280156 -0.39128819 -0.16898833
v -0.85280156 -0.38906616 -0.16912463
v -0.85280156 -0.38120621 -0.28532737
v -0.85280156 -0.38120621 -0.16990881
v -0.85280156 -0.37334630 -0.28370461
v -0.85280156 -0.37334630 -0.17132108
v -0.85280156 -0.36838523 -0.27902722
v -0.85280156 -0.36638463 -0.27116731
v -0.85280156 -0.36607501 -0.26330739
v -0.85280156 -0.36586428 -0.25544748
v -0.85280156 -0.36569694 -0.24758755
v -0.85280156 -0.36556008 -0.23972763
v -0.85304552 -0.36548638 -0.23186770
v -0.85280156 -0.36548638 -0.23424508
v -0.85407811 -0.36548638 -0.22400779
v -0.85487288 -0.36548638 -0.21614785
v -0.85565305 -0.36548638 -0.20828794
v -0.85639912 -0.36548638 -0.20042801
v -0.85700345 -0.36548638 -0.19256809
v -0.85672253 -0.36548638 -0.18470818
v -0.85280156 -0.36548638 -0.18136288
v -0.85280156 -0.36641112 -0.17684825
v -0.85280156 -0.36545429 -0.23186770
v -0.85280156 -0.36531183 -0.22400779
v -0.85280156 -0.36520922 -0.21614785
v -0.85280156 -0.36510727 -0.20828794
v -0.85280156 -0.36498550 -0.20042801
v -0.85280156 -0.36490321 -0.19256809
v -0.85280156 -0.36495939 -0.18470818
v -0.84494162 -0.50696498 -0.28410143
v -0.84494162 -0.50696498 -0.16347298
v -0.84494162 -0.49910507 -0.28404516
v -0.84494162 -0.49910507 -0.16420804
v -0.84494162 -0.49124515 -0.28434002
v -0.84494162 -0.49124515 -0.16438878
v -0.84494162 -0.48338521 -0.28456059
v -0.84494162 -0.48338521 -0.16465864
v -0.84494162 -0.47552529 -0.28467104
v -0.84494162 -0.47552529 -0.16499378
v -0.84494162 -0.46766537 -0.28475788
v -0.84494162 -0.46766537 -0.16532360
v -0.84494162 -0.45980546 -0.28494239
v -0.84494162 -0.45980546 -0.16562361
v -0.84494162 -0.45194551 -0.28513649
v -0.84494162 -0.45194551 -0.16586252
v -0.84494162 -0.44408560 -0.28537560
v -0.84494162 -0.44408560 -0.16605075
v -0.84494162 -0.43622568 -0.28559697
v -0.84494162 -0.43622568 -0.16627976
v -0.84494162 -0.42836577 -0.28575638
v -0.84494162 -0.42836577 -0.16656202
v -0.84494162 -0.42050582 -0.28588411
v -0.84494162 -0.42050582 -0.16689298
v -0.84494162 -0.41264591 -0.28591719
v -0.84494162 -0.41264591 -0.16729049
v -0.84494162 -0.40478599 -0.28586426
v -0.84494162 -0.40478599 -0.16779524
v -0.84494162 -0.39692608 -0.28580710
v -0.84494162 -0.39692608 -0.16833451
v -0.84494162 -0.38906616 -0.28569251
v -0.84526634 -0.38906616 -0.16898833
v -0.84494162 -0.38906616 -0.16898245
v -0.84494162 -0.38120621 -0.28536281
v -0.84494162 -0.38901877 -0.16898833
v -0.84494162 -0.38120621 -0.16991091
v -0.84494162 -0.37334630 -0.28400171
v -0.84494162 -0.37334630 -0.17133686
v -0.84494162 -0.36755481 -0.27902722
v -0.84494162 -0.36551324 -0.27116731
v -0.84816331 -0.36548638 -0.26330739
v -0.84494162 -0.36548638 -0.27068621
v -0.85001242 -0.36548638 -0.25544748
v -0.85125387 -0.36548638 -0.24758755
v -0.85226035 -0.36548638 -0.23972763
v -0.84572083 -0.36548638 -0.17684825
v -0.84494162 -0.36548638 -0.17673828
v -0.84494162 -0.36508676 -0.26330739
v -0.84494162 -0.36483827 -0.25544748
v -0.84494162 -0.36468145 -0.24758755
v -0.84494162 -0.36454773 -0.23972763
v -0.84494162 -0.36442220 -0.23186770
v -0.84494162 -0.36428899 -0.22400779
v -0.84494162 -0.36418492 -0.21614785
v -0.84494162 -0.36406279 -0.20828794
v -0.84494162 -0.36398885 -0.20042801
v -0.84494162 -0.36388683 -0.19256809
v -0.84494162 -0.36393607 -0.18470818
v -0.84494162 -0.36540315 -0.17684825
v -0.83708173 -0.50696498 -0.28559044
v -0.83708173 -0.50696498 -0.16221380
v -0.83708173 -0.49910507 -0.28543645
v -0.83708173 -0.49910507 -0.16300002
v -0.83708173 -0.49124515 -0.28561071
v -0.83708173 -0.49124515 -0.16331299
v -0.83708173 -0.48338521 -0.28570241
v -0.83708173 -0.48338521 -0.16370595
v -0.83708173 -0.47552529 -0.28572387
v -0.83708173 -0.47552529 -0.16424865
v -0.83708173 -0.46766537 -0.28568411
v -0.83708173 -0.46766537 -0.16473982
v -0.83708173 -0.45980546 -0.28568453
v -0.83708173 -0.45980546 -0.16512565
v -0.83708173 -0.45194551 -0.28571984
v -0.83708173 -0.45194551 -0.16548496
v -0.83708173 -0.44408560 -0.28577957
v -0.83708173 -0.44408560 -0.16580363
v -0.83708173 -0.43622568 -0.28586113
v -0.83708173 -0.43622568 -0.16614346
v -0.83708173 -0.42836577 -0.28584769
v -0.83708173 -0.42836577 -0.16657677
v -0.83708173 -0.42050582 -0.28576699
v -0.83708173 -0.42050582 -0.16705202
v -0.83708173 -0.41264591 -0.28562385
v -0.83708173 -0.41264591 -0.16760586
v -0.83708173 -0.40478599 -0.28542331
v -0.83708173 -0.40478599 -0.16827376
v -0.83708173 -0.39692608 -0.28516811
v -0.83735305 -0.39692608 -0.16898833
v -0.83708173 -0.39717475 -0.16898833
v -0.83708173 -0.39692608 -0.16901261
v -0.83708173 -0.38906616 -0.28489575
v -0.84488571 -0.38906616 -0.16898833
v -0.83708173 -0.38906616 -0.16979134
v -0.83708173 -0.38120621 -0.28441733
v -0.83708173 -0.38120621 -0.17085053
v -0.83708173 -0.37334630 -0.28314537
v -0.83708173 -0.37334630 -0.17236696
v -0.83708173 -0.36756799 -0.27902722
v -0.84467137 -0.36548638 -0.27116731
v -0.83708173 -0.36548638 -0.27382916
v -0.83708173 -0.36548638 -0.17670386
v -0.83708173 -0.36475173 -0.27116731
v -0.83708173 -0.36421114 -0.26330739
v -0.83708173 -0.36395496 -0.25544748
v -0.83708173 -0.36374137 -0.24758755
v -0.83708173 -0.36358687 -0.23972763
v -0.83708173 -0.36344278 -0.23186770
v -0.83708173 -0.36332262 -0.22400779
v -0.83708173 -0.36321217 -0.21614785
v -0.83708173 -0.36313978 -0.20828794
v -0.83708173 -0.36305323 -0.20042801
v -0.83708173 -0.36292893 -0.19256809
v -0.83708173 -0.36301833 -0.18470818
v -0.83708173 -0.36535811 -0.17684825
v -0.82922179 -0.50696498 -0.28617170
v -0.82922179 -0.50696498 -0.16178006
v -0.82922179 -0.49910507 -0.28600717
v -0.82922179 -0.49910507 -0.16258769
v -0.82922179 -0.49124515 -0.28608188
v -0.82922179 -0.49124515 -0.16302431
v -0.82922179 -0.48338521 -0.28604516
v -0.82922179 -0.48338521 -0.16358277
v -0.82922179 -0.47552529 -0.28597429
v -0.82922179 -0.47552529 -0.16424133
v -0.82922179 -0.46766537 -0.28580657
v -0.82922179 -0.46766537 -0.16492543
v -0.82922179 -0.45980546 -0.28566995
v -0.82922179 -0.45980546 -0.16549042
v -0.82922179 -0.45194551 -0.28553343
v -0.82922179 -0.45194551 -0.16595678
v -0.82922179 -0.44408560 -0.28540936
v -0.82922179 -0.44408560 -0.16637726
v -0.82922179 -0.43622568 -0.28522706
v -0.82922179 -0.43622568 -0.16689952
v -0.82922179 -0.42836577 -0.28499013
v -0.82922179 -0.42836577 -0.16749942
v -0.82922179 -0.42050582 -0.28474179
v -0.82922179 -0.42050582 -0.16820240
v -0.82922179 -0.41264591 -0.28435850
v -0.82922179 -0.41264591 -0.16895391
v -0.82922179 -0.40478599 -0.28389099
v -0.83343655 -0.40478599 -0.16898833
v -0.82922179 -0.41234154 -0.16898833
v -0.82922179 -0.40478599 -0.16983643
v -0.82922179 -0.39692608 -0.28345481
v -0.82922179 -0.39692608 -0.17079805
v -0.82922179 -0.38906616 -0.28300306
v -0.82922179 -0.38906616 -0.17183979
v -0.82922179 -0.38120621 -0.28237876
v -0.82922179 -0.38120621 -0.17297964
v -0.82922179 -0.37334630 -0.28118387
v -0.82922179 -0.37334630 -0.17449270
v -0.82922179 -0.36950377 -0.27902722
v -0.82922179 -0.36548638 -0.27408737
v -0.83625144 -0.36548638 -0.17684825
v -0.82922179 -0.36787689 -0.17684825
v -0.82922179 -0.36548638 -0.17875500
v -0.82922179 -0.36423093 -0.27116731
v -0.82922179 -0.36339003 -0.26330739
v -0.82922179 -0.36313090 -0.25544748
v -0.82922179 -0.36291599 -0.24758755
v -0.82922179 -0.36274815 -0.23972763
v -0.82922179 -0.36258689 -0.23186770
v -0.82922179 -0.36248124 -0.22400779
v -0.82922179 -0.36237526 -0.21614785
v -0.82922179 -0.36229509 -0.20828794
v -0.82922179 -0.36218324 -0.20042801
v -0.82922179 -0.36204767 -0.19256809
v -0.82922179 -0.36243254 -0.18470818
v -0.82136184 -0.50696498 -0.28593466
v -0.82136184 -0.50696498 -0.16210106
v -0.82136184 -0.49910507 -0.28568113
v -0.82136184 -0.49910507 -0.16295001
v -0.82136184 -0.49124515 -0.28562793
v -0.82136184 -0.49124515 -0.16351639
v -0.82136184 -0.48338521 -0.28554121
v -0.82136184 -0.48338521 -0.16421902
v -0.82136184 -0.47552529 -0.28532329
v -0.82136184 -0.47552529 -0.16509062
v -0.82136184 -0.46766537 -0.28506747
v -0.82136184 -0.46766537 -0.16588746
v -0.82136184 -0.45980546 -0.28473598
v -0.82136184 -0.45980546 -0.16661264
v -0.82136184 -0.45194551 -0.28438577
v -0.82136184 -0.45194551 -0.16728151
v -0.82136184 -0.44408560 -0.28400114
v -0.82136184 -0.44408560 -0.16796781
v -0.82136184 -0.43622568 -0.28358504
v -0.82136184 -0.43622568 -0.16866606
v -0.82136184 -0.42836577 -0.28312775
v -0.82332873 -0.42836577 -0.16898833
v -0.82136184 -0.43321487 -0.16898833
v -0.82136184 -0.42836577 -0.16951135
v -0.82136184 -0.42050582 -0.28262511
v -0.82643247 -0.42050582 -0.16898833
v -0.82136184 -0.42050582 -0.17046830
v -0.82136184 -0.41264591 -0.28206551
v -0.82911503 -0.41264591 -0.16898833
v -0.82136184 -0.41264591 -0.17153469
v -0.82136184 -0.40478599 -0.28147537
v -0.82136184 -0.40478599 -0.17268495
v -0.82136184 -0.39692608 -0.28088361
v -0.82136184 -0.39692608 -0.17377983
v -0.82136184 -0.38906616 -0.28026086
v -0.82136184 -0.38906616 -0.17485929
v -0.82136184 -0.38120621 -0.27948713
v -0.82136184 -0.38120621 -0.17610227
v -0.82136184 -0.37847865 -0.27902722
v -0.82358944 -0.37334630 -0.27902722
v -0.82136184 -0.37334630 -0.27809903
v -0.82359517 -0.37334630 -0.17684825
v -0.82136184 -0.37776145 -0.17684825
v -0.82136184 -0.37334630 -0.17785971
v -0.82136184 -0.36548638 -0.27266401
v -0.82136184 -0.36548638 -0.18177293
v -0.82136184 -0.36448950 -0.27116731
v -0.82136184 -0.36270782 -0.26330739
v -0.82136184 -0.36234319 -0.25544748
v -0.82136184 -0.36216435 -0.24758755
v -0.82136184 -0.36200634 -0.23972763
v -0.82136184 -0.36184397 -0.23186770
v -0.82136184 -0.36170506 -0.22400779
v -0.82136184 -0.36158833 -0.21614785
v -0.82136184 -0.36141515 -0.20828794
v -0.82136184 -0.36127657 -0.20042801
v -0.82136184 -0.36131111 -0.19256809
v -0.82136184 -0.36315045 -0.18470818
v -0.81350195 -0.50696498 -0.28486389
v -0.81350195 -0.50696498 -0.16319352
v -0.81350195 -0.49910507 -0.28437659
v -0.81350195 -0.49910507 -0.16421656
v -0.81350195 -0.49124515 -0.28424570
v -0.81350195 -0.49124515 -0.16487601
v -0.81350195 -0.48338521 -0.28401208
v -0.81350195 -0.48338521 -0.16576453
v -0.81350195 -0.47552529 -0.28367972
v -0.81350195 -0.47552529 -0.16679068
v -0.81350195 -0.46766537 -0.28320342
v -0.81350195 -0.46766537 -0.16778654
v -0.81350195 -0.45980546 -0.28268123
v -0.81350195 -0.45980546 -0.16881269
v -0.81350195 -0.45194551 -0.28215736
v -0.81581181 -0.45194551 -0.16898833
v -0.81350195 -0.45831606 -0.16898833
v -0.81350195 -0.45194551 -0.16972069
v -0.81350195 -0.44408560 -0.28156430
v -0.81839162 -0.44408560 -0.16898833
v -0.81350195 -0.44408560 -0.17069972
v -0.81350195 -0.43622568 -0.28093639
v -0.82051438 -0.43622568 -0.16898833
v -0.81350195 -0.43622568 -0.17172796
v -0.81350195 -0.42836577 -0.28026110
v -0.81350195 -0.42836577 -0.17288218
v -0.81350195 -0.42050582 -0.27957210
v -0.81350195 -0.42050582 -0.17400974
v -0.81350195 -0.41496158 -0.27902722
v -0.81402671 -0.41264591 -0.27902722
v -0.81350195 -0.41264591 -0.27878502
v -0.81350195 -0.41264591 -0.17526051
v -0.81580049 -0.40478599 -0.27902722
v -0.81350195 -0.40478599 -0.27789447
v -0.81350195 -0.40478599 -0.17653660
v -0.81745160 -0.39692608 -0.27902722
v -0.81350195 -0.39692608 -0.27692890
v -0.81540191 -0.39692608 -0.17684825
v -0.81350195 -0.40293777 -0.17684825
v -0.81350195 -0.39692608 -0.17797095
v -0.81891090 -0.38906616 -0.27902722
v -0.81350195 -0.38906616 -0.27597651
v -0.81773847 -0.38906616 -0.17684825
v -0.81350195 -0.38906616 -0.17948671
v -0.82049894 -0.38120621 -0.27902722
v -0.81350195 -0.38120621 -0.27493808
v -0.82007903 -0.38120621 -0.17684825
v -0.81350195 -0.38120621 -0.18104801
v -0.81350195 -0.37334630 -0.27342764
v -0.81350195 -0.37334630 -0.18290246
v -0.81350195 -0.36862886 -0.27116731
v -0.81794327 -0.36548638 -0.27116731
v -0.81350195 -0.36548638 -0.26872411
v -0.81610405 -0.36548638 -0.18470818
v -0.81350195 -0.36870071 -0.18470818
v -0.81350195 -0.36548638 -0.18643455
v -0.81350195 -0.36269608 -0.26330739
v -0.81350195 -0.36161643 -0.25544748
v -0.81350195 -0.36134696 -0.24758755
v -0.81350195 -0.36117864 -0.23972763
v -0.81350195 -0.36100918 -0.23186770
v -0.81350195 -0.36083117 -0.22400779
v -0.81350195 -0.36066005 -0.21614785
v -0.81350195 -0.36050406 -0.20828794
v -0.81350195 -0.36053261 -0.20042801
v -0.81350195 -0.36162755 -0.19256809
v -0.80564201 -0.50696498 -0.28273490
v -0.80564201 -0.50696498 -0.16531335
v -0.80564201 -0.49910507 -0.28216612
v -0.80564201 -0.49910507 -0.16645277
v -0.80564201 -0.49124515 -0.28186372
v -0.80564201 -0.49124515 -0.16728827
v -0.80564201 -0.48338521 -0.28144094
v -0.80564201 -0.48338521 -0.16834123
v -0.80564201 -0.47552529 -0.28087306
v -0.80738807 -0.47552529 -0.16898833
v -0.80564201 -0.47946292 -0.16898833
v -0.80564201 -0.47552529 -0.16964586
v -0.80564201 -0.46766537 -0.28021690
v -0.81043184 -0.46766537 -0.16898833
v -0.80564201 -0.46766537 -0.17093670
v -0.80564201 -0.45980546 -0.27947631
v -0.81309295 -0.45980546 -0.16898833
v -0.80564201 -0.45980546 -0.17222454
v -0.80564201 -0.45501700 -0.27902722
v -0.80627120 -0.45194551 -0.27902722
v -0.80564201 -0.45194551 -0.27872878
v -0.80564201 -0.45194551 -0.17344594
v -0.80797046 -0.44408560 -0.27902722
v -0.80564201 -0.44408560 -0.27786604
v -0.80564201 -0.44408560 -0.17465347
v -0.80951869 -0.43622568 -0.27902722
v -0.80564201 -0.43622568 -0.27696794
v -0.80564201 -0.43622568 -0.17591338
v -0.81105453 -0.42836577 -0.27902722
v -0.80564201 -0.42836577 -0.27599868
v -0.80648249 -0.42836577 -0.17684825
v -0.80564201 -0.43111199 -0.17684825
v -0.80564201 -0.42836577 -0.17739166
v -0.81248772 -0.42050582 -0.27902722
v -0.80564201 -0.42050582 -0.27496168
v -0.80879527 -0.42050582 -0.17684825
v -0.80564201 -0.42050582 -0.17904548
v -0.80564201 -0.41264591 -0.27387115
v -0.81100988 -0.41264591 -0.17684825
v -0.80564201 -0.41264591 -0.18076514
v -0.80564201 -0.40478599 -0.27275905
v -0.81302989 -0.40478599 -0.17684825
v -0.80564201 -0.40478599 -0.18236277
v -0.80564201 -0.39692608 -0.27157658
v -0.80564201 -0.39692608 -0.18394659
v -0.80564201 -0.39415166 -0.27116731
v -0.80669177 -0.38906616 -0.27116731
v -0.80564201 -0.38906616 -0.27028748
v -0.80665427 -0.38906616 -0.18470818
v -0.80564201 -0.39306203 -0.18470818
v -0.80564201 -0.38906616 -0.18561727
v -0.80836630 -0.38120621 -0.27116731
v -0.80564201 -0.38120621 -0.26876745
v -0.80874181 -0.38120621 -0.18470818
v -0.80564201 -0.38120621 -0.18754201
v -0.81051898 -0.37334630 -0.27116731
v -0.80564201 -0.37334630 -0.26683041
v -0.81122488 -0.37334630 -0.18470818
v -0.80564201 -0.37334630 -0.18978374
v -0.80647135 -0.36548638 -0.26330739
v -0.80564201 -0.36639780 -0.26330739
v -0.80564201 -0.36548638 -0.26260763
v -0.80638838 -0.36548638 -0.19256809
v -0.80564201 -0.36675113 -0.19256809
v -0.80564201 -0.36548638 -0.19329470
v -0.80564201 -0.36201426 -0.25544748
v -0.80564201 -0.36077079 -0.24758755
v -0.80564201 -0.36038101 -0.23972763
v -0.80564201 -0.36016604 -0.23186770
v -0.80564201 -0.35999441 -0.22400779
v -0.80564201 -0.35989326 -0.21614785
v -0.80564201 -0.36005491 -0.20828794
v -0.80564201 -0.36132675 -0.20042801
v -0.79778212 -0.50696498 -0.27959037
v -0.79778212 -0.50696498 -0.16854487
v -0.79778212 -0.50079590 -0.27902722
v -0.79811096 -0.49910507 -0.27902722
v -0.79778212 -0.49910507 -0.27887619
v -0.79947340 -0.49910507 -0.16898833
v -0.79778212 -0.50412601 -0.16898833
v -0.79778212 -0.49910507 -0.16973959
v -0.79919308 -0.49124515 -0.27902722
v -0.79778212 -0.49124515 -0.27834469
v -0.80166382 -0.49124515 -0.16898833
v -0.79778212 -0.49124515 -0.17082168
v -0.80050755 -0.48338521 -0.27902722
v -0.79778212 -0.48338521 -0.27762619
v -0.80423778 -0.48338521 -0.16898833
v -0.79778212 -0.48338521 -0.17221212
v -0.80201191 -0.47552529 -0.27902722
v -0.79778212 -0.47552529 -0.27669749
v -0.79778212 -0.47552529 -0.17373694
v -0.80342758 -0.46766537 -0.27902722
v -0.79778212 -0.46766537 -0.27574030
v -0.79778212 -0.46766537 -0.17532210
v -0.80484009 -0.45980546 -0.27902722
v -0.79778212 -0.45980546 -0.27475846
v -0.79788917 -0.45980546 -0.17684825
v -0.79778212 -0.46014300 -0.17684825
v -0.79778212 -0.45980546 -0.17692074
v -0.79778212 -0.45194551 -0.27371883
v -0.80015588 -0.45194551 -0.17684825
v -0.79778212 -0.45194551 -0.17855430
v -0.79778212 -0.44408560 -0.27262750
v -0.80235660 -0.44408560 -0.17684825
v -0.79778212 -0.44408560 -0.18034676
v -0.79778212 -0.43622568 -0.27148244
v -0.80431670 -0.43622568 -0.17684825
v -0.79778212 -0.43622568 -0.18205699
v -0.79778212 -0.43416354 -0.27116731
v -0.79894578 -0.42836577 -0.27116731
v -0.79778212 -0.42836577 -0.27017385
v -0.79778212 -0.42836577 -0.18392435
v -0.80059296 -0.42050582 -0.27116731
v -0.79778212 -0.42050582 -0.26864201
v -0.79902816 -0.42050582 -0.18470818
v -0.79778212 -0.42511863 -0.18470818
v -0.79778212 -0.42050582 -0.18599266
v -0.80217940 -0.41264591 -0.27116731
v -0.79778212 -0.41264591 -0.26705584
v -0.80111402 -0.41264591 -0.18470818
v -0.79778212 -0.41264591 -0.18820241
v -0.80367911 -0.40478599 -0.27116731
v -0.79778212 -0.40478599 -0.26538336
v -0.80301762 -0.40478599 -0.18470818
v -0.79778212 -0.40478599 -0.19027971
v -0.80515444 -0.39692608 -0.27116731
v -0.79778212 -0.39692608 -0.26370281
v -0.80479157 -0.39692608 -0.18470818
v -0.79778212 -0.39692608 -0.19226821
v -0.79895198 -0.38906616 -0.26330739
v -0.79778212 -0.39504331 -0.26330739
v -0.79778212 -0.38906616 -0.26171517
v -0.79920155 -0.38906616 -0.19256809
v -0.79778212 -0.39568439 -0.19256809
v -0.79778212 -0.38906616 -0.19449031
v -0.80056691 -0.38120621 -0.26330739
v -0.79778212 -0.38120621 -0.25948873
v -0.80099374 -0.38120621 -0.19256809
v -0.79778212 -0.38120621 -0.19682068
v -0.80243427 -0.37334630 -0.26330739
v -0.79778212 -0.37334630 -0.25681254
v -0.80302709 -0.37334630 -0.19256809
v -0.79778212 -0.37334630 -0.19944468
v -0.80023378 -0.36548638 -0.25544748
v -0.79778212 -0.37072295 -0.25544748
v -0.79778212 -0.36548638 -0.25164950
v -0.80013460 -0.36548638 -0.20042801
v -0.79778212 -0.37127993 -0.20042801
v -0.79778212 -0.36548638 -0.20433693
v -0.79778212 -0.36343691 -0.24758755
v -0.79778212 -0.36129057 -0.23972763
v -0.79778212 -0.36053255 -0.23186770
v -0.79778212 -0.36045820 -0.22400779
v -0.79778212 -0.36108747 -0.21614785
v -0.79778212 -0.36325786 -0.20828794
v -0.78992218 -0.51240319 -0.27902722
v -0.79672563 -0.50696498 -0.27902722
v -0.78992218 -0.50696498 -0.27519903
v -0.79695237 -0.50696498 -0.16898833
v -0.78992218 -0.50696498 -0.17287332
v -0.78992218 -0.49910507 -0.27412018
v -0.78992218 -0.49910507 -0.17448689
v -0.78992218 -0.49124515 -0.27323431
v -0.78992218 -0.49124515 -0.17592722
v -0.78992218 -0.48338521 -0.27224755
v -0.79099107 -0.48338521 -0.17684825
v -0.78992218 -0.48691711 -0.17684825
v -0.78992218 -0.48338521 -0.17768580
v -0.78992218 -0.47644386 -0.27116731
v -0.79011041 -0.47552529 -0.27116731
v -0.78992218 -0.47552529 -0.27100816
v -0.79340857 -0.47552529 -0.17684825
v -0.78992218 -0.47552529 -0.17971195
v -0.79164970 -0.46766537 -0.27116731
v -0.78992218 -0.46766537 -0.26964146
v -0.79571992 -0.46766537 -0.17684825
v -0.78992218 -0.46766537 -0.18172622
v -0.79317057 -0.45980546 -0.27116731
v -0.78992218 -0.45980546 -0.26817918
v -0.78992218 -0.45980546 -0.18371260
v -0.79459482 -0.45194551 -0.27116731
v -0.78992218 -0.45194551 -0.26671281
v -0.79096353 -0.45194551 -0.18470818
v -0.78992218 -0.45589730 -0.18470818
v -0.78992218 -0.45194551 -0.18585815
v -0.79601383 -0.44408560 -0.27116731
v -0.78992218 -0.44408560 -0.26516929
v -0.79309523 -0.44408560 -0.18470818
v -0.78992218 -0.44408560 -0.18828115
v -0.79740888 -0.43622568 -0.27116731
v -0.78992218 -0.43622568 -0.26351523
v -0.79502821 -0.43622568 -0.18470818
v -0.78992218 -0.43622568 -0.19067831
v -0.79131025 -0.42836577 -0.26330739
v -0.78992218 -0.43531707 -0.26330739
v -0.78992218 -0.42836577 -0.26139507
v -0.79040861 -0.42836577 -0.19256809
v -0.78992218 -0.43028668 -0.19256809
v -0.78992218 -0.42836577 -0.19330682
v -0.79698819 -0.42836577 -0.18470818
v -0.79285324 -0.42050582 -0.26330739
v -0.78992218 -0.42050582 -0.25914729
v -0.79233903 -0.42050582 -0.19256809
v -0.78992218 -0.42050582 -0.19624284
v -0.79441905 -0.41264591 -0.26330739
v -0.78992218 -0.41264591 -0.25667277
v -0.79420024 -0.41264591 -0.19256809
v -0.78992218 -0.41264591 -0.19917004
v -0.79597789 -0.40478599 -0.26330739
v -0.78992218 -0.40876669 -0.25544748
v -0.79070801 -0.40478599 -0.25544748
v -0.78992218 -0.40478599 -0.25379503
v -0.79085141 -0.40478599 -0.20042801
v -0.78992218 -0.40905535 -0.20042801
v -0.78992218 -0.40478599 -0.20236894
v -0.79589719 -0.40478599 -0.19256809
v -0.79745430 -0.39692608 -0.26330739
v -0.79232186 -0.39692608 -0.25544748
v -0.78992218 -0.39692608 -0.25042272
v -0.79245430 -0.39692608 -0.20042801
v -0.78992218 -0.39692608 -0.20575249
v -0.79754227 -0.39692608 -0.19256809
v -0.79386955 -0.38906616 -0.25544748
v -0.78992218 -0.39000121 -0.24758755
v -0.79009306 -0.38906616 -0.24758755
v -0.78992218 -0.38906616 -0.24701889
v -0.79018539 -0.38906616 -0.20828794
v -0.78992218 -0.39053693 -0.20828794
v -0.78992218 -0.38906616 -0.20916130
v -0.79396856 -0.38906616 -0.20042801
v -0.79526603 -0.38120621 -0.25544748
v -0.79153204 -0.38120621 -0.24758755
v -0.78992218 -0.38120621 -0.24230258
v -0.79159904 -0.38120621 -0.20828794
v -0.78992218 -0.38120621 -0.21382086
v -0.79542172 -0.38120621 -0.20042801
v -0.79693019 -0.37334630 -0.25544748
v -0.79317945 -0.37334630 -0.24758755
v -0.78992218 -0.37722141 -0.23972763
v -0.79066205 -0.37334630 -0.23972763
v -0.78992218 -0.37334630 -0.23438564
v -0.79075944 -0.37334630 -0.21614785
v -0.78992218 -0.37767881 -0.21614785
v -0.78992218 -0.37334630 -0.22207014
v -0.79325145 -0.37334630 -0.20828794
v -0.79712009 -0.37334630 -0.20042801
v -0.79588282 -0.36548638 -0.24758755
v -0.79330534 -0.36548638 -0.23972763
v -0.78992218 -0.37204838 -0.23186770
v -0.79202175 -0.36548638 -0.23186770
v -0.79206705 -0.36548638 -0.22400779
v -0.78992218 -0.37233490 -0.22400779
v -0.79332793 -0.36548638 -0.21614785
v -0.79587716 -0.36548638 -0.20828794
v -0.78455073 -0.50696498 -0.27116731
v -0.78206223 -0.50994825 -0.27116731
v -0.78206223 -0.50696498 -0.26903424
v -0.78456932 -0.50696498 -0.17684825
v -0.78206223 -0.50978529 -0.17684825
v -0.78206223 -0.50696498 -0.17900057
v -0.78609371 -0.49910507 -0.27116731
v -0.78206223 -0.49910507 -0.26757318
v -0.78678364 -0.49910507 -0.17684825
v -0.78206223 -0.49910507 -0.18106754
v -0.78731650 -0.49124515 -0.27116731
v -0.78206223 -0.49124515 -0.26625919
v -0.78874379 -0.49124515 -0.17684825
v -0.78206223 -0.49124515 -0.18305142
v -0.78862703 -0.48338521 -0.27116731
v -0.78206223 -0.48338521 -0.26470420
v -0.78266478 -0.48338521 -0.18470818
v -0.78206223 -0.48552924 -0.18470818
v -0.78206223 -0.48338521 -0.18540955
v -0.78231668 -0.47552529 -0.26330739
v -0.78206223 -0.47681114 -0.26330739
v -0.78206223 -0.47552529 -0.26298070
v -0.78485703 -0.47552529 -0.18470818
v -0.78206223 -0.47552529 -0.18801856
v -0.78387260 -0.46766537 -0.26330739
v -0.78206223 -0.46766537 -0.26087785
v -0.78696996 -0.46766537 -0.18470818
v -0.78206223 -0.46766537 -0.19069612
v -0.78545386 -0.45980546 -0.26330739
v -0.78206223 -0.45980546 -0.25860974
v -0.78265440 -0.45980546 -0.19256809
v -0.78206223 -0.46212795 -0.19256809
v -0.78206223 -0.45980546 -0.19352870
v -0.78895557 -0.45980546 -0.18470818
v -0.78686839 -0.45194551 -0.26330739
v -0.78206223 -0.45194551 -0.25642014
v -0.78467596 -0.45194551 -0.19256809
v -0.78206223 -0.45194551 -0.19677989
v -0.78829587 -0.44408560 -0.26330739
v -0.78206223 -0.44868690 -0.25544748
v -0.78294206 -0.44408560 -0.25544748
v -0.78206223 -0.44408560 -0.25364122
v -0.78660172 -0.44408560 -0.19256809
v -0.78206223 -0.44408560 -0.20011091
v -0.78974932 -0.43622568 -0.26330739
v -0.78449643 -0.43622568 -0.25544748
v -0.78206223 -0.43622568 -0.25034878
v -0.78376979 -0.43622568 -0.20042801
v -0.78206223 -0.44333646 -0.20042801
v -0.78206223 -0.43622568 -0.20434676
v -0.78848076 -0.43622568 -0.19256809
v -0.78605127 -0.42836577 -0.25544748
v -0.78206223 -0.42988914 -0.24758755
v -0.78235883 -0.42836577 -0.24758755
v -0.78206223 -0.42836577 -0.24657819
v -0.78223807 -0.42836577 -0.20828794
v -0.78206223 -0.42911971 -0.20828794
v -0.78206223 -0.42836577 -0.20891321
v -0.78567982 -0.42836577 -0.20042801
v -0.78759271 -0.42050582 -0.25544748
v -0.78395414 -0.42050582 -0.24758755
v -0.78206223 -0.42050582 -0.24076211
v -0.78402674 -0.42050582 -0.20828794
v -0.78206223 -0.42050582 -0.21522714
v -0.78744280 -0.42050582 -0.20042801
v -0.78918415 -0.41264591 -0.25544748
v -0.78562516 -0.41264591 -0.24758755
v -0.78206223 -0.41911954 -0.23972763
v -0.78333759 -0.41264591 -0.23972763
v -0.78237385 -0.41264591 -0.23186770
v -0.78206223 -0.41410381 -0.23186770
v -0.78240883 -0.41264591 -0.22400779
v -0.78206223 -0.41424972 -0.22400779
v -0.78351581 -0.41264591 -0.21614785
v -0.78206223 -0.41935262 -0.21614785
v -0.78578538 -0.41264591 -0.20828794
v -0.78919673 -0.41264591 -0.20042801
v -0.78721797 -0.40478599 -0.24758755
v -0.78500599 -0.40478599 -0.23972763
v -0.78394067 -0.40478599 -0.23186770
v -0.78398883 -0.40478599 -0.22400779
v -0.78514683 -0.40478599 -0.21614785
v -0.78733641 -0.40478599 -0.20828794
v -0.78872031 -0.39692608 -0.24758755
v -0.78649950 -0.39692608 -0.23972763
v -0.78547132 -0.39692608 -0.23186770
v -0.78550464 -0.39692608 -0.22400779
v -0.78660238 -0.39692608 -0.21614785
v -0.78884876 -0.39692608 -0.20828794
v -0.78788942 -0.38906616 -0.23972763
v -0.78683525 -0.38906616 -0.23186770
v -0.78689080 -0.38906616 -0.22400779
v -0.78798950 -0.38906616 -0.21614785
v -0.78918469 -0.38120621 -0.23972763
v -0.78815764 -0.38120621 -0.23186770
v -0.78821713 -0.38120621 -0.22400779
v -0.78926677 -0.38120621 -0.21614785
v -0.78957802 -0.37334630 -0.23186770
v -0.78965336 -0.37334630 -0.22400779
v -0.77420235 -0.51482493 -0.17635413
v -0.77656806 -0.50696498 -0.26330739
v -0.77420235 -0.51035321 -0.26330739
v -0.77420235 -0.50696498 -0.26028234
v -0.77658069 -0.50696498 -0.18470818
v -0.77420235 -0.51020348 -0.18470818
v -0.77420235 -0.50696498 -0.18774457
v -0.77420235 -0.51478219 -0.17684825
v -0.77805215 -0.49910507 -0.26330739
v -0.77420235 -0.49910507 -0.25819305
v -0.77864522 -0.49910507 -0.18470818
v -0.77420235 -0.49910507 -0.19042009
v -0.77938747 -0.49124515 -0.26330739
v -0.77420235 -0.49124515 -0.25624022
v -0.77452189 -0.49124515 -0.19256809
v -0.77420235 -0.49257946 -0.19256809
v -0.77420235 -0.49124515 -0.19309580
v -0.78055096 -0.49124515 -0.18470818
v -0.78083754 -0.48338521 -0.26330739
v -0.77420235 -0.48855338 -0.25544748
v -0.77524769 -0.48338521 -0.25544748
v -0.77420235 -0.48338521 -0.25349700
v -0.77663082 -0.48338521 -0.19256809
v -0.77420235 -0.48338521 -0.19662170
v -0.77689517 -0.47552529 -0.25544748
v -0.77420235 -0.47552529 -0.25022194
v -0.77866173 -0.47552529 -0.19256809
v -0.77420235 -0.47552529 -0.20018263
v -0.77847219 -0.46766537 -0.25544748
v -0.77420235 -0.46920830 -0.24758755
v -0.77451867 -0.46766537 -0.24758755
v -0.77420235 -0.46766537 -0.24663828
v -0.77609473 -0.46766537 -0.20042801
v -0.77420235 -0.47499406 -0.20042801
v -0.77420235 -0.46766537 -0.20499386
v -0.78066450 -0.46766537 -0.19256809
v -0.77999014 -0.45980546 -0.25544748
v -0.77613449 -0.45980546 -0.24758755
v -0.77420235 -0.45980546 -0.24156128
v -0.77481979 -0.45980546 -0.20828794
v -0.77420235 -0.46233308 -0.20828794
v -0.77420235 -0.45980546 -0.21072695
v -0.77810740 -0.45980546 -0.20042801
v -0.78145427 -0.45194551 -0.25544748
v -0.77776057 -0.45194551 -0.24758755
v -0.77420235 -0.45704105 -0.23972763
v -0.77524507 -0.45194551 -0.23972763
v -0.77420235 -0.45194551 -0.23295580
v -0.77470779 -0.45194551 -0.21614785
v -0.77420235 -0.45409700 -0.21614785
v -0.77420235 -0.45194551 -0.22055839
v -0.77673507 -0.45194551 -0.20828794
v -0.77997166 -0.45194551 -0.20042801
v -0.77930272 -0.44408560 -0.24758755
v -0.77693826 -0.44408560 -0.23972763
v -0.77420235 -0.45117760 -0.23186770
v -0.77571839 -0.44408560 -0.23186770
v -0.77558422 -0.44408560 -0.22400779
v -0.77420235 -0.45022857 -0.22400779
v -0.77656090 -0.44408560 -0.21614785
v -0.77865964 -0.44408560 -0.20828794
v -0.78188545 -0.44408560 -0.20042801
v -0.78084159 -0.43622568 -0.24758755
v -0.77858019 -0.43622568 -0.23972763
v -0.77747893 -0.43622568 -0.23186770
v -0.77741975 -0.43622568 -0.22400779
v -0.77839619 -0.43622568 -0.21614785
v -0.78044361 -0.43622568 -0.20828794
v -0.78014874 -0.42836577 -0.23972763
v -0.77913713 -0.42836577 -0.23186770
v -0.77912211 -0.42836577 -0.22400779
v -0.78014010 -0.42836577 -0.21614785
v -0.78178674 -0.42050582 -0.23972763
v -0.78073829 -0.42050582 -0.23186770
v -0.78076357 -0.42050582 -0.22400779
v -0.78181350 -0.42050582 -0.21614785
v -0.76726574 -0.51482493 -0.18470818
v -0.76634240 -0.51482493 -0.18646884
v -0.77084023 -0.50696498 -0.25544748
v -0.76634240 -0.51313061 -0.25544748
v -0.76675791 -0.50696498 -0.24758755
v -0.76634240 -0.50775194 -0.24758755
v -0.76634240 -0.50696498 -0.24650803
v -0.76685029 -0.50696498 -0.20042801
v -0.76634240 -0.50789571 -0.20042801
v -0.76634240 -0.50696498 -0.20175718
v -0.77086705 -0.50696498 -0.19256809
v -0.76634240 -0.51298630 -0.19256809
v -0.77238882 -0.49910507 -0.25544748
v -0.76822907 -0.49910507 -0.24758755
v -0.76634240 -0.49910507 -0.24232213
v -0.76847637 -0.49910507 -0.20042801
v -0.76634240 -0.49910507 -0.20607781
v -0.77273792 -0.49910507 -0.19256809
v -0.77369094 -0.49124515 -0.25544748
v -0.76971275 -0.49124515 -0.24758755
v -0.76634240 -0.49425635 -0.23972763
v -0.76690745 -0.49124515 -0.23972763
v -0.76634240 -0.49124515 -0.23695801
v -0.76722217 -0.49124515 -0.20828794
v -0.76634240 -0.49533239 -0.20828794
v -0.76634240 -0.49124515 -0.21206054
v -0.77019924 -0.49124515 -0.20042801
v -0.77130938 -0.48338521 -0.24758755
v -0.76855332 -0.48338521 -0.23972763
v -0.76634240 -0.48649484 -0.23186770
v -0.76700592 -0.48338521 -0.23186770
v -0.76657850 -0.48338521 -0.22400779
v -0.76634240 -0.48442659 -0.22400779
v -0.76721305 -0.48338521 -0.21614785
v -0.76634240 -0.48719099 -0.21614785
v -0.76906580 -0.48338521 -0.20828794
v -0.77210218 -0.48338521 -0.20042801
v -0.77294189 -0.47552529 -0.24758755
v -0.77030128 -0.47552529 -0.23972763
v -0.76880449 -0.47552529 -0.23186770
v -0.76836771 -0.47552529 -0.22400779
v -0.76913929 -0.47552529 -0.21614785
v -0.77102363 -0.47552529 -0.20828794
v -0.77406740 -0.47552529 -0.20042801
v -0.77202839 -0.46766537 -0.23972763
v -0.77062643 -0.46766537 -0.23186770
v -0.77030098 -0.46766537 -0.22400779
v -0.77105278 -0.46766537 -0.21614785
v -0.77292120 -0.46766537 -0.20828794
v -0.77363747 -0.45980546 -0.23972763
v -0.77239293 -0.45980546 -0.23186770
v -0.77210295 -0.45980546 -0.22400779
v -0.77287996 -0.45980546 -0.21614785
v -0.77403343 -0.45194551 -0.23186770
v -0.77380866 -0.45194551 -0.22400779
v -0.75934589 -0.51482493 -0.20042801
v -0.75848252 -0.51482493 -0.20478536
v -0.76385170 -0.50696498 -0.23972763
v -0.75848252 -0.51425213 -0.23972763
v -0.76220298 -0.50696498 -0.23186770
v -0.75848252 -0.51297295 -0.23186770
v -0.76172233 -0.50696498 -0.22400779
v -0.75848252 -0.51242125 -0.22400779
v -0.76225209 -0.50696498 -0.21614785
v -0.75848252 -0.51301754 -0.21614785
v -0.76394236 -0.50696498 -0.20828794
v -0.75848252 -0.51433778 -0.20828794
v -0.76547778 -0.49910507 -0.23972763
v -0.76392210 -0.49910507 -0.23186770
v -0.76340383 -0.49910507 -0.22400779
v -0.76395798 -0.49910507 -0.21614785
v -0.76556617 -0.49910507 -0.20828794
v -0.76537490 -0.49124515 -0.23186770
v -0.76490861 -0.49124515 -0.22400779
v -0.76545322 -0.49124515 -0.21614785
f 1 2 3
f 1 4 5
f 3 4 1
f 4 6 5
f 7 8 9
f 2 7 9
f 2 1 7
f 1 10 7
f 5 11 1
f 11 10 1
f 12 5 6
f 12 13 5
f 13 11 5
f 12 14 13
f 15 8 7
f 16 8 15
f 10 17 7
f 17 15 7
f 11 18 10
f 18 17 10
f 13 19 11
f 19 18 11
f 20 13 14
f 19 13 20
f 15 21 16
f 17 21 15
f 22 21 17
f 18 22 17
f 23 22 18
f 19 23 18
f 24 23 19
f 20 24 19
f 25 26 27
f 25 28 29
f 27 28 25
f 28 30 29
f 31 32 33
f 26 31 33
f 26 25 31
f 25 34 31
f 29 35 25
f 35 34 25
f 36 29 30
f 36 37 29
f 37 35 29
f 36 38 37
f 39 32 31
f 40 32 39
f 34 41 31
f 41 39 31
f 35 42 34
f 42 41 34
f 37 43 35
f 43 42 35
f 44 37 38
f 44 45 37
f 45 43 37
f 44 46 45
f 47 48 49
f 40 47 49
f 40 39 47
f 39 50 47
f 41 51 39
f 51 50 39
f 42 52 41
f 52 51 41
f 43 53 42
f 53 52 42
f 45 54 43
f 54 53 43
f 55 45 46
f 54 45 55
f 56 48 47
f 57 48 56
f 50 58 47
f 58 56 47
f 51 59 50
f 59 58 50
f 52 60 51
f 60 59 51
f 53 61 52
f 61 60 52
f 54 62 53
f 62 61 53
f 63 54 55
f 62 54 63
f 64 65 66
f 57 64 66
f 57 56 64
f 56 67 64
f 58 68 56
f 68 67 56
f 59 69 58
f 69 68 58
f 60 70 59
f 70 69 59
f 61 71 60
f 71 70 60
f 62 72 61
f 72 71 61
f 73 62 63
f 73 74 62
f 74 72 62
f 73 75 74
f 76 65 64
f 77 65 76
f 67 78 64
f 78 76 64
f 68 79 67
f 79 78 67
f 3 2 79
f 3 79 69
f 69 79 68
f 4 3 69
f 70 4 69
f 6 4 70
f 6 70 80
f 80 70 71
f 72 81 71
f 81 80 71
f 74 82 72
f 82 81 72
f 83 74 75
f 82 74 83
f 84 77 76
f 85 77 84
f 78 86 76
f 86 84 76
f 9 8 86
f 9 86 79
f 79 86 78
f 2 9 79
f 6 80 12
f 14 12 80
f 14 80 87
f 87 80 81
f 82 88 81
f 88 87 81
f 89 82 83
f 88 82 89
f 90 85 84
f 91 85 90
f 86 92 84
f 92 90 84
f 8 16 92
f 86 8 92
f 87 93 20
f 14 87 20
f 88 94 87
f 94 93 87
f 95 88 89
f 94 88 95
f 90 96 91
f 96 97 98
f 96 90 97
f 90 92 97
f 16 21 99
f 16 99 92
f 92 99 97
f 21 22 100
f 99 21 100
f 22 23 101
f 100 22 101
f 23 24 102
f 101 23 102
f 24 20 93
f 24 93 102
f 102 93 103
f 104 94 105
f 104 103 94
f 103 93 94
f 95 105 94
f 97 106 98
f 99 106 97
f 107 106 99
f 100 107 99
f 108 107 100
f 101 108 100
f 109 108 101
f 102 109 101
f 110 109 102
f 103 110 102
f 111 110 103
f 104 111 103
f 112 113 114
f 112 115 116
f 114 115 112
f 116 117 118
f 115 117 116
f 117 119 118
f 120 113 112
f 121 113 120
f 116 122 112
f 122 120 112
f 118 123 116
f 123 122 116
f 124 118 119
f 123 118 124
f 125 126 127
f 121 125 127
f 121 120 125
f 120 128 125
f 122 129 120
f 129 128 120
f 123 130 122
f 130 129 122
f 131 123 124
f 131 132 123
f 132 130 123
f 131 133 132
f 134 126 125
f 135 126 134
f 128 136 125
f 136 134 125
f 129 137 128
f 137 136 128
f 130 138 129
f 138 137 129
f 132 139 130
f 139 138 130
f 140 132 133
f 139 132 140
f 141 142 143
f 135 141 143
f 135 134 141
f 134 144 141
f 136 145 134
f 145 144 134
f 137 146 136
f 146 145 136
f 138 147 137
f 147 146 137
f 139 148 138
f 148 147 138
f 149 139 140
f 148 139 149
f 150 142 141
f 151 142 150
f 144 152 141
f 152 150 141
f 145 153 144
f 153 152 144
f 146 154 145
f 154 153 145
f 147 155 146
f 155 154 146
f 148 156 147
f 156 155 147
f 157 148 149
f 156 148 157
f 158 151 150
f 159 151 158
f 152 160 150
f 160 158 150
f 153 161 152
f 161 160 152
f 154 162 153
f 162 161 153
f 155 163 154
f 163 162 154
f 156 164 155
f 164 163 155
f 165 156 157
f 165 166 156
f 166 164 156
f 165 167 166
f 168 169 170
f 159 168 170
f 159 158 168
f 158 171 168
f 160 172 158
f 172 171 158
f 27 26 172
f 27 172 161
f 161 172 160
f 28 27 161
f 162 28 161
f 30 28 162
f 30 162 173
f 173 162 163
f 164 174 163
f 174 173 163
f 166 175 164
f 175 174 164
f 176 166 167
f 175 166 176
f 177 169 168
f 178 169 177
f 171 179 168
f 179 177 168
f 33 32 179
f 33 179 172
f 172 179 171
f 26 33 172
f 30 173 36
f 38 36 173
f 38 173 180
f 180 173 174
f 175 181 174
f 181 180 174
f 182 175 176
f 181 175 182
f 183 178 177
f 184 178 183
f 179 185 177
f 185 183 177
f 32 40 185
f 179 32 185
f 38 180 44
f 46 44 180
f 46 180 186
f 186 180 181
f 187 181 182
f 187 188 181
f 188 186 181
f 187 189 188
f 190 184 183
f 191 184 190
f 49 48 190
f 49 190 185
f 185 190 183
f 40 49 185
f 186 192 55
f 46 186 55
f 188 193 186
f 193 192 186
f 194 188 189
f 193 188 194
f 195 196 197
f 191 195 197
f 191 190 195
f 190 198 195
f 48 57 198
f 190 48 198
f 192 199 63
f 55 192 63
f 193 200 192
f 200 199 192
f 201 193 194
f 200 193 201
f 202 196 195
f 203 196 202
f 66 65 202
f 66 202 198
f 198 202 195
f 57 66 198
f 63 199 73
f 75 73 199
f 75 199 204
f 204 199 200
f 205 200 201
f 204 200 205
f 206 203 202
f 207 203 206
f 65 77 206
f 202 65 206
f 204 208 83
f 75 204 83
f 209 204 205
f 208 204 209
f 210 207 206
f 211 207 210
f 77 85 210
f 206 77 210
f 208 212 89
f 83 208 89
f 213 208 209
f 212 208 213
f 214 211 210
f 215 211 214
f 85 91 214
f 210 85 214
f 212 216 95
f 89 212 95
f 217 212 213
f 216 212 217
f 214 218 215
f 219 220 218
f 96 219 218
f 96 218 214
f 96 214 91
f 96 98 219
f 105 221 104
f 105 95 216
f 105 216 221
f 221 216 222
f 223 216 217
f 222 216 223
f 219 224 220
f 98 224 219
f 98 106 224
f 106 225 224
f 107 226 106
f 106 226 225
f 108 227 107
f 107 227 226
f 109 228 108
f 108 228 227
f 110 229 109
f 109 229 228
f 111 230 110
f 110 230 229
f 221 111 104
f 221 231 111
f 231 230 111
f 222 231 221
f 232 231 222
f 223 232 222
f 243 244 245
f 234 243 245
f 234 233 243
f 233 246 243
f 235 247 233
f 247 246 233
f 114 113 247
f 114 247 236
f 236 247 235
f 115 114 236
f 237 115 236
f 117 115 237
f 238 117 237
f 119 117 238
f 119 238 248
f 248 238 239
f 240 249 239
f 249 248 239
f 241 250 240
f 250 249 240
f 251 241 242
f 250 241 251
f 252 244 243
f 253 244 252
f 246 254 243
f 254 252 243
f 247 255 246
f 255 254 246
f 113 121 255
f 247 113 255
f 248 256 124
f 119 248 124
f 249 257 248
f 257 256 248
f 250 258 249
f 258 257 249
f 259 250 251
f 258 250 259
f 260 253 252
f 261 253 260
f 254 262 252
f 262 260 252
f 127 126 262
f 127 262 255
f 255 262 254
f 121 127 255
f 124 256 131
f 133 131 256
f 133 256 263
f 263 256 257
f 258 264 257
f 264 263 257
f 265 258 259
f 264 258 265
f 266 261 260
f 267 261 266
f 262 268 260
f 268 266 260
f 126 135 268
f 262 126 268
f 263 269 140
f 133 263 140
f 264 270 263
f 270 269 263
f 271 264 265
f 270 264 271
f 272 267 266
f 273 267 272
f 143 142 272
f 143 272 268
f 268 272 266
f 135 143 268
f 269 274 149
f 140 269 149
f 270 275 269
f 275 274 269
f 276 270 271
f 275 270 276
f 277 278 279
f 273 277 279
f 273 272 277
f 272 280 277
f 142 151 280
f 272 142 280
f 274 281 157
f 149 274 157
f 275 282 274
f 282 281 274
f 283 275 276
f 282 275 283
f 284 278 277
f 285 278 284
f 280 286 277
f 286 284 277
f 151 159 286
f 280 151 286
f 157 281 165
f 167 165 281
f 167 281 287
f 287 281 282
f 288 282 283
f 287 282 288
f 289 285 284
f 290 285 289
f 170 169 289
f 170 289 286
f 286 289 284
f 159 170 286
f 287 291 176
f 167 287 176
f 292 287 288
f 291 287 292
f 293 290 289
f 294 290 293
f 169 178 293
f 289 169 293
f 291 295 182
f 176 291 182
f 296 291 292
f 296 297 291
f 297 295 291
f 296 298 297
f 299 294 293
f 300 294 299
f 178 184 299
f 293 178 299
f 182 295 187
f 189 187 295
f 189 295 301
f 301 295 297
f 302 297 298
f 301 297 302
f 303 300 299
f 304 300 303
f 184 191 303
f 299 184 303
f 301 305 194
f 189 301 194
f 306 301 302
f 305 301 306
f 307 308 309
f 304 307 309
f 303 307 304
f 303 196 307
f 303 197 196
f 191 197 303
f 305 310 201
f 194 305 201
f 311 305 306
f 310 305 311
f 312 308 307
f 313 308 312
f 196 203 312
f 307 196 312
f 310 314 205
f 201 310 205
f 315 310 311
f 314 310 315
f 316 313 312
f 317 313 316
f 203 207 316
f 312 203 316
f 314 318 209
f 205 314 209
f 319 314 315
f 318 314 319
f 320 317 316
f 321 317 320
f 207 211 320
f 316 207 320
f 318 322 213
f 209 318 213
f 323 318 319
f 322 318 323
f 324 321 320
f 325 321 324
f 211 215 324
f 320 211 324
f 322 326 217
f 213 322 217
f 327 322 323
f 326 322 327
f 324 328 325
f 329 330 328
f 218 329 328
f 218 328 324
f 218 324 215
f 218 220 329
f 326 331 223
f 217 326 223
f 332 326 327
f 331 326 332
f 329 333 330
f 220 333 329
f 220 224 333
f 224 334 333
f 225 335 224
f 224 335 334
f 226 336 225
f 225 336 335
f 227 337 226
f 226 337 336
f 228 338 227
f 227 338 337
f 229 339 228
f 228 339 338
f 230 340 229
f 229 340 339
f 231 341 230
f 230 341 340
f 232 342 231
f 231 342 341
f 331 232 223
f 331 343 232
f 343 342 232
f 332 343 331
f 349 345 344
f 350 345 349
f 245 244 349
f 245 349 346
f 346 349 344
f 234 245 346
f 347 351 251
f 242 347 251
f 352 347 348
f 351 347 352
f 353 350 349
f 354 350 353
f 244 253 353
f 349 244 353
f 351 355 259
f 251 351 259
f 356 351 352
f 355 351 356
f 357 354 353
f 358 354 357
f 253 261 357
f 353 253 357
f 355 359 265
f 259 355 265
f 360 355 356
f 359 355 360
f 361 358 357
f 362 358 361
f 261 267 361
f 357 261 361
f 359 363 271
f 265 359 271
f 364 359 360
f 363 359 364
f 365 362 361
f 366 362 365
f 267 273 365
f 361 267 365
f 363 367 276
f 271 363 276
f 368 363 364
f 367 363 368
f 369 370 371
f 366 369 371
f 365 369 366
f 365 278 369
f 365 279 278
f 273 279 365
f 367 372 283
f 276 367 283
f 373 367 368
f 372 367 373
f 374 370 369
f 375 370 374
f 278 285 374
f 369 278 374
f 372 376 288
f 283 372 288
f 377 372 373
f 376 372 377
f 378 375 374
f 379 375 378
f 285 290 378
f 374 285 378
f 376 380 292
f 288 376 292
f 381 376 377
f 380 376 381
f 382 379 378
f 383 379 382
f 290 294 382
f 378 290 382
f 292 380 296
f 380 298 296
f 380 381 298
f 381 384 298
f 385 383 382
f 386 383 385
f 294 300 385
f 382 294 385
f 298 384 302
f 384 387 302
f 388 386 385
f 389 386 388
f 300 304 388
f 385 300 388
f 390 391 306
f 390 306 387
f 387 306 302
f 390 392 391
f 309 389 388
f 309 308 389
f 308 393 389
f 304 309 388
f 391 394 311
f 306 391 311
f 395 391 392
f 394 391 395
f 308 313 393
f 393 313 396
f 394 397 315
f 311 394 315
f 398 394 395
f 397 394 398
f 313 317 396
f 396 317 399
f 397 400 319
f 315 397 319
f 401 397 398
f 400 397 401
f 402 403 404
f 402 404 399
f 402 399 321
f 321 399 317
f 400 405 323
f 319 400 323
f 406 400 401
f 405 400 406
f 407 403 402
f 408 403 407
f 321 325 407
f 402 321 407
f 405 409 327
f 323 405 327
f 410 405 406
f 409 405 410
f 407 411 408
f 412 413 411
f 328 412 411
f 328 411 407
f 328 407 325
f 328 330 412
f 409 414 415
f 409 415 327
f 327 415 332
f 410 414 409
f 412 416 413
f 330 416 412
f 330 333 416
f 333 417 416
f 334 418 333
f 333 418 417
f 335 419 334
f 334 419 418
f 336 420 335
f 335 420 419
f 337 421 336
f 336 421 420
f 338 422 337
f 337 422 421
f 339 423 338
f 338 423 422
f 340 424 339
f 339 424 423
f 341 425 340
f 340 425 424
f 342 426 341
f 341 426 425
f 343 427 342
f 342 427 426
f 415 343 332
f 427 343 415
f 432 429 428
f 433 429 432
f 345 350 432
f 428 345 432
f 430 434 352
f 348 430 352
f 435 430 431
f 434 430 435
f 436 433 432
f 437 433 436
f 350 354 436
f 432 350 436
f 434 438 356
f 352 434 356
f 439 434 435
f 438 434 439
f 440 437 436
f 441 437 440
f 354 358 440
f 436 354 440
f 438 442 360
f 356 438 360
f 443 438 439
f 442 438 443
f 444 441 440
f 445 441 444
f 358 362 444
f 440 358 444
f 442 446 364
f 360 442 364
f 447 442 443
f 446 442 447
f 448 445 444
f 449 445 448
f 362 366 448
f 444 362 448
f 446 450 368
f 364 446 368
f 451 446 447
f 450 446 451
f 371 449 448
f 371 370 449
f 370 452 449
f 366 371 448
f 450 453 373
f 368 450 373
f 454 450 451
f 453 450 454
f 370 375 452
f 452 375 455
f 453 456 377
f 373 453 377
f 457 453 454
f 456 453 457
f 375 379 455
f 455 379 458
f 456 459 381
f 377 456 381
f 460 456 457
f 459 456 460
f 461 462 463
f 461 463 458
f 461 458 383
f 383 458 379
f 459 464 384
f 381 459 384
f 465 459 460
f 464 459 465
f 466 462 461
f 467 462 466
f 383 386 466
f 461 383 466
f 464 468 387
f 384 464 387
f 469 464 465
f 468 464 469
f 470 467 466
f 471 467 470
f 386 389 470
f 466 386 470
f 387 468 390
f 468 392 390
f 468 469 392
f 469 472 392
f 473 471 470
f 474 471 473
f 389 393 473
f 470 389 473
f 392 472 395
f 472 475 395
f 476 474 473
f 477 474 476
f 393 396 476
f 473 393 476
f 395 475 398
f 475 478 398
f 479 477 476
f 480 477 479
f 396 399 479
f 476 396 479
f 398 478 401
f 478 481 401
f 404 480 479
f 404 403 480
f 403 482 480
f 399 404 479
f 401 481 406
f 481 483 406
f 403 408 482
f 482 408 484
f 406 483 410
f 483 485 410
f 486 408 411
f 486 487 408
f 487 484 408
f 411 413 486
f 414 488 415
f 414 489 488
f 414 410 489
f 410 485 489
f 486 490 487
f 413 490 486
f 413 416 490
f 416 491 490
f 417 492 416
f 416 492 491
f 418 493 417
f 417 493 492
f 419 494 418
f 418 494 493
f 420 495 419
f 419 495 494
f 421 496 420
f 420 496 495
f 422 497 421
f 421 497 496
f 423 498 422
f 422 498 497
f 424 499 423
f 423 499 498
f 425 500 424
f 424 500 499
f 426 501 425
f 425 501 500
f 427 502 426
f 426 502 501
f 488 427 415
f 488 503 427
f 503 502 427
f 489 503 488
f 429 433 504
f 504 433 506
f 431 505 435
f 505 507 435
f 433 437 506
f 506 437 508
f 435 507 439
f 507 509 439
f 510 511 512
f 510 512 508
f 510 508 441
f 441 508 437
f 439 509 443
f 509 513 443
f 514 511 510
f 515 511 514
f 441 445 514
f 510 441 514
f 443 513 447
f 513 516 447
f 517 515 514
f 518 515 517
f 445 449 517
f 514 445 517
f 447 516 451
f 516 519 451
f 520 518 517
f 521 518 520
f 449 452 520
f 517 449 520
f 451 519 454
f 519 522 454
f 523 521 520
f 524 521 523
f 452 455 523
f 520 452 523
f 454 522 457
f 522 525 457
f 526 524 523
f 527 524 526
f 455 458 526
f 523 455 526
f 457 525 460
f 525 528 460
f 463 527 526
f 463 462 527
f 462 529 527
f 458 463 526
f 460 528 465
f 528 530 465
f 462 467 529
f 529 467 531
f 465 530 469
f 530 532 469
f 467 471 531
f 531 471 533
f 469 532 472
f 532 534 472
f 471 474 533
f 533 474 535
f 472 534 475
f 534 536 475
f 474 477 535
f 535 477 537
f 475 536 478
f 536 538 478
f 477 480 537
f 537 480 539
f 478 538 481
f 538 540 481
f 480 482 539
f 539 482 541
f 481 540 483
f 540 542 483
f 482 484 541
f 541 484 543
f 483 542 485
f 542 544 485
f 484 487 543
f 543 487 545
f 485 544 489
f 544 546 489
f 487 547 545
f 490 547 487
f 491 548 490
f 490 548 547
f 492 549 491
f 491 549 548
f 493 550 492
f 492 550 549
f 494 551 493
f 493 551 550
f 495 552 494
f 494 552 551
f 496 553 495
f 495 553 552
f 497 554 496
f 496 554 553
f 498 555 497
f 497 555 554
f 499 556 498
f 498 556 555
f 500 557 499
f 499 557 556
f 501 558 500
f 500 558 557
f 502 559 501
f 501 559 558
f 503 560 502
f 502 560 559
f 546 503 489
f 560 503 546
f 565 562 561
f 566 562 565
f 504 506 565
f 561 504 565
f 563 567 507
f 505 563 507
f 568 563 564
f 567 563 568
f 569 566 565
f 570 566 569
f 506 508 569
f 565 506 569
f 567 571 509
f 507 567 509
f 572 567 568
f 571 567 572
f 512 570 569
f 512 511 570
f 511 573 570
f 508 512 569
f 571 574 513
f 509 571 513
f 575 571 572
f 574 571 575
f 511 515 573
f 573 515 576
f 574 577 516
f 513 574 516
f 578 574 575
f 577 574 578
f 515 518 576
f 576 518 579
f 577 580 519
f 516 577 519
f 581 577 578
f 580 577 581
f 518 521 579
f 579 521 582
f 580 583 522
f 519 580 522
f 584 580 581
f 583 580 584
f 521 524 582
f 582 524 585
f 583 586 525
f 522 583 525
f 587 583 584
f 586 583 587
f 524 527 585
f 585 527 588
f 586 589 528
f 525 586 528
f 590 586 587
f 589 586 590
f 527 529 588
f 588 529 591
f 589 592 530
f 528 589 530
f 593 589 590
f 592 589 593
f 529 531 591
f 591 531 594
f 592 595 532
f 530 592 532
f 596 592 593
f 595 592 596
f 531 533 594
f 594 533 597
f 595 598 534
f 532 595 534
f 599 595 596
f 598 595 599
f 533 535 597
f 597 535 600
f 598 601 536
f 534 598 536
f 602 598 599
f 601 598 602
f 535 537 600
f 600 537 603
f 601 604 538
f 536 601 538
f 605 601 602
f 604 601 605
f 537 539 603
f 603 539 606
f 604 607 540
f 538 604 540
f 608 604 605
f 607 604 608
f 539 541 606
f 606 541 609
f 607 610 611
f 607 611 540
f 540 611 542
f 608 610 607
f 541 543 609
f 609 543 612
f 542 611 544
f 611 613 544
f 543 545 612
f 612 545 614
f 544 613 546
f 613 615 546
f 545 616 614
f 547 616 545
f 548 617 547
f 547 617 616
f 549 618 548
f 548 618 617
f 550 619 549
f 549 619 618
f 551 620 550
f 550 620 619
f 552 621 551
f 551 621 620
f 622 623 621
f 622 621 553
f 553 621 552
f 553 554 624
f 622 553 624
f 554 555 625
f 624 554 625
f 555 556 626
f 625 555 626
f 556 557 627
f 626 556 627
f 557 558 628
f 627 557 628
f 558 559 629
f 628 558 629
f 630 629 559
f 630 559 631
f 631 559 560
f 615 560 546
f 631 560 615
f 622 632 623
f 624 632 622
f 633 632 624
f 625 633 624
f 634 633 625
f 626 634 625
f 635 634 626
f 627 635 626
f 636 635 627
f 628 636 627
f 637 636 628
f 629 637 628
f 638 637 629
f 630 638 629
f 562 566 639
f 639 566 641
f 564 640 568
f 640 642 568
f 566 570 641
f 641 570 643
f 568 642 572
f 642 644 572
f 570 573 643
f 643 573 645
f 572 644 575
f 644 646 575
f 573 576 645
f 645 576 647
f 575 646 578
f 646 648 578
f 576 579 647
f 647 579 649
f 578 648 581
f 648 650 581
f 579 582 649
f 649 582 651
f 581 650 584
f 650 652 584
f 582 585 651
f 651 585 653
f 584 652 587
f 652 654 587
f 585 588 653
f 653 588 655
f 587 654 590
f 654 656 590
f 588 591 655
f 655 591 657
f 590 656 593
f 656 658 593
f 591 594 657
f 657 594 659
f 593 658 596
f 658 660 596
f 594 597 659
f 659 597 661
f 596 660 599
f 660 662 599
f 597 600 661
f 661 600 663
f 599 662 602
f 662 664 602
f 600 603 663
f 663 603 665
f 602 664 605
f 664 666 605
f 603 606 665
f 665 606 667
f 605 666 608
f 666 668 608
f 606 609 667
f 667 609 669
f 610 670 611
f 610 671 670
f 610 608 671
f 608 668 671
f 609 612 669
f 669 612 672
f 670 673 674
f 670 674 611
f 611 674 613
f 671 673 670
f 612 614 672
f 672 614 675
f 613 674 615
f 674 676 615
f 614 677 675
f 616 677 614
f 617 678 616
f 616 678 677
f 679 680 678
f 679 678 618
f 618 678 617
f 618 619 681
f 679 618 681
f 619 620 682
f 681 619 682
f 620 621 683
f 682 620 683
f 621 623 683
f 631 684 630
f 631 685 684
f 631 615 685
f 615 676 685
f 679 686 680
f 681 686 679
f 687 686 681
f 682 687 681
f 688 687 682
f 683 688 682
f 689 688 683
f 623 689 683
f 623 632 689
f 632 690 689
f 633 691 632
f 632 691 690
f 634 692 633
f 633 692 691
f 635 693 634
f 634 693 692
f 636 694 635
f 635 694 693
f 637 695 636
f 636 695 694
f 638 696 637
f 637 696 695
f 684 638 630
f 684 697 638
f 697 696 638
f 685 697 684
f 639 641 698
f 698 641 700
f 640 699 642
f 699 701 642
f 641 643 700
f 700 643 702
f 642 701 644
f 701 703 644
f 643 645 702
f 702 645 704
f 644 703 646
f 703 705 646
f 645 647 704
f 704 647 706
f 646 705 648
f 705 707 648
f 647 649 706
f 706 649 708
f 648 707 650
f 707 709 650
f 649 651 708
f 708 651 710
f 650 709 652
f 709 711 652
f 651 653 710
f 710 653 712
f 652 711 654
f 711 713 654
f 653 655 712
f 712 655 714
f 654 713 656
f 713 715 656
f 655 657 714
f 714 657 716
f 656 715 658
f 715 717 658
f 657 659 716
f 716 659 718
f 658 717 660
f 717 719 660
f 659 661 718
f 718 661 720
f 660 719 662
f 719 721 662
f 661 663 720
f 720 663 722
f 662 721 664
f 721 723 664
f 663 665 722
f 722 665 724
f 664 723 666
f 723 725 666
f 665 667 724
f 724 667 726
f 727 728 729
f 727 725 728
f 727 668 725
f 668 666 725
f 667 669 726
f 726 669 730
f 731 727 729
f 732 731 729
f 668 731 671
f 727 731 668
f 669 672 730
f 730 672 733
f 673 731 732
f 673 732 674
f 674 732 734
f 671 731 673
f 672 675 733
f 733 675 735
f 674 734 676
f 734 736 676
f 675 737 735
f 677 737 675
f 738 739 737
f 738 737 678
f 678 737 677
f 678 680 738
f 676 736 685
f 736 740 685
f 738 741 739
f 680 741 738
f 680 686 741
f 686 742 741
f 687 743 686
f 686 743 742
f 688 744 687
f 687 744 743
f 689 745 688
f 688 745 744
f 690 746 689
f 689 746 745
f 691 747 690
f 690 747 746
f 692 748 691
f 691 748 747
f 693 749 692
f 692 749 748
f 694 750 693
f 693 750 749
f 695 751 694
f 694 751 750
f 696 752 695
f 695 752 751
f 697 753 696
f 696 753 752
f 740 697 685
f 753 697 740
f 698 700 754
f 754 700 756
f 699 755 701
f 755 757 701
f 700 702 756
f 756 702 758
f 701 757 703
f 757 759 703
f 702 704 758
f 758 704 760
f 703 759 705
f 759 761 705
f 704 706 760
f 760 706 762
f 705 761 707
f 761 763 707
f 706 708 762
f 762 708 764
f 707 763 709
f 763 765 709
f 708 710 764
f 764 710 766
f 709 765 711
f 765 767 711
f 710 712 766
f 766 712 768
f 711 767 713
f 767 769 713
f 712 714 768
f 768 714 770
f 713 769 715
f 769 771 715
f 714 716 770
f 770 716 772
f 715 771 717
f 771 773 717
f 716 718 772
f 772 718 774
f 717 773 719
f 773 775 719
f 718 720 774
f 774 720 776
f 719 775 721
f 775 777 721
f 720 722 776
f 776 722 778
f 721 777 723
f 777 779 723
f 722 724 778
f 778 724 780
f 781 782 783
f 781 779 782
f 781 725 779
f 725 723 779
f 724 726 780
f 780 726 784
f 728 781 783
f 728 783 729
f 729 783 785
f 725 781 728
f 726 730 784
f 784 730 786
f 729 785 732
f 785 787 732
f 730 733 786
f 786 733 788
f 732 787 734
f 787 789 734
f 733 735 788
f 788 735 790
f 734 789 736
f 789 791 736
f 735 792 790
f 737 792 735
f 792 737 739
f 793 792 739
f 794 795 796
f 794 791 795
f 794 740 791
f 740 736 791
f 739 797 793
f 741 797 739
f 742 798 741
f 741 798 797
f 743 799 742
f 742 799 798
f 744 800 743
f 743 800 799
f 745 801 744
f 744 801 800
f 746 802 745
f 745 802 801
f 747 803 746
f 746 803 802
f 748 804 747
f 747 804 803
f 749 805 748
f 748 805 804
f 750 806 749
f 749 806 805
f 751 807 750
f 750 807 806
f 752 808 751
f 751 808 807
f 796 753 794
f 796 808 753
f 808 752 753
f 740 794 753
f 754 756 809
f 809 756 811
f 755 810 757
f 810 812 757
f 756 758 811
f 811 758 813
f 757 812 759
f 812 814 759
f 758 760 813
f 813 760 815
f 759 814 761
f 814 816 761
f 760 762 815
f 815 762 817
f 761 816 763
f 816 818 763
f 762 764 817
f 817 764 819
f 763 818 765
f 818 820 765
f 764 766 819
f 819 766 821
f 765 820 767
f 820 822 767
f 766 768 821
f 821 768 823
f 767 822 769
f 822 824 769
f 768 770 823
f 823 770 825
f 769 824 771
f 824 826 771
f 770 772 825
f 825 772 827
f 771 826 773
f 826 828 773
f 772 774 827
f 827 774 829
f 830 831 832
f 830 828 831
f 830 775 828
f 775 773 828
f 774 776 829
f 829 776 833
f 834 830 832
f 835 834 832
f 775 834 777
f 830 834 775
f 776 778 833
f 833 778 836
f 837 834 835
f 838 837 835
f 777 837 779
f 834 837 777
f 778 780 836
f 836 780 839
f 782 837 838
f 782 838 783
f 783 838 840
f 779 837 782
f 780 784 839
f 839 784 841
f 783 840 785
f 840 842 785
f 784 786 841
f 841 786 843
f 785 842 787
f 842 844 787
f 786 788 843
f 843 788 845
f 787 844 789
f 844 846 789
f 847 790 848
f 847 845 790
f 845 788 790
f 847 848 849
f 850 851 852
f 850 846 851
f 850 791 846
f 791 789 846
f 790 792 848
f 848 792 793
f 848 793 849
f 849 793 853
f 795 850 852
f 795 852 796
f 796 852 854
f 791 850 795
f 793 855 853
f 797 855 793
f 798 856 797
f 797 856 855
f 799 857 798
f 798 857 856
f 800 858 799
f 799 858 857
f 801 859 800
f 800 859 858
f 802 860 801
f 801 860 859
f 803 861 802
f 802 861 860
f 804 862 803
f 803 862 861
f 805 863 804
f 804 863 862
f 806 864 805
f 805 864 863
f 807 865 806
f 806 865 864
f 808 866 807
f 807 866 865
f 854 808 796
f 866 808 854
f 809 811 867
f 867 811 869
f 810 868 812
f 868 870 812
f 811 813 869
f 869 813 871
f 812 870 814
f 870 872 814
f 813 815 871
f 871 815 873
f 814 872 816
f 872 874 816
f 815 817 873
f 873 817 875
f 816 874 818
f 874 876 818
f 817 819 875
f 875 819 877
f 818 876 820
f 876 878 820
f 819 821 877
f 877 821 879
f 820 878 822
f 878 880 822
f 821 823 879
f 879 823 881
f 882 883 884
f 882 880 883
f 882 824 880
f 824 822 880
f 823 825 881
f 881 825 885
f 886 882 884
f 887 886 884
f 824 886 826
f 882 886 824
f 825 827 885
f 885 827 888
f 889 886 887
f 890 889 887
f 826 889 828
f 886 889 826
f 827 829 888
f 888 829 891
f 831 889 890
f 831 890 832
f 832 890 892
f 828 889 831
f 829 833 891
f 891 833 893
f 832 892 835
f 892 894 835
f 895 836 896
f 895 893 836
f 893 833 836
f 895 896 897
f 835 894 838
f 894 898 838
f 896 839 899
f 836 839 896
f 900 897 896
f 899 900 896
f 838 898 840
f 898 901 840
f 899 841 902
f 839 841 899
f 903 900 899
f 902 903 899
f 904 905 906
f 904 901 905
f 904 842 901
f 842 840 901
f 902 843 907
f 841 843 902
f 908 903 902
f 907 908 902
f 909 904 906
f 910 909 906
f 842 909 844
f 904 909 842
f 907 845 911
f 843 845 907
f 912 908 907
f 911 912 907
f 913 909 910
f 914 913 910
f 844 913 846
f 909 913 844
f 845 847 911
f 911 847 849
f 911 849 912
f 912 849 915
f 851 913 914
f 851 914 852
f 852 914 916
f 846 913 851
f 917 853 918
f 917 915 853
f 915 849 853
f 917 918 919
f 920 921 922
f 920 916 921
f 920 854 916
f 854 852 916
f 853 855 918
f 918 923 919
f 918 855 923
f 855 856 923
f 857 924 856
f 856 924 923
f 858 925 857
f 857 925 924
f 859 926 858
f 858 926 925
f 860 927 859
f 859 927 926
f 861 928 860
f 860 928 927
f 862 929 861
f 861 929 928
f 863 930 862
f 862 930 929
f 864 931 863
f 863 931 930
f 865 932 864
f 864 932 931
f 922 866 920
f 922 932 866
f 932 865 866
f 854 920 866
f 867 869 933
f 933 869 935
f 868 934 870
f 934 936 870
f 869 871 935
f 935 871 937
f 870 936 872
f 936 938 872
f 871 873 937
f 937 873 939
f 872 938 874
f 938 940 874
f 873 875 939
f 939 875 941
f 942 943 944
f 942 940 943
f 942 876 940
f 876 874 940
f 875 877 941
f 941 877 945
f 946 942 944
f 947 946 944
f 876 946 878
f 942 946 876
f 877 879 945
f 945 879 948
f 949 946 947
f 950 949 947
f 878 949 880
f 946 949 878
f 951 881 952
f 951 948 881
f 948 879 881
f 951 952 953
f 883 949 950
f 883 950 884
f 884 950 954
f 880 949 883
f 952 885 955
f 881 885 952
f 956 953 952
f 955 956 952
f 884 954 887
f 954 957 887
f 955 888 958
f 885 888 955
f 959 956 955
f 958 959 955
f 887 957 890
f 957 960 890
f 958 891 961
f 888 891 958
f 962 959 958
f 961 962 958
f 963 964 965
f 963 960 964
f 963 892 960
f 892 890 960
f 961 893 966
f 891 893 961
f 967 962 961
f 966 967 961
f 968 963 965
f 969 968 965
f 892 968 894
f 963 968 892
f 893 895 966
f 966 895 897
f 966 897 967
f 967 897 970
f 971 968 969
f 972 971 969
f 894 971 898
f 968 971 894
f 897 900 970
f 970 900 973
f 974 971 972
f 975 974 972
f 898 974 901
f 971 974 898
f 900 903 973
f 973 903 976
f 905 974 975
f 905 975 906
f 906 975 977
f 901 974 905
f 978 908 979
f 978 976 908
f 976 903 908
f 978 979 980
f 981 982 983
f 981 977 982
f 981 910 977
f 910 906 977
f 979 912 984
f 908 912 979
f 985 980 979
f 984 985 979
f 986 981 983
f 987 986 983
f 910 986 914
f 981 986 910
f 984 915 988
f 912 915 984
f 989 985 984
f 988 989 984
f 990 986 987
f 991 990 987
f 914 990 916
f 986 990 914
f 915 917 988
f 919 992 993
f 917 919 993
f 917 993 989
f 917 989 988
f 993 992 994
f 995 996 997
f 991 996 995
f 990 991 995
f 990 995 922
f 990 922 921
f 916 990 921
f 919 923 992
f 992 998 994
f 992 923 998
f 923 924 998
f 925 999 924
f 924 999 998
f 926 1000 925
f 925 1000 999
f 927 1001 926
f 926 1001 1000
f 928 1002 927
f 927 1002 1001
f 929 1003 928
f 928 1003 1002
f 930 1004 929
f 929 1004 1003
f 931 1005 930
f 930 1005 1004
f 997 932 995
f 997 1005 932
f 1005 931 932
f 922 995 932
f 1008 935 1009
f 1008 1006 935
f 1006 933 935
f 1008 1009 1010
f 1011 1012 1013
f 1011 1007 1012
f 1011 936 1007
f 936 934 1007
f 1009 937 1014
f 935 937 1009
f 1015 1010 1009
f 1014 1015 1009
f 1016 1011 1013
f 1017 1016 1013
f 936 1016 938
f 1011 1016 936
f 1014 939 1018
f 937 939 1014
f 1019 1015 1014
f 1018 1019 1014
f 1020 1016 1017
f 1021 1020 1017
f 938 1020 940
f 1016 1020 938
f 1018 941 1022
f 939 941 1018
f 1023 1019 1018
f 1022 1023 1018
f 943 1020 1021
f 943 1021 944
f 944 1021 1024
f 940 1020 943
f 1022 945 1025
f 941 945 1022
f 1026 1023 1022
f 1025 1026 1022
f 944 1024 947
f 1024 1027 947
f 1025 948 1028
f 945 948 1025
f 1029 1026 1025
f 1028 1029 1025
f 1030 1031 1032
f 1030 1027 1031
f 1030 950 1027
f 950 947 1027
f 948 951 1028
f 1028 951 953
f 1028 953 1029
f 1029 953 1033
f 1034 1030 1032
f 1035 1034 1032
f 950 1034 954
f 1030 1034 950
f 953 956 1033
f 1033 956 1036
f 1037 1034 1035
f 1038 1037 1035
f 954 1037 957
f 1034 1037 954
f 956 959 1036
f 1036 959 1039
f 1040 1037 1038
f 1041 1040 1038
f 957 1040 960
f 1037 1040 957
f 1042 962 1043
f 1042 1039 962
f 1039 959 962
f 1042 1043 1044
f 964 1040 1041
f 964 1041 965
f 965 1041 1045
f 960 1040 964
f 1043 967 1046
f 962 967 1043
f 1047 1044 1043
f 1046 1047 1043
f 1048 1049 1050
f 1048 1045 1049
f 1048 969 1045
f 969 965 1045
f 1046 970 1051
f 967 970 1046
f 1052 1047 1046
f 1051 1052 1046
f 1053 1048 1050
f 1054 1053 1050
f 969 1053 972
f 1048 1053 969
f 1051 973 1055
f 970 973 1051
f 1056 1052 1051
f 1055 1056 1051
f 1057 1053 1054
f 1058 1057 1054
f 972 1057 975
f 1053 1057 972
f 1055 976 1059
f 973 976 1055
f 1060 1056 1055
f 1059 1060 1055
f 1061 1057 1058
f 1062 1061 1058
f 975 1061 977
f 1057 1061 975
f 976 978 1059
f 980 1063 1064
f 978 980 1064
f 978 1064 1060
f 978 1060 1059
f 1064 1063 1065
f 1066 1067 1068
f 1062 1067 1066
f 1061 1062 1066
f 1061 1066 983
f 1061 983 982
f 977 1061 982
f 1063 985 1069
f 980 985 1063
f 1070 1065 1063
f 1069 1070 1063
f 1071 1066 1068
f 1072 1071 1068
f 983 1071 987
f 1066 1071 983
f 1069 989 1073
f 985 989 1069
f 1074 1070 1069
f 1073 1074 1069
f 1075 1071 1072
f 1076 1075 1072
f 987 1075 991
f 1071 1075 987
f 989 993 1073
f 994 1077 1078
f 993 994 1078
f 993 1078 1074
f 993 1074 1073
f 1078 1077 1079
f 1080 1081 1082
f 1076 1081 1080
f 1075 1076 1080
f 1075 1080 997
f 1075 997 996
f 991 1075 996
f 994 998 1077
f 1077 1083 1079
f 1077 998 1083
f 998 999 1083
f 1000 1084 999
f 999 1084 1083
f 1001 1085 1000
f 1000 1085 1084
f 1002 1086 1001
f 1001 1086 1085
f 1003 1087 1002
f 1002 1087 1086
f 1004 1088 1003
f 1003 1088 1087
f 1082 1005 1080
f 1082 1088 1005
f 1088 1004 1005
f 997 1080 1005
f 1089 1006 1090
f 1089 1090 1091
f 1006 1008 1090
f 1090 1008 1010
f 1090 1010 1091
f 1091 1010 1094
f 1012 1092 1093
f 1012 1093 1013
f 1013 1093 1095
f 1007 1092 1012
f 1010 1015 1094
f 1094 1015 1096
f 1013 1095 1017
f 1095 1097 1017
f 1015 1019 1096
f 1096 1019 1098
f 1099 1100 1101
f 1099 1097 1100
f 1099 1021 1097
f 1021 1017 1097
f 1102 1023 1103
f 1102 1098 1023
f 1098 1019 1023
f 1102 1103 1104
f 1105 1099 1101
f 1106 1105 1101
f 1021 1105 1024
f 1099 1105 1021
f 1103 1026 1107
f 1023 1026 1103
f 1108 1104 1103
f 1107 1108 1103
f 1109 1105 1106
f 1110 1109 1106
f 1024 1109 1027
f 1105 1109 1024
f 1107 1029 1111
f 1026 1029 1107
f 1112 1108 1107
f 1111 1112 1107
f 1031 1109 1110
f 1031 1110 1032
f 1032 1110 1113
f 1027 1109 1031
f 1111 1033 1114
f 1029 1033 1111
f 1115 1112 1111
f 1114 1115 1111
f 1116 1117 1118
f 1116 1113 1117
f 1116 1035 1113
f 1035 1032 1113
f 1114 1036 1119
f 1033 1036 1114
f 1120 1115 1114
f 1119 1120 1114
f 1121 1116 1118
f 1122 1121 1118
f 1035 1121 1038
f 1116 1121 1035
f 1119 1039 1123
f 1036 1039 1119
f 1124 1120 1119
f 1123 1124 1119
f 1125 1121 1122
f 1126 1125 1122
f 1038 1125 1041
f 1121 1125 1038
f 1039 1042 1123
f 1044 1127 1128
f 1042 1044 1128
f 1042 1128 1124
f 1042 1124 1123
f 1128 1127 1129
f 1130 1131 1132
f 1126 1131 1130
f 1126 1130 1125
f 1125 1130 1133
f 1041 1133 1045
f 1125 1133 1041
f 1127 1047 1134
f 1044 1047 1127
f 1135 1129 1127
f 1134 1135 1127
f 1136 1130 1132
f 1137 1136 1132
f 1049 1136 1050
f 1049 1133 1136
f 1133 1130 1136
f 1045 1133 1049
f 1134 1052 1138
f 1047 1052 1134
f 1139 1135 1134
f 1138 1139 1134
f 1140 1136 1137
f 1141 1140 1137
f 1050 1140 1054
f 1136 1140 1050
f 1138 1056 1142
f 1052 1056 1138
f 1143 1139 1138
f 1143 1138 1144
f 1144 1138 1142
f 1143 1144 1145
f 1146 1147 1148
f 1141 1147 1146
f 1141 1146 1140
f 1140 1146 1149
f 1054 1149 1058
f 1140 1149 1054
f 1142 1060 1150
f 1056 1060 1142
f 1144 1142 1151
f 1151 1142 1150
f 1152 1145 1144
f 1151 1152 1144
f 1153 1146 1148
f 1154 1153 1148
f 1149 1146 1155
f 1155 1146 1153
f 1058 1155 1062
f 1149 1155 1058
f 1060 1064 1150
f 1065 1150 1064
f 1065 1156 1150
f 1156 1151 1150
f 1157 1152 1151
f 1157 1151 1158
f 1158 1151 1156
f 1157 1158 1159
f 1160 1161 1162
f 1154 1161 1160
f 1154 1160 1153
f 1153 1160 1163
f 1067 1163 1068
f 1067 1155 1163
f 1155 1153 1163
f 1062 1155 1067
f 1156 1070 1164
f 1065 1070 1156
f 1158 1156 1165
f 1165 1156 1164
f 1166 1159 1158
f 1165 1166 1158
f 1167 1160 1162
f 1168 1167 1162
f 1163 1160 1169
f 1169 1160 1167
f 1068 1169 1072
f 1163 1169 1068
f 1164 1074 1170
f 1070 1074 1164
f 1165 1164 1171
f 1171 1164 1170
f 1172 1166 1165
f 1172 1165 1173
f 1173 1165 1171
f 1172 1173 1174
f 1175 1176 1177
f 1168 1176 1175
f 1168 1175 1167
f 1167 1175 1178
f 1169 1167 1179
f 1179 1167 1178
f 1072 1179 1076
f 1169 1179 1072
f 1074 1078 1170
f 1079 1170 1078
f 1079 1180 1170
f 1180 1171 1170
f 1173 1171 1181
f 1181 1171 1180
f 1182 1174 1173
f 1182 1173 1183
f 1183 1173 1181
f 1183 1184 1185
f 1182 1183 1185
f 1177 1185 1184
f 1177 1184 1175
f 1175 1184 1186
f 1178 1175 1187
f 1187 1175 1186
f 1081 1187 1082
f 1081 1179 1187
f 1179 1178 1187
f 1076 1179 1081
f 1079 1083 1180
f 1084 1180 1083
f 1181 1180 1084
f 1085 1181 1084
f 1183 1181 1085
f 1086 1183 1085
f 1184 1183 1086
f 1087 1184 1086
f 1186 1184 1087
f 1088 1186 1087
f 1187 1186 1088
f 1082 1187 1088
f 1091 1188 1189
f 1089 1091 1189
f 1189 1188 1190
f 1191 1192 1193
f 1188 1094 1194
f 1091 1094 1188
f 1195 1190 1188
f 1194 1195 1188
f 1196 1191 1193
f 1197 1196 1193
f 1093 1196 1095
f 1191 1196 1093
f 1194 1096 1198
f 1094 1096 1194
f 1199 1195 1194
f 1198 1199 1194
f 1200 1196 1197
f 1201 1200 1197
f 1095 1200 1097
f 1196 1200 1095
f 1198 1098 1202
f 1096 1098 1198
f 1203 1199 1198
f 1202 1203 1198
f 1204 1205 1206
f 1201 1205 1204
f 1200 1201 1204
f 1200 1204 1101
f 1200 1101 1100
f 1097 1200 1100
f 1098 1102 1202
f 1104 1207 1208
f 1102 1104 1208
f 1102 1208 1203
f 1102 1203 1202
f 1208 1207 1209
f 1210 1204 1206
f 1211 1210 1206
f 1101 1210 1106
f 1204 1210 1101
f 1207 1108 1212
f 1104 1108 1207
f 1213 1209 1207
f 1212 1213 1207
f 1214 1210 1211
f 1215 1214 1211
f 1106 1214 1110
f 1210 1214 1106
f 1212 1112 1216
f 1108 1112 1212
f 1217 1213 1212
f 1216 1217 1212
f 1218 1219 1220
f 1215 1219 1218
f 1215 1218 1214
f 1214 1218 1221
f 1110 1221 1113
f 1214 1221 1110
f 1216 1115 1222
f 1112 1115 1216
f 1223 1217 1216
f 1222 1223 1216
f 1224 1218 1220
f 1225 1224 1220
f 1117 1224 1118
f 1117 1221 1224
f 1221 1218 1224
f 1113 1221 1117
f 1222 1120 1226
f 1115 1120 1222
f 1227 1223 1222
f 1227 1222 1228
f 1228 1222 1226
f 1227 1228 1229
f 1230 1224 1225
f 1231 1230 1225
f 1118 1230 1122
f 1224 1230 1118
f 1226 1124 1232
f 1120 1124 1226
f 1228 1226 1233
f 1233 1226 1232
f 1234 1229 1228
f 1233 1234 1228
f 1235 1236 1237
f 1231 1236 1235
f 1231 1235 1230
f 1230 1235 1238
f 1122 1238 1126
f 1230 1238 1122
f 1124 1128 1232
f 1129 1232 1128
f 1129 1239 1232
f 1239 1233 1232
f 1240 1234 1233
f 1240 1233 1241
f 1241 1233 1239
f 1240 1241 1242
f 1243 1244 1245
f 1237 1244 1243
f 1237 1243 1235
f 1235 1243 1246
f 1131 1246 1132
f 1131 1238 1246
f 1238 1235 1246
f 1126 1238 1131
f 1239 1135 1247
f 1129 1135 1239
f 1241 1239 1248
f 1248 1239 1247
f 1249 1242 1241
f 1248 1249 1241
f 1250 1243 1245
f 1251 1250 1245
f 1246 1243 1252
f 1252 1243 1250
f 1132 1252 1137
f 1246 1252 1132
f 1247 1139 1253
f 1135 1139 1247
f 1248 1247 1254
f 1254 1247 1253
f 1255 1249 1248
f 1255 1248 1256
f 1256 1248 1254
f 1256 1257 1258
f 1255 1256 1258
f 1257 1259 1260
f 1258 1257 1260
f 1259 1261 1262
f 1260 1259 1262
f 1251 1262 1261
f 1251 1261 1250
f 1250 1261 1263
f 1252 1250 1264
f 1264 1250 1263
f 1137 1264 1141
f 1252 1264 1137
f 1139 1143 1253
f 1145 1253 1143
f 1145 1265 1253
f 1265 1254 1253
f 1256 1254 1266
f 1266 1254 1265
f 1257 1256 1267
f 1267 1256 1266
f 1259 1257 1268
f 1268 1257 1267
f 1261 1259 1269
f 1269 1259 1268
f 1263 1261 1270
f 1270 1261 1269
f 1147 1270 1148
f 1147 1264 1270
f 1264 1263 1270
f 1141 1264 1147
f 1265 1152 1271
f 1145 1152 1265
f 1266 1265 1272
f 1272 1265 1271
f 1267 1266 1273
f 1273 1266 1272
f 1268 1267 1274
f 1274 1267 1273
f 1269 1268 1275
f 1275 1268 1274
f 1270 1269 1276
f 1276 1269 1275
f 1148 1276 1154
f 1270 1276 1148
f 1152 1157 1271
f 1159 1271 1157
f 1159 1277 1271
f 1277 1272 1271
f 1273 1272 1278
f 1278 1272 1277
f 1274 1273 1279
f 1279 1273 1278
f 1275 1274 1280
f 1280 1274 1279
f 1161 1280 1162
f 1161 1276 1280
f 1276 1275 1280
f 1154 1276 1161
f 1277 1166 1281
f 1159 1166 1277
f 1278 1277 1282
f 1282 1277 1281
f 1279 1278 1283
f 1283 1278 1282
f 1280 1279 1284
f 1284 1279 1283
f 1162 1284 1168
f 1280 1284 1162
f 1166 1172 1281
f 1174 1281 1172
f 1174 1285 1281
f 1285 1282 1281
f 1283 1282 1286
f 1286 1282 1285
f 1176 1286 1177
f 1176 1284 1286
f 1284 1283 1286
f 1168 1284 1176
f 1174 1182 1285
f 1185 1285 1182
f 1286 1285 1185
f 1177 1286 1185
f 1190 1288 1289
f 1189 1190 1289
f 1289 1288 1290
f 1291 1292 1293
f 1291 1193 1192
f 1291 1192 1292
f 1292 1192 1294
f 1294 1192 1287
f 1288 1195 1295
f 1190 1195 1288
f 1296 1290 1288
f 1295 1296 1288
f 1297 1291 1293
f 1298 1297 1293
f 1193 1297 1197
f 1291 1297 1193
f 1295 1199 1299
f 1195 1199 1295
f 1300 1296 1295
f 1299 1300 1295
f 1301 1302 1303
f 1298 1302 1301
f 1298 1301 1297
f 1297 1301 1304
f 1197 1304 1201
f 1297 1304 1197
f 1299 1203 1305
f 1199 1203 1299
f 1306 1300 1299
f 1306 1299 1307
f 1307 1299 1305
f 1306 1307 1308
f 1309 1301 1303
f 1310 1309 1303
f 1205 1309 1206
f 1205 1304 1309
f 1304 1301 1309
f 1201 1304 1205
f 1203 1208 1305
f 1209 1305 1208
f 1209 1311 1305
f 1311 1307 1305
f 1312 1308 1307
f 1311 1312 1307
f 1313 1309 1310
f 1314 1313 1310
f 1206 1313 1211
f 1309 1313 1206
f 1311 1213 1315
f 1209 1213 1311
f 1316 1312 1311
f 1316 1311 1317
f 1317 1311 1315
f 1316 1317 1318
f 1319 1320 1321
f 1314 1320 1319
f 1314 1319 1313
f 1313 1319 1322
f 1211 1322 1215
f 1313 1322 1211
f 1315 1217 1323
f 1213 1217 1315
f 1317 1315 1324
f 1324 1315 1323
f 1325 1318 1317
f 1324 1325 1317
f 1326 1327 1328
f 1321 1327 1326
f 1321 1326 1319
f 1319 1326 1329
f 1219 1329 1220
f 1219 1322 1329
f 1322 1319 1329
f 1215 1322 1219
f 1323 1223 1330
f 1217 1223 1323
f 1324 1323 1331
f 1331 1323 1330
f 1332 1325 1324
f 1332 1324 1333
f 1333 1324 1331
f 1332 1333 1334
f 1335 1336 1337
f 1328 1336 1335
f 1328 1335 1326
f 1326 1335 1338
f 1329 1326 1339
f 1339 1326 1338
f 1220 1339 1225
f 1329 1339 1220
f 1223 1227 1330
f 1229 1330 1227
f 1229 1340 1330
f 1340 1331 1330
f 1333 1331 1341
f 1341 1331 1340
f 1342 1334 1333
f 1342 1333 1343
f 1343 1333 1341
f 1343 1344 1345
f 1342 1343 1345
f 1337 1345 1344
f 1337 1344 1335
f 1335 1344 1346
f 1338 1335 1347
f 1347 1335 1346
f 1339 1338 1348
f 1348 1338 1347
f 1225 1348 1231
f 1339 1348 1225
f 1340 1234 1349
f 1229 1234 1340
f 1341 1340 1350
f 1350 1340 1349
f 1343 1341 1351
f 1351 1341 1350
f 1344 1343 1352
f 1352 1343 1351
f 1346 1344 1353
f 1353 1344 1352
f 1347 1346 1354
f 1354 1346 1353
f 1236 1354 1237
f 1236 1348 1354
f 1348 1347 1354
f 1231 1348 1236
f 1234 1240 1349
f 1242 1349 1240
f 1242 1355 1349
f 1355 1350 1349
f 1351 1350 1356
f 1356 1350 1355
f 1352 1351 1357
f 1357 1351 1356
f 1353 1352 1358
f 1358 1352 1357
f 1244 1358 1245
f 1244 1354 1358
f 1354 1353 1358
f 1237 1354 1244
f 1355 1249 1359
f 1242 1249 1355
f 1356 1355 1360
f 1360 1355 1359
f 1357 1356 1361
f 1361 1356 1360
f 1358 1357 1362
f 1362 1357 1361
f 1245 1362 1251
f 1358 1362 1245
f 1249 1255 1359
f 1258 1359 1255
f 1360 1359 1258
f 1260 1360 1258
f 1361 1360 1260
f 1262 1361 1260
f 1362 1361 1262
f 1251 1362 1262
f 1290 1365 1366
f 1289 1290 1366
f 1365 1367 1368
f 1366 1365 1368
f 1368 1367 1369
f 1370 1371 1372
f 1370 1373 1374
f 1371 1370 1374
f 1364 1374 1373
f 1363 1364 1373
f 1363 1373 1293
f 1363 1293 1292
f 1294 1363 1292
f 1365 1296 1375
f 1290 1296 1365
f 1367 1365 1376
f 1376 1365 1375
f 1377 1369 1367
f 1376 1377 1367
f 1378 1370 1372
f 1379 1378 1372
f 1373 1370 1380
f 1380 1370 1378
f 1293 1380 1298
f 1373 1380 1293
f 1375 1300 1381
f 1296 1300 1375
f 1376 1375 1382
f 1382 1375 1381
f 1383 1377 1376
f 1383 1376 1384
f 1384 1376 1382
f 1383 1384 1385
f 1386 1387 1388
f 1379 1387 1386
f 1379 1386 1378
f 1378 1386 1389
f 1302 1389 1303
f 1302 1380 1389
f 1380 1378 1389
f 1298 1380 1302
f 1300 1306 1381
f 1308 1381 1306
f 1308 1390 1381
f 1390 1382 1381
f 1384 1382 1391
f 1391 1382 1390
f 1392 1385 1384
f 1392 1384 1393
f 1393 1384 1391
f 1393 1394 1395
f 1392 1393 1395
f 1394 1396 1397
f 1395 1394 1397
f 1388 1397 1396
f 1388 1396 1386
f 1386 1396 1398
f 1389 1386 1399
f 1399 1386 1398
f 1303 1399 1310
f 1389 1399 1303
f 1390 1312 1400
f 1308 1312 1390
f 1391 1390 1401
f 1401 1390 1400
f 1393 1391 1402
f 1402 1391 1401
f 1394 1393 1403
f 1403 1393 1402
f 1396 1394 1404
f 1404 1394 1403
f 1398 1396 1405
f 1405 1396 1404
f 1399 1398 1406
f 1406 1398 1405
f 1310 1406 1314
f 1399 1406 1310
f 1312 1316 1400
f 1318 1400 1316
f 1318 1407 1400
f 1407 1401 1400
f 1402 1401 1408
f 1408 1401 1407
f 1403 1402 1409
f 1409 1402 1408
f 1404 1403 1410
f 1410 1403 1409
f 1405 1404 1411
f 1411 1404 1410
f 1320 1411 1321
f 1320 1406 1411
f 1406 1405 1411
f 1314 1406 1320
f 1407 1325 1412
f 1318 1325 1407
f 1408 1407 1413
f 1413 1407 1412
f 1409 1408 1414
f 1414 1408 1413
f 1410 1409 1415
f 1415 1409 1414
f 1327 1415 1328
f 1327 1411 1415
f 1411 1410 1415
f 1321 1411 1327
f 1325 1332 1412
f 1334 1412 1332
f 1334 1416 1412
f 1416 1413 1412
f 1414 1413 1417
f 1417 1413 1416
f 1336 1417 1337
f 1336 1415 1417
f 1415 1414 1417
f 1328 1415 1336
f 1334 1342 1416
f 1345 1416 1342
f 1417 1416 1345
f 1337 1417 1345
f 1369 1420 1421
f 1368 1369 1421
f 1420 1422 1423
f 1421 1420 1423
f 1422 1424 1425
f 1423 1422 1425
f 1424 1426 1427
f 1425 1424 1427
f 1426 1428 1429
f 1427 1426 1429
f 1419 1429 1428
f 1418 1419 1428
f 1418 1428 1372
f 1418 1372 1371
f 1374 1418 1371
f 1420 1377 1430
f 1369 1377 1420
f 1422 1420 1431
f 1431 1420 1430
f 1424 1422 1432
f 1432 1422 1431
f 1426 1424 1433
f 1433 1424 1432
f 1428 1426 1434
f 1434 1426 1433
f 1372 1434 1379
f 1428 1434 1372
f 1377 1383 1430
f 1385 1430 1383
f 1385 1435 1430
f 1435 1431 1430
f 1432 1431 1436
f 1436 1431 1435
f 1433 1432 1437
f 1437 1432 1436
f 1387 1437 1388
f 1387 1434 1437
f 1434 1433 1437
f 1379 1434 1387
f 1385 1392 1435
f 1395 1435 1392
f 1436 1435 1395
f 1397 1436 1395
f 1437 1436 1397
f 1388 1437 1397

