# https://github.com/mikedh/trimesh
v -0.35233387 0.47552529 -0.35762647
v -0.34976652 0.47552529 -0.35897875
v -0.34976652 0.47650045 -0.35762647
v -0.34190661 0.47552529 -0.36236370
v -0.34190661 0.47850934 -0.35762647
v -0.33404669 0.47552529 -0.36512941
v -0.33404669 0.48000371 -0.35762647
v -0.33268216 0.47552529 -0.36548638
v -0.32618678 0.47676361 -0.36548638
v -0.32618678 0.48124442 -0.35762647
v -0.31832686 0.47799772 -0.36548638
v -0.31832686 0.48232117 -0.35762647
v -0.31046692 0.47909391 -0.36548638
v -0.31046692 0.48324609 -0.35762647
v -0.30260700 0.48025006 -0.36548638
v -0.30933985 0.48338521 -0.35762647
v -0.30260700 0.48338521 -0.35967922
v -0.30260700 0.48419499 -0.35762647
v -0.29474708 0.48139733 -0.36548638
v -0.29474708 0.48338521 -0.36199069
v -0.29474708 0.48511681 -0.35762647
v -0.28688717 0.48247781 -0.36548638
v -0.28688717 0.48338521 -0.36402690
v -0.28688717 0.48608491 -0.35762647
v -0.28060806 0.48338521 -0.36548638
v -0.27902722 0.48356092 -0.36548638
v -0.27902722 0.48700094 -0.35762647
v -0.27116731 0.48438209 -0.36548638
v -0.27116731 0.48784408 -0.35762647
v -0.26330739 0.48516440 -0.36548638
v -0.26330739 0.48867786 -0.35762647
v -0.25544748 0.48588330 -0.36548638
v -0.25544748 0.48953274 -0.35762647
v -0.24758755 0.48665291 -0.36548638
v -0.24758755 0.49034563 -0.35762647
v -0.23972763 0.48740008 -0.36548638
v -0.23972763 0.49115291 -0.35762647
v -0.23186770 0.48826301 -0.36548638
v -0.23883460 0.49124515 -0.35762647
v -0.23186770 0.49124515 -0.35951060
v -0.23186770 0.49195310 -0.35762647
v -0.22400779 0.48918205 -0.36548638
v -0.22400779 0.49124515 -0.36158478
v -0.22400779 0.49276853 -0.35762647
v -0.21614785 0.49008766 -0.36548638
v -0.21614785 0.49124515 -0.36349502
v -0.21614785 0.49365568 -0.35762647
v -0.20828794 0.49105409 -0.36548638
v -0.20828794 0.49124515 -0.36518380
v -0.20828794 0.49446678 -0.35762647
v -0.20671712 0.49124515 -0.36548638
v -0.20042801 0.49183005 -0.36548638
v -0.20042801 0.49528554 -0.35762647
v -0.19256809 0.49257484 -0.36548638
v -0.19256809 0.49608287 -0.35762647
v -0.18470818 0.49335980 -0.36548638
v -0.18470818 0.49691641 -0.35762647
v -0.17684825 0.49411777 -0.36548638
v -0.17684825 0.49772871 -0.35762647
v -0.16898833 0.49488631 -0.36548638
v -0.16898833 0.49852973 -0.35762647
v -0.16112840 0.49563587 -0.36548638
v -0.16293135 0.49910507 -0.35762647
v -0.16112840 0.49910507 -0.35809857
v -0.16112840 0.49928293 -0.35762647
v -0.15326849 0.49639866 -0.36548638
v -0.15326849 0.49910507 -0.36009941
v -0.15326849 0.50005037 -0.35762647
v -0.14540856 0.49719405 -0.36548638
v -0.14540856 0.49910507 -0.36196497
v -0.14540856 0.50084144 -0.35762647
v -0.13754864 0.49803239 -0.36548638
v -0.13754864 0.49910507 -0.36368391
v -0.13754864 0.50167930 -0.35762647
v -0.12968871 0.49889231 -0.36548638
v -0.12968871 0.49910507 -0.36516136
v -0.12968871 0.50246799 -0.35762647
v -0.12795262 0.49910507 -0.36548638
v -0.12182879 0.49967870 -0.36548638
v -0.12182879 0.50326735 -0.35762647
v -0.11396887 0.50038344 -0.36548638
v -0.11396887 0.50407064 -0.35762647
v -0.10610895 0.50115544 -0.36548638
v -0.10610895 0.50488412 -0.35762647
v -0.09824903 0.50193918 -0.36548638
v -0.09824903 0.50574297 -0.35762647
v -0.09038910 0.50275344 -0.36548638
v -0.09038910 0.50650311 -0.35762647
v -0.08252918 0.50349486 -0.36548638
v -0.08562998 0.50696498 -0.35762647
v -0.08252918 0.50696498 -0.35842353
v -0.08252918 0.50727594 -0.35762647
v -0.07466926 0.50426674 -0.36548638
v -0.07466926 0.50696498 -0.36034688
v -0.07466926 0.50804991 -0.35762647
v -0.06680934 0.50509185 -0.36548638
v -0.06680934 0.50696498 -0.36215860
v -0.06680934 0.50884503 -0.35762647
v -0.05894941 0.50593656 -0.36548638
v -0.05894941 0.50696498 -0.36380529
v -0.05894941 0.50963962 -0.35762647
v -0.05108950 0.50681627 -0.36548638
v -0.05108950 0.50696498 -0.36526540
v -0.05108950 0.51044506 -0.35762647
v -0.04988039 0.50696498 -0.36548638
v -0.04322957 0.50759161 -0.36548638
v -0.04322957 0.51124763 -0.35762647
v -0.03536965 0.50834012 -0.36548638
v -0.03536965 0.51204967 -0.35762647
v -0.02750973 0.50914019 -0.36548638
v -0.02750973 0.51289588 -0.35762647
v -0.01964981 0.50989437 -0.36548638
v -0.01964981 0.51370043 -0.35762647
v -0.01178988 0.51068372 -0.36548638
v -0.01178988 0.51444280 -0.35762647
v -0.00392996 0.51146525 -0.36548638
v -0.00763043 0.51482493 -0.35762647
v -0.00392996 0.51482493 -0.35853449
v -0.00392996 0.51517487 -0.35762647
v 0.00392996 0.51227307 -0.36548638
v 0.00392996 0.51482493 -0.36062443
v 0.00392996 0.51601982 -0.35762647
v 0.01178988 0.51313215 -0.36548638
v 0.01178988 0.51482493 -0.36244884
v 0.01178988 0.51681912 -0.35762647
v 0.01964981 0.51399279 -0.36548638
v 0.01964981 0.51482493 -0.36409655
v 0.01964981 0.51761371 -0.35762647
v 0.02735681 0.51482493 -0.36548638
v 0.02750973 0.51483822 -0.36548638
v 0.02750973 0.51840264 -0.35762647
v 0.03536965 0.51555300 -0.36548638
v 0.03536965 0.51916754 -0.35762647
v 0.04322957 0.51637554 -0.36548638
v 0.04322957 0.52003765 -0.35762647
v 0.05108950 0.51724404 -0.36548638
v 0.05108950 0.52089566 -0.35762647
v 0.05894941 0.51814884 -0.36548638
v 0.05894941 0.52176744 -0.35762647
v 0.06680934 0.51903164 -0.36548638
v 0.06680934 0.52258861 -0.35762647
v 0.07466926 0.51992661 -0.36548638
v 0.06775105 0.52268481 -0.35762647
v 0.07466926 0.52268481 -0.35958672
v 0.07466926 0.52339917 -0.35762647
v 0.08252918 0.52081317 -0.36548638
v 0.08252918 0.52268481 -0.36175478
v 0.08252918 0.52425367 -0.35762647
v 0.09038910 0.52172047 -0.36548638
v 0.09038910 0.52268481 -0.36369392
v 0.09038910 0.52508914 -0.35762647
v 0.09824903 0.52264911 -0.36548638
v 0.09824903 0.52268481 -0.36542559
v 0.09824903 0.52592587 -0.35762647
v 0.09853855 0.52268481 -0.36548638
v 0.10610895 0.52344114 -0.36548638
v 0.10610895 0.52675366 -0.35762647
v 0.11396887 0.52423340 -0.36548638
v 0.11396887 0.52758843 -0.35762647
v 0.12182879 0.52507162 -0.36548638
v 0.12182879 0.52846777 -0.35762647
v 0.12968871 0.52586353 -0.36548638
v 0.12968871 0.52929723 -0.35762647
v 0.13754864 0.52669501 -0.36548638
v 0.13754864 0.53014719 -0.35762647
v 0.14540856 0.52756059 -0.36548638
v 0.14136322 0.53054476 -0.35762647
v 0.14540856 0.53054476 -0.35884678
v 0.14540856 0.53097147 -0.35762647
v 0.15326849 0.52848119 -0.36548638
v 0.15326849 0.53054476 -0.36120677
v 0.15326849 0.53183174 -0.35762647
v 0.16112840 0.52942109 -0.36548638
v 0.16112840 0.53054476 -0.36335805
v 0.16112840 0.53273016 -0.35762647
v 0.16898833 0.53040695 -0.36548638
v 0.16898833 0.53054476 -0.36524686
v 0.16898833 0.53360689 -0.35762647
v 0.17004542 0.53054476 -0.36548638
v 0.17684825 0.53124225 -0.36548638
v 0.17684825 0.53447664 -0.35762647
v 0.18470818 0.53202474 -0.36548638
v 0.18470818 0.53532958 -0.35762647
v 0.19256809 0.53287482 -0.36548638
v 0.19256809 0.53620344 -0.35762647
v 0.20042801 0.53374958 -0.36548638
v 0.20042801 0.53707331 -0.35762647
v 0.20828794 0.53460211 -0.36548638
v 0.20828794 0.53788656 -0.35762647
v 0.21614785 0.53553408 -0.36548638
v 0.21286842 0.53840464 -0.35762647
v 0.21614785 0.53840464 -0.35875875
v 0.21614785 0.53878546 -0.35762647
v 0.22400779 0.53643930 -0.36548638
v 0.22400779 0.53840464 -0.36120644
v 0.22400779 0.53963161 -0.35762647
v 0.23186770 0.53736895 -0.36548638
v 0.23186770 0.53840464 -0.36345959
v 0.23186770 0.54056227 -0.35762647
v 0.23972763 0.53834504 -0.36548638
v 0.23972763 0.53840464 -0.36538365
v 0.23972763 0.54151499 -0.35762647
v 0.24017341 0.53840464 -0.36548638
v 0.24758755 0.53919524 -0.36548638
v 0.24758755 0.54245216 -0.35762647
v 0.25544748 0.54003924 -0.36548638
v 0.25544748 0.54341066 -0.35762647
v 0.26330739 0.54089546 -0.36548638
v 0.26330739 0.54438704 -0.35762647
v 0.27116731 0.54169226 -0.36548638
v 0.27116731 0.54525322 -0.35762647
v 0.27902722 0.54249257 -0.36548638
v 0.27902722 0.54606944 -0.35762647
v 0.28688717 0.54329443 -0.36548638
v 0.28087935 0.54626459 -0.35762647
v 0.28688717 0.54626459 -0.35931402
v 0.28688717 0.54689473 -0.35762647
v 0.29474708 0.54414189 -0.36548638
v 0.29474708 0.54626459 -0.36138943
v 0.29474708 0.54772383 -0.35762647
v 0.30260700 0.54501706 -0.36548638
v 0.30260700 0.54626459 -0.36330089
v 0.30260700 0.54860210 -0.35762647
v 0.31046692 0.54599464 -0.36548638
v 0.31046692 0.54626459 -0.36506093
v 0.31046692 0.54950100 -0.35762647
v 0.31257799 0.54626459 -0.36548638
v 0.31832686 0.54684937 -0.36548638
v 0.31832686 0.55039197 -0.35762647
v 0.32618678 0.54761589 -0.36548638
v 0.32618678 0.55128175 -0.35762647
v 0.33404669 0.54834414 -0.36548638
v 0.33404669 0.55219048 -0.35762647
v 0.34190661 0.54908311 -0.36548638
v 0.34190661 0.55304056 -0.35762647
v 0.34976652 0.54981458 -0.36548638
v 0.34976652 0.55392832 -0.35762647
v 0.35762647 0.55050361 -0.36548638
v 0.35151133 0.55412453 -0.35762647
v 0.35762647 0.55412453 -0.35920021
v 0.35762647 0.55479240 -0.35762647
v 0.36548638 0.55092376 -0.36548638
v 0.36548638 0.55412453 -0.36076289
v 0.36548638 0.55553252 -0.35762647
v 0.37334630 0.55047256 -0.36548638
v 0.37334630 0.55412453 -0.36119530
v 0.37334630 0.55592912 -0.35762647
v 0.38120621 0.55412453 -0.36007273
v 0.38120621 0.55560714 -0.35762647
v 0.38741851 0.55412453 -0.35762647
v 0.38906616 0.55412453 -0.35681170
v 0.38906616 0.55741537 -0.34976652
v 0.39692608 0.55412453 -0.35033938
v 0.39692608 0.55449045 -0.34976652
v 0.39692608 0.55796611 -0.34190661
v 0.39744082 0.55412453 -0.34976652
v 0.40361390 0.55412453 -0.34190661
v 0.40478599 0.55412453 -0.34026971
v 0.40478599 0.55412453 0.30016768
v 0.40478599 0.55699992 -0.33404669
v 0.40478599 0.55903304 -0.32618678
v 0.40478599 0.56009656 -0.31832686
v 0.40478599 0.56061816 -0.31046692
v 0.40478599 0.56092244 -0.30260700
v 0.40478599 0.56107944 -0.29474708
v 0.40478599 0.56118798 -0.28688717
v 0.40478599 0.56129026 -0.27902722
v 0.40478599 0.56133080 -0.27116731
v 0.40478599 0.56140411 -0.26330739
v 0.40478599 0.56144005 -0.25544748
v 0.40478599 0.56150413 -0.24758755
v 0.40478599 0.56154847 -0.23972763
v 0.40478599 0.56157964 -0.23186770
v 0.40478599 0.56159550 -0.22400779
v 0.40478599 0.56160653 -0.21614785
v 0.40478599 0.56160963 -0.20828794
v 0.40478599 0.56163138 -0.20042801
v 0.40478599 0.56165063 -0.19256809
v 0.40478599 0.56164408 -0.18470818
v 0.40478599 0.56167179 -0.17684825
v 0.40478599 0.56166315 -0.16898833
v 0.40478599 0.56169671 -0.16112840
v 0.40478599 0.56169289 -0.15326849
v 0.40478599 0.56168771 -0.14540856
v 0.40478599 0.56168807 -0.13754864
v 0.40478599 0.56170487 -0.12968871
v 0.40478599 0.56171077 -0.12182879
v 0.40478599 0.56172502 -0.11396887
v 0.40478599 0.56173486 -0.10610895
v 0.40478599 0.56175488 -0.09824903
v 0.40478599 0.56177086 -0.09038910
v 0.40478599 0.56181496 -0.08252918
v 0.40478599 0.56182837 -0.07466926
v 0.40478599 0.56187099 -0.06680934
v 0.40478599 0.56194067 -0.05894941
v 0.40478599 0.56197870 -0.05108950
v 0.40478599 0.56198442 -0.05029620
v 0.40478599 0.56194496 0.05108950
v 0.40478599 0.56198442 0.04731113
v 0.40478599 0.56192648 0.05894941
v 0.40478599 0.56187457 0.06680934
v 0.40478599 0.56185961 0.07466926
v 0.40478599 0.56183922 0.08252918
v 0.40478599 0.56185865 0.09038910
v 0.40478599 0.56188118 0.09824903
v 0.40478599 0.56188083 0.10610895
v 0.40478599 0.56191969 0.11396887
v 0.40478599 0.56193572 0.12182879
v 0.40478599 0.56198442 0.12935793
v 0.40478599 0.56198204 0.17684825
v 0.40478599 0.56198442 0.17551352
v 0.40478599 0.56192625 0.18470818
v 0.40478599 0.56190974 0.19256809
v 0.40478599 0.56189257 0.20042801
v 0.40478599 0.56182879 0.20828794
v 0.40478599 0.56176734 0.21614785
v 0.40478599 0.56170952 0.22400779
v 0.40478599 0.56163508 0.23186770
v 0.40478599 0.56156504 0.23972763
v 0.40478599 0.56148922 0.24758755
v 0.40478599 0.56138706 0.25544748
v 0.40478599 0.56122732 0.26330739
v 0.40478599 0.56088668 0.27116731
v 0.40478599 0.56017935 0.27902722
v 0.40478599 0.55888212 0.28688717
v 0.40478599 0.55661434 0.29474708
v 0.40478599 0.56203598 -0.04322957
v 0.40478599 0.56204498 -0.03536965
v 0.40478599 0.56207234 -0.02750973
v 0.40478599 0.56209767 -0.01964981
v 0.40478599 0.56209046 -0.01178988
v 0.40478599 0.56210053 -0.00392996
v 0.40478599 0.56212777 0.00392996
v 0.40478599 0.56212199 0.01178988
v 0.40478599 0.56213158 0.01964981
v 0.40478599 0.56211543 0.02750973
v 0.40478599 0.56206012 0.03536965
v 0.40478599 0.56202739 0.04322957
v 0.40478599 0.56198657 0.12968871
v 0.40478599 0.56199837 0.13754864
v 0.40478599 0.56201535 0.14540856
v 0.40478599 0.56201607 0.15326849
v 0.40478599 0.56200242 0.16112840
v 0.40478599 0.56199604 0.16898833
v 0.40816066 0.55412453 -0.33404669
v 0.41139212 0.55412453 -0.32618678
v 0.41264591 0.55412453 -0.32174936
v 0.41067612 0.55412453 0.28688717
v 0.41264591 0.55412453 0.28053012
v 0.40753630 0.55412453 0.29474708
v 0.41264591 0.55503613 -0.31832686
v 0.41264591 0.55625093 -0.31046692
v 0.41264591 0.55684978 -0.30260700
v 0.41264591 0.55715764 -0.29474708
v 0.41264591 0.55733091 -0.28688717
v 0.41264591 0.55741799 -0.27902722
v 0.41264591 0.55749345 -0.27116731
v 0.41264591 0.55756706 -0.26330739
v 0.41264591 0.55761778 -0.25544748
v 0.41264591 0.55770820 -0.24758755
v 0.41264591 0.55776882 -0.23972763
v 0.41264591 0.55782831 -0.23186770
v 0.41264591 0.55784684 -0.22400779
v 0.41264591 0.55786008 -0.21614785
v 0.41264591 0.55785877 -0.20828794
v 0.41264591 0.55784160 -0.20042801
v 0.41264591 0.55783850 -0.19256809
v 0.41264591 0.55785263 -0.18470818
v 0.41264591 0.55788261 -0.17684825
v 0.41264591 0.55792654 -0.16898833
v 0.41264591 0.55795050 -0.16112840
v 0.41264591 0.55799598 -0.15326849
v 0.41264591 0.55801249 -0.14540856
v 0.41264591 0.55804008 -0.13754864
v 0.41264591 0.55806285 -0.12968871
v 0.41264591 0.55805928 -0.12182879
v 0.41264591 0.55808580 -0.11396887
v 0.41264591 0.55810243 -0.10610895
v 0.41264591 0.55814272 -0.09824903
v 0.41264591 0.55815619 -0.09038910
v 0.41264591 0.55817729 -0.08252918
v 0.41264591 0.55821145 -0.07466926
v 0.41264591 0.55825645 -0.06680934
v 0.41264591 0.55828977 -0.05894941
v 0.41264591 0.55831283 -0.05108950
v 0.40492126 0.56198442 -0.04322957
v 0.41264591 0.55833226 -0.04322957
v 0.40494406 0.56198442 -0.03536965
v 0.41264591 0.55832386 -0.03536965
v 0.40501255 0.56198442 -0.02750973
v 0.41264591 0.55830657 -0.02750973
v 0.40507528 0.56198442 -0.01964981
v 0.41264591 0.55828619 -0.01964981
v 0.40505645 0.56198442 -0.01178988
v 0.41264591 0.55826426 -0.01178988
v 0.40508044 0.56198442 -0.00392996
v 0.41264591 0.55826247 -0.00392996
v 0.40515000 0.56198442 0.00392996
v 0.41264591 0.55828029 0.00392996
v 0.40513656 0.56198442 0.01178988
v 0.41264591 0.55827254 0.01178988
v 0.40516031 0.56198442 0.01964981
v 0.41264591 0.55827361 0.01964981
v 0.40511820 0.56198442 0.02750973
v 0.41264591 0.55824351 0.02750973
v 0.40498015 0.56198442 0.03536965
v 0.41264591 0.55823004 0.03536965
v 0.40489560 0.56198442 0.04322957
v 0.41264591 0.55816531 0.04322957
v 0.41264591 0.55812293 0.05108950
v 0.41264591 0.55807316 0.05894941
v 0.41264591 0.55800855 0.06680934
v 0.41264591 0.55796248 0.07466926
v 0.41264591 0.55791909 0.08252918
v 0.41264591 0.55791152 0.09038910
v 0.41264591 0.55792207 0.09824903
v 0.41264591 0.55793536 0.10610895
v 0.41264591 0.55795574 0.11396887
v 0.41264591 0.55798191 0.12182879
v 0.40479138 0.56198442 0.12968871
v 0.41264591 0.55802196 0.12968871
v 0.40482077 0.56198442 0.13754864
v 0.41264591 0.55802834 0.13754864
v 0.40486252 0.56198442 0.14540856
v 0.41264591 0.55801827 0.14540856
v 0.40486443 0.56198442 0.15326849
v 0.41264591 0.55803204 0.15326849
v 0.40483013 0.56198442 0.16112840
v 0.41264591 0.55798745 0.16112840
v 0.40481466 0.56198442 0.16898833
v 0.41264591 0.55797964 0.16898833
v 0.41264591 0.55796981 0.17684825
v 0.41264591 0.55798817 0.18470818
v 0.41264591 0.55798107 0.19256809
v 0.41264591 0.55795491 0.20042801
v 0.41264591 0.55792445 0.20828794
v 0.41264591 0.55784988 0.21614785
v 0.41264591 0.55776161 0.22400779
v 0.41264591 0.55765438 0.23186770
v 0.41264591 0.55755770 0.23972763
v 0.41264591 0.55743802 0.24758755
v 0.41264591 0.55725563 0.25544748
v 0.41264591 0.55686235 0.26330739
v 0.41264591 0.55607569 0.27116731
v 0.41264591 0.55458587 0.27902722
v 0.41341540 0.55412453 -0.31832686
v 0.41453174 0.55412453 -0.31046692
v 0.41509891 0.55412453 -0.30260700
v 0.41536948 0.55412453 -0.29474708
v 0.41553414 0.55412453 -0.28688717
v 0.41562301 0.55412453 -0.27902722
v 0.41567591 0.55412453 -0.27116731
v 0.41574630 0.55412453 -0.26330739
v 0.41581693 0.55412453 -0.25544748
v 0.41590184 0.55412453 -0.24758755
v 0.41596949 0.55412453 -0.23972763
v 0.41603461 0.55412453 -0.23186770
v 0.41607970 0.55412453 -0.22400779
v 0.41608283 0.55412453 -0.21614785
v 0.41609675 0.55412453 -0.20828794
v 0.41607696 0.55412453 -0.20042801
v 0.41606784 0.55412453 -0.19256809
v 0.41608378 0.55412453 -0.18470818
v 0.41610071 0.55412453 -0.17684825
v 0.41612899 0.55412453 -0.16898833
v 0.41615695 0.55412453 -0.16112840
v 0.41618776 0.55412453 -0.15326849
v 0.41619772 0.55412453 -0.14540856
v 0.41622004 0.55412453 -0.13754864
v 0.41622856 0.55412453 -0.12968871
v 0.41623166 0.55412453 -0.12182879
v 0.41624078 0.55412453 -0.11396887
v 0.41625097 0.55412453 -0.10610895
v 0.41626129 0.55412453 -0.09824903
v 0.41627508 0.55412453 -0.09038910
v 0.41627124 0.55412453 -0.08252918
v 0.41630158 0.55412453 -0.07466926
v 0.41631910 0.55412453 -0.06680934
v 0.41634405 0.55412453 -0.05894941
v 0.41635063 0.55412453 -0.05108950
v 0.41635388 0.55412453 -0.04322957
v 0.41634718 0.55412453 -0.03536965
v 0.41633698 0.55412453 -0.02750973
v 0.41631070 0.55412453 -0.01964981
v 0.41628468 0.55412453 -0.01178988
v 0.41628107 0.55412453 -0.00392996
v 0.41628072 0.55412453 0.00392996
v 0.41627306 0.55412453 0.01178988
v 0.41626117 0.55412453 0.01964981
v 0.41624451 0.55412453 0.02750973
v 0.41621548 0.55412453 0.03536965
v 0.41617349 0.55412453 0.04322957
v 0.41613752 0.55412453 0.05108950
v 0.41609111 0.55412453 0.05894941
v 0.41604301 0.55412453 0.06680934
v 0.41599709 0.55412453 0.07466926
v 0.41596049 0.55412453 0.08252918
v 0.41594094 0.55412453 0.09038910
v 0.41594803 0.55412453 0.09824903
v 0.41595715 0.55412453 0.10610895
v 0.41599011 0.55412453 0.11396887
v 0.41601700 0.55412453 0.12182879
v 0.41605669 0.55412453 0.12968871
v 0.41608727 0.55412453 0.13754864
v 0.41608572 0.55412453 0.14540856
v 0.41611293 0.55412453 0.15326849
v 0.41609555 0.55412453 0.16112840
v 0.41608343 0.55412453 0.16898833
v 0.41607863 0.55412453 0.17684825
v 0.41608667 0.55412453 0.18470818
v 0.41609350 0.55412453 0.19256809
v 0.41607946 0.55412453 0.20042801
v 0.41605765 0.55412453 0.20828794
v 0.41598269 0.55412453 0.21614785
v 0.41589358 0.55412453 0.22400779
v 0.41580230 0.55412453 0.23186770
v 0.41571176 0.55412453 0.23972763
v 0.41558319 0.55412453 0.24758755
v 0.41541204 0.55412453 0.25544748
v 0.41503811 0.55412453 0.26330739
v 0.41431478 0.55412453 0.27116731
v 0.41301662 0.55412453 0.27902722
f 1 3 2
f 2 5 4
f 3 5 2
f 4 7 6
f 5 7 4
f 6 9 8
f 6 7 9
f 7 10 9
f 10 12 9
f 9 12 11
f 12 14 11
f 11 14 13
f 16 17 15
f 16 15 14
f 14 15 13
f 16 18 17
f 19 15 17
f 20 19 17
f 17 21 20
f 18 21 17
f 22 19 20
f 23 22 20
f 20 24 23
f 21 24 20
f 22 23 25
f 23 26 25
f 23 24 26
f 24 27 26
f 27 29 26
f 26 29 28
f 29 31 28
f 28 31 30
f 31 33 30
f 30 33 32
f 33 35 32
f 32 35 34
f 35 37 34
f 34 37 36
f 39 40 38
f 39 38 37
f 37 38 36
f 39 41 40
f 42 38 40
f 43 42 40
f 40 44 43
f 41 44 40
f 45 42 43
f 46 45 43
f 43 47 46
f 44 47 43
f 48 45 46
f 49 48 46
f 46 50 49
f 47 50 46
f 48 49 51
f 49 52 51
f 49 50 52
f 50 53 52
f 53 55 52
f 52 55 54
f 55 57 54
f 54 57 56
f 57 59 56
f 56 59 58
f 59 61 58
f 58 61 60
f 63 64 62
f 63 62 61
f 61 62 60
f 63 65 64
f 66 62 64
f 67 66 64
f 64 68 67
f 65 68 64
f 69 66 67
f 70 69 67
f 67 71 70
f 68 71 67
f 72 69 70
f 73 72 70
f 70 74 73
f 71 74 70
f 75 72 73
f 76 75 73
f 73 77 76
f 74 77 73
f 75 76 78
f 76 79 78
f 76 77 79
f 77 80 79
f 80 82 79
f 79 82 81
f 82 84 81
f 81 84 83
f 84 86 83
f 83 86 85
f 86 88 85
f 85 88 87
f 90 91 89
f 90 89 88
f 88 89 87
f 90 92 91
f 93 89 91
f 94 93 91
f 91 95 94
f 92 95 91
f 96 93 94
f 97 96 94
f 94 98 97
f 95 98 94
f 99 96 97
f 100 99 97
f 97 101 100
f 98 101 97
f 102 99 100
f 103 102 100
f 100 104 103
f 101 104 100
f 102 103 105
f 103 106 105
f 103 104 106
f 104 107 106
f 107 109 106
f 106 109 108
f 109 111 108
f 108 111 110
f 111 113 110
f 110 113 112
f 113 115 112
f 112 115 114
f 117 118 116
f 117 116 115
f 115 116 114
f 117 119 118
f 120 116 118
f 121 120 118
f 118 122 121
f 119 122 118
f 123 120 121
f 124 123 121
f 121 125 124
f 122 125 121
f 126 123 124
f 127 126 124
f 124 128 127
f 125 128 124
f 126 127 129
f 127 130 129
f 127 128 130
f 128 131 130
f 131 133 130
f 130 133 132
f 133 135 132
f 132 135 134
f 135 137 134
f 134 137 136
f 137 139 136
f 136 139 138
f 139 141 138
f 138 141 140
f 143 144 142
f 143 142 141
f 141 142 140
f 143 145 144
f 146 142 144
f 147 146 144
f 144 148 147
f 145 148 144
f 149 146 147
f 150 149 147
f 147 151 150
f 148 151 147
f 152 149 150
f 153 152 150
f 150 154 153
f 151 154 150
f 152 153 155
f 153 156 155
f 153 154 156
f 154 157 156
f 157 159 156
f 156 159 158
f 159 161 158
f 158 161 160
f 161 163 160
f 160 163 162
f 163 165 162
f 162 165 164
f 167 168 166
f 167 166 165
f 165 166 164
f 167 169 168
f 170 166 168
f 171 170 168
f 168 172 171
f 169 172 168
f 173 170 171
f 174 173 171
f 171 175 174
f 172 175 171
f 176 173 174
f 177 176 174
f 174 178 177
f 175 178 174
f 176 177 179
f 177 180 179
f 177 178 180
f 178 181 180
f 181 183 180
f 180 183 182
f 183 185 182
f 182 185 184
f 185 187 184
f 184 187 186
f 187 189 186
f 186 189 188
f 191 192 190
f 191 190 189
f 189 190 188
f 191 193 192
f 194 190 192
f 195 194 192
f 192 196 195
f 193 196 192
f 197 194 195
f 198 197 195
f 195 199 198
f 196 199 195
f 200 197 198
f 201 200 198
f 198 202 201
f 199 202 198
f 200 201 203
f 201 204 203
f 201 202 204
f 202 205 204
f 205 207 204
f 204 207 206
f 207 209 206
f 206 209 208
f 209 211 208
f 208 211 210
f 211 213 210
f 210 213 212
f 215 216 214
f 215 214 213
f 213 214 212
f 215 217 216
f 218 214 216
f 219 218 216
f 216 220 219
f 217 220 216
f 221 218 219
f 222 221 219
f 219 223 222
f 220 223 219
f 224 221 222
f 225 224 222
f 222 226 225
f 223 226 222
f 224 225 227
f 225 228 227
f 225 226 228
f 226 229 228
f 229 231 228
f 228 231 230
f 231 233 230
f 230 233 232
f 233 235 232
f 232 235 234
f 235 237 234
f 234 237 236
f 239 240 238
f 239 238 237
f 237 238 236
f 239 241 240
f 242 238 240
f 243 242 240
f 240 244 243
f 241 244 240
f 245 242 243
f 246 245 243
f 243 247 246
f 244 247 243
f 246 249 248
f 247 249 246
f 248 249 250
f 250 252 251
f 250 249 252
f 251 254 253
f 252 254 251
f 252 255 254
f 253 254 256
f 255 256 254
f 257 256 255
f 257 260 258
f 257 255 260
f 258 260 345
f 261 345 260
f 346 345 261
f 346 351 347
f 346 261 351
f 261 262 351
f 263 352 262
f 262 352 351
f 264 353 263
f 263 353 352
f 265 354 264
f 264 354 353
f 266 355 265
f 265 355 354
f 267 356 266
f 266 356 355
f 268 357 267
f 267 357 356
f 269 358 268
f 268 358 357
f 270 359 269
f 269 359 358
f 271 360 270
f 270 360 359
f 272 361 271
f 271 361 360
f 273 362 272
f 272 362 361
f 274 363 273
f 273 363 362
f 275 364 274
f 274 364 363
f 276 365 275
f 275 365 364
f 277 366 276
f 276 366 365
f 278 367 277
f 277 367 366
f 279 368 278
f 278 368 367
f 280 369 279
f 279 369 368
f 281 370 280
f 280 370 369
f 282 371 281
f 281 371 370
f 283 372 282
f 282 372 371
f 284 373 283
f 283 373 372
f 285 374 284
f 284 374 373
f 286 375 285
f 285 375 374
f 287 376 286
f 286 376 375
f 288 377 287
f 287 377 376
f 289 378 288
f 288 378 377
f 290 379 289
f 289 379 378
f 291 380 290
f 290 380 379
f 292 381 291
f 291 381 380
f 293 382 292
f 292 382 381
f 294 383 293
f 293 383 382
f 295 384 294
f 294 384 383
f 296 385 295
f 295 385 384
f 297 386 387
f 297 387 296
f 296 387 385
f 386 388 389
f 387 386 389
f 388 390 391
f 389 388 391
f 390 392 393
f 391 390 393
f 392 394 395
f 393 392 395
f 394 396 397
f 395 394 397
f 396 398 399
f 397 396 399
f 398 400 401
f 399 398 401
f 400 402 403
f 401 400 403
f 402 404 405
f 403 402 405
f 404 406 407
f 405 404 407
f 406 408 409
f 407 406 409
f 408 299 298
f 408 298 409
f 409 298 410
f 300 411 298
f 298 411 410
f 301 412 300
f 300 412 411
f 302 413 301
f 301 413 412
f 303 414 302
f 302 414 413
f 304 415 303
f 303 415 414
f 305 416 304
f 304 416 415
f 306 417 305
f 305 417 416
f 307 418 306
f 306 418 417
f 308 419 307
f 307 419 418
f 309 420 421
f 309 421 308
f 308 421 419
f 420 422 423
f 421 420 423
f 422 424 425
f 423 422 425
f 424 426 427
f 425 424 427
f 426 428 429
f 427 426 429
f 428 430 431
f 429 428 431
f 430 311 310
f 430 310 431
f 431 310 432
f 312 433 310
f 310 433 432
f 313 434 312
f 312 434 433
f 314 435 313
f 313 435 434
f 315 436 314
f 314 436 435
f 316 437 315
f 315 437 436
f 317 438 316
f 316 438 437
f 318 439 317
f 317 439 438
f 319 440 318
f 318 440 439
f 320 441 319
f 319 441 440
f 321 442 320
f 320 442 441
f 322 443 321
f 321 443 442
f 323 444 322
f 322 444 443
f 324 445 323
f 323 445 444
f 349 325 348
f 349 445 325
f 445 324 325
f 326 348 325
f 350 348 326
f 259 350 326
f 297 327 386
f 328 386 327
f 388 386 328
f 329 388 328
f 390 388 329
f 330 390 329
f 392 390 330
f 331 392 330
f 394 392 331
f 332 394 331
f 396 394 332
f 333 396 332
f 398 396 333
f 334 398 333
f 400 398 334
f 335 400 334
f 402 400 335
f 336 402 335
f 404 402 336
f 337 404 336
f 406 404 337
f 338 406 337
f 408 406 338
f 299 408 338
f 309 339 420
f 340 420 339
f 422 420 340
f 341 422 340
f 424 422 341
f 342 424 341
f 426 424 342
f 343 426 342
f 428 426 343
f 344 428 343
f 430 428 344
f 311 430 344
f 347 351 446
f 352 446 351
f 447 446 352
f 353 447 352
f 448 447 353
f 354 448 353
f 449 448 354
f 355 449 354
f 450 449 355
f 356 450 355
f 451 450 356
f 357 451 356
f 452 451 357
f 358 452 357
f 453 452 358
f 359 453 358
f 454 453 359
f 360 454 359
f 455 454 360
f 361 455 360
f 456 455 361
f 362 456 361
f 457 456 362
f 363 457 362
f 458 457 363
f 364 458 363
f 459 458 364
f 365 459 364
f 460 459 365
f 366 460 365
f 461 460 366
f 367 461 366
f 462 461 367
f 368 462 367
f 463 462 368
f 369 463 368
f 464 463 369
f 370 464 369
f 465 464 370
f 371 465 370
f 466 465 371
f 372 466 371
f 467 466 372
f 373 467 372
f 468 467 373
f 374 468 373
f 469 468 374
f 375 469 374
f 470 469 375
f 376 470 375
f 471 470 376
f 377 471 376
f 472 471 377
f 378 472 377
f 473 472 378
f 379 473 378
f 474 473 379
f 380 474 379
f 475 474 380
f 381 475 380
f 476 475 381
f 382 476 381
f 477 476 382
f 383 477 382
f 478 477 383
f 384 478 383
f 479 478 384
f 385 479 384
f 480 479 385
f 387 480 385
f 481 480 387
f 389 481 387
f 482 481 389
f 391 482 389
f 483 482 391
f 393 483 391
f 484 483 393
f 395 484 393
f 485 484 395
f 397 485 395
f 486 485 397
f 399 486 397
f 487 486 399
f 401 487 399
f 488 487 401
f 403 488 401
f 489 488 403
f 405 489 403
f 490 489 405
f 407 490 405
f 491 490 407
f 409 491 407
f 492 491 409
f 410 492 409
f 493 492 410
f 411 493 410
f 494 493 411
f 412 494 411
f 495 494 412
f 413 495 412
f 496 495 413
f 414 496 413
f 497 496 414
f 415 497 414
f 498 497 415
f 416 498 415
f 499 498 416
f 417 499 416
f 500 499 417
f 418 500 417
f 501 500 418
f 419 501 418
f 502 501 419
f 421 502 419
f 503 502 421
f 423 503 421
f 504 503 423
f 425 504 423
f 505 504 425
f 427 505 425
f 506 505 427
f 429 506 427
f 507 506 429
f 431 507 429
f 508 507 431
f 432 508 431
f 509 508 432
f 433 509 432
f 510 509 433
f 434 510 433
f 511 510 434
f 435 511 434
f 512 511 435
f 436 512 435
f 513 512 436
f 437 513 436
f 514 513 437
f 438 514 437
f 515 514 438
f 439 515 438
f 516 515 439
f 440 516 439
f 517 516 440
f 441 517 440
f 518 517 441
f 442 518 441
f 519 518 442
f 443 519 442
f 520 519 443
f 444 520 443
f 521 520 444
f 445 521 444
f 522 521 445
f 349 522 445

