# https://github.com/mikedh/trimesh
v -0.71918291 -0.99506122 0.02750973
v -0.71918291 -0.99428016 0.03232887
v -0.71132296 -0.99767256 0.03536965
v -0.71849215 -0.99428016 0.03536965
v -0.71132296 -0.99740487 0.04322957
v -0.71664244 -0.99428016 0.04322957
v -0.71132296 -0.99675697 0.05108950
v -0.71483058 -0.99428016 0.05108950
v -0.71132296 -0.99551708 0.05894941
v -0.71273643 -0.99428016 0.05894941
v -0.71132296 -0.99428016 0.06389461
f 2 3 4
f 2 1 3
f 4 5 6
f 3 5 4
f 6 7 8
f 5 7 6
f 8 9 10
f 7 9 8
f 9 11 10

