# https://github.com/mikedh/trimesh
v 0.95859426 0.01964981 -0.03536965
v 0.95870221 0.01964981 -0.02750973
v 0.95838016 0.01964981 -0.01964981
v 0.96284044 0.02679781 -0.04322957
v 0.96284044 0.02639183 -0.03536965
v 0.96284044 0.02655422 -0.02750973
v 0.96284044 0.02750973 -0.02187864
v 0.96258527 0.02750973 -0.01964981
v 0.96055418 0.02750973 -0.01178988
v 0.96322340 0.02750973 -0.04322957
v 0.96334982 0.02750973 -0.03536965
v 0.96338558 0.02750973 -0.02750973
f 5 1 4
f 2 1 5
f 6 2 5
f 6 7 8
f 6 8 2
f 2 8 3
f 9 3 8
f 4 11 5
f 10 11 4
f 5 12 6
f 11 12 5
f 6 12 7

