# https://github.com/mikedh/trimesh
v -0.92354083 -0.23793793 0.07466926
v -0.92758727 -0.23186770 0.07466926
v -0.92354083 -0.23186770 0.07711385
v -0.93032163 -0.22400779 0.07466926
v -0.92354083 -0.22400779 0.07788706
v -0.93071187 -0.21614785 0.07466926
v -0.92354083 -0.21614785 0.07782374
v -0.92642325 -0.20828794 0.07466926
v -0.92354083 -0.20828794 0.07625370
v -0.92354083 -0.20595309 0.07466926
v -0.91568094 -0.23983179 0.07466926
v -0.91659790 -0.23972763 0.07466926
v -0.91568094 -0.23972763 0.07477372
v -0.91568094 -0.23186770 0.07754765
v -0.91568094 -0.22400779 0.07779387
v -0.91568094 -0.21614785 0.07769349
v -0.91568094 -0.20828794 0.07726653
v -0.91568094 -0.20111690 0.07466926
v -0.91453308 -0.23972763 0.07466926
v -0.90782100 -0.23852146 0.07466926
v -0.90782100 -0.23186770 0.07763292
v -0.90782100 -0.22400779 0.07798421
v -0.90782100 -0.21614785 0.07771184
v -0.90782100 -0.20828794 0.07736044
v -0.91424888 -0.20042801 0.07466926
v -0.90782100 -0.20042801 0.07590637
v -0.90782100 -0.19851905 0.07466926
v -0.89996111 -0.23715897 0.07466926
v -0.89996111 -0.23186770 0.07763724
v -0.89996111 -0.22400779 0.07877169
v -0.89996111 -0.21614785 0.07870824
v -0.89996111 -0.20828794 0.07836308
v -0.89996111 -0.20042801 0.07730646
v -0.89996111 -0.19292915 0.07466926
v -0.89210117 -0.24012430 0.07466926
v -0.89350176 -0.23972763 0.07466926
v -0.89210117 -0.23972763 0.07504453
v -0.89210117 -0.23186770 0.07868725
v -0.89210117 -0.22400779 0.07991968
v -0.89210117 -0.21614785 0.08031102
v -0.89210117 -0.20828794 0.08047977
v -0.89210117 -0.20042801 0.08009850
v -0.89971572 -0.19256809 0.07466926
v -0.89210117 -0.19256809 0.07872635
v -0.89341211 -0.18470818 0.07466926
v -0.89210117 -0.18470818 0.07570272
v -0.89210117 -0.18352209 0.07466926
v -0.88424122 -0.24424766 0.07466926
v -0.88424122 -0.23972763 0.07830359
v -0.88424122 -0.23186770 0.08044151
v -0.88424122 -0.22400779 0.08110222
v -0.88424122 -0.21614785 0.08139210
v -0.88424122 -0.20828794 0.08159047
v -0.88424122 -0.20042801 0.08149356
v -0.88424122 -0.19256809 0.08074590
v -0.88424122 -0.18470818 0.07883681
v -0.88424122 -0.17845494 0.07466926
v -0.87638134 -0.24609984 0.07466926
v -0.87638134 -0.23972763 0.07923079
v -0.87638134 -0.23186770 0.08102403
v -0.87638134 -0.22400779 0.08164755
v -0.87638134 -0.21614785 0.08190230
v -0.87638134 -0.20828794 0.08203254
v -0.87638134 -0.20042801 0.08193564
v -0.87638134 -0.19256809 0.08130935
v -0.87638134 -0.18470818 0.07974362
v -0.87978268 -0.17684825 0.07466926
v -0.87638134 -0.17684825 0.07562213
v -0.87638134 -0.17600764 0.07466926
v -0.86852139 -0.24587359 0.07466926
v -0.86852139 -0.23972763 0.07902930
v -0.86852139 -0.23186770 0.08095098
v -0.86852139 -0.22400779 0.08168174
v -0.86852139 -0.21614785 0.08200268
v -0.86852139 -0.20828794 0.08212081
v -0.86852139 -0.20042801 0.08195614
v -0.86852139 -0.19256809 0.08132122
v -0.86852139 -0.18470818 0.07983129
v -0.86852139 -0.17684825 0.07590193
v -0.86852139 -0.17573647 0.07466926
v -0.86066151 -0.24377188 0.07466926
v -0.86066151 -0.23972763 0.07785912
v -0.86066151 -0.23186770 0.08031618
v -0.86066151 -0.22400779 0.08129675
v -0.86066151 -0.21614785 0.08166207
v -0.86066151 -0.20828794 0.08174422
v -0.86066151 -0.20042801 0.08151491
v -0.86066151 -0.19256809 0.08083477
v -0.86066151 -0.18470818 0.07920704
v -0.86194706 -0.17684825 0.07466926
v -0.86066151 -0.17718004 0.07466926
v -0.85280156 -0.24004096 0.07466926
v -0.85280156 -0.23972763 0.07496909
v -0.85280156 -0.23186770 0.07882793
v -0.85280156 -0.22400779 0.08030011
v -0.85280156 -0.21614785 0.08079879
v -0.85280156 -0.20828794 0.08087363
v -0.85280156 -0.20042801 0.08058543
v -0.85280156 -0.19256809 0.07972275
v -0.85280156 -0.18470818 0.07732074
v -0.85280156 -0.18135868 0.07466926
v -0.85239339 -0.23972763 0.07466926
v -0.84494162 -0.23266137 0.07466926
v -0.84494162 -0.23186770 0.07528871
v -0.84494162 -0.22400779 0.07831894
v -0.84494162 -0.21614785 0.07934508
v -0.84494162 -0.20828794 0.07942256
v -0.84494162 -0.20042801 0.07885060
v -0.84494162 -0.19256809 0.07700484
v -0.84853536 -0.18470818 0.07466926
v -0.84494162 -0.18862236 0.07466926
v -0.84429055 -0.23186770 0.07466926
v -0.83989829 -0.22400779 0.07466926
v -0.83725297 -0.21614785 0.07466926
v -0.83708173 -0.20884311 0.07466926
v -0.83708173 -0.20828794 0.07467970
v -0.83906442 -0.20042801 0.07466926
v -0.83708173 -0.20824285 0.07466926
v -0.84236115 -0.19256809 0.07466926
v -0.83707309 -0.20828794 0.07466926
f 1 3 2
f 5 2 3
f 4 2 5
f 7 4 5
f 6 4 7
f 9 6 7
f 8 6 9
f 9 10 8
f 11 13 12
f 12 3 1
f 12 13 3
f 13 14 3
f 3 14 5
f 14 15 5
f 5 15 7
f 15 16 7
f 7 16 9
f 16 17 9
f 17 10 9
f 18 10 17
f 11 19 13
f 20 13 19
f 20 21 13
f 21 14 13
f 14 21 15
f 21 22 15
f 15 22 16
f 22 23 16
f 16 23 17
f 23 24 17
f 18 26 25
f 18 17 26
f 17 24 26
f 26 27 25
f 28 21 20
f 29 21 28
f 21 29 22
f 29 30 22
f 22 30 23
f 30 31 23
f 23 31 24
f 31 32 24
f 24 32 26
f 32 33 26
f 33 27 26
f 34 27 33
f 35 37 36
f 36 29 28
f 36 37 29
f 37 38 29
f 29 38 30
f 38 39 30
f 30 39 31
f 39 40 31
f 31 40 32
f 40 41 32
f 32 41 33
f 41 42 33
f 34 44 43
f 34 33 44
f 33 42 44
f 46 43 44
f 45 43 46
f 46 47 45
f 48 37 35
f 49 37 48
f 37 49 38
f 49 50 38
f 38 50 39
f 50 51 39
f 39 51 40
f 51 52 40
f 40 52 41
f 52 53 41
f 41 53 42
f 53 54 42
f 42 54 44
f 54 55 44
f 44 55 46
f 55 56 46
f 56 47 46
f 57 47 56
f 58 49 48
f 59 49 58
f 49 59 50
f 59 60 50
f 50 60 51
f 60 61 51
f 51 61 52
f 61 62 52
f 52 62 53
f 62 63 53
f 53 63 54
f 63 64 54
f 54 64 55
f 64 65 55
f 55 65 56
f 65 66 56
f 57 68 67
f 57 56 68
f 56 66 68
f 68 69 67
f 70 59 58
f 71 59 70
f 59 71 60
f 71 72 60
f 60 72 61
f 72 73 61
f 61 73 62
f 73 74 62
f 62 74 63
f 74 75 63
f 63 75 64
f 75 76 64
f 64 76 65
f 76 77 65
f 65 77 66
f 77 78 66
f 66 78 68
f 78 79 68
f 79 69 68
f 80 69 79
f 81 71 70
f 82 71 81
f 71 82 72
f 82 83 72
f 72 83 73
f 83 84 73
f 73 84 74
f 84 85 74
f 74 85 75
f 85 86 75
f 75 86 76
f 86 87 76
f 76 87 77
f 87 88 77
f 77 88 78
f 88 89 78
f 90 89 91
f 90 79 89
f 79 78 89
f 79 90 80
f 92 82 81
f 93 82 92
f 82 93 83
f 93 94 83
f 83 94 84
f 94 95 84
f 84 95 85
f 95 96 85
f 85 96 86
f 96 97 86
f 86 97 87
f 97 98 87
f 87 98 88
f 98 99 88
f 88 99 89
f 99 100 89
f 100 91 89
f 101 91 100
f 92 102 93
f 103 93 102
f 103 104 93
f 104 94 93
f 94 104 95
f 104 105 95
f 95 105 96
f 105 106 96
f 96 106 97
f 106 107 97
f 97 107 98
f 107 108 98
f 98 108 99
f 108 109 99
f 110 109 111
f 110 100 109
f 100 99 109
f 100 110 101
f 103 112 104
f 104 113 105
f 112 113 104
f 105 114 106
f 113 114 105
f 115 106 114
f 115 116 106
f 116 107 106
f 117 116 118
f 117 108 116
f 108 107 116
f 108 119 109
f 117 119 108
f 109 119 111
f 115 120 116
f 116 120 118

