# https://github.com/mikedh/trimesh
v -0.35139024 0.86066151 -0.04322957
v -0.34976652 0.86066151 -0.05072262
v -0.35257211 0.86066151 -0.03536965
v -0.35326612 0.86066151 -0.02750973
v -0.35345092 0.86066151 -0.01964981
v -0.35320580 0.86066151 -0.01178988
v -0.35255185 0.86066151 -0.00392996
v -0.35147732 0.86066151 0.00392996
v -0.34994680 0.86066151 0.01178988
v -0.34976652 0.86066151 0.01250708
v -0.34976652 0.86278552 -0.04322957
v -0.34976652 0.86412430 -0.03536965
v -0.34976652 0.86477900 -0.02750973
v -0.34976652 0.86494821 -0.01964981
v -0.34976652 0.86469638 -0.01178988
v -0.34976652 0.86401194 -0.00392996
v -0.34976652 0.86281669 0.00392996
v -0.34976652 0.86090612 0.01178988
v -0.34450659 0.86066151 -0.06680934
v -0.34190661 0.86066151 -0.07307284
v -0.34729359 0.86066151 -0.05894941
v -0.34967557 0.86066151 -0.05108950
v -0.34783968 0.86066151 0.01964981
v -0.34524187 0.86066151 0.02750973
v -0.34211349 0.86066151 0.03536965
v -0.34190661 0.86066151 0.03582012
v -0.34190661 0.86375874 -0.06680934
v -0.34190661 0.86620742 -0.05894941
v -0.34190661 0.86749655 -0.05108950
v -0.34190661 0.86819029 -0.04322957
v -0.34193948 0.86852139 -0.03536965
v -0.34190661 0.86852139 -0.03569395
v -0.34233898 0.86852139 -0.02750973
v -0.34247294 0.86852139 -0.01964981
v -0.34234503 0.86852139 -0.01178988
v -0.34193689 0.86852139 -0.00392996
v -0.34190661 0.86852139 -0.00357904
v -0.34190661 0.86823118 0.00392996
v -0.34190661 0.86766279 0.01178988
v -0.34190661 0.86656636 0.01964981
v -0.34190661 0.86448544 0.02750973
v -0.34190661 0.86093783 0.03536965
v -0.34190661 0.86853522 -0.03536965
v -0.34190661 0.86869061 -0.02750973
v -0.34190661 0.86873931 -0.01964981
v -0.34190661 0.86869806 -0.01178988
v -0.34190661 0.86853468 -0.00392996
v -0.33705780 0.86066151 -0.08252918
v -0.33404669 0.86066151 -0.08769152
v -0.34116226 0.86066151 -0.07466926
v -0.33824560 0.86066151 0.04322957
v -0.33404669 0.86066151 0.05071542
v -0.33404669 0.86394382 -0.08252918
v -0.33404669 0.86694032 -0.07466926
v -0.33404669 0.86765730 0.03536965
v -0.33404669 0.86510682 0.04322957
v -0.32684615 0.86066151 -0.09824903
v -0.32618678 0.86066151 -0.09910691
v -0.33234084 0.86066151 -0.09038910
v -0.32618678 0.86141151 -0.09824903
v -0.32618678 0.86619097 -0.09038910
v -0.32618678 0.86830181 -0.08252918
v -0.32039815 0.86066151 -0.10610895
v -0.31832686 0.86066151 -0.10840885
v -0.31832686 0.86276823 -0.10610895
v -0.31832686 0.86727482 -0.09824903
v -0.31290653 0.86066151 -0.11396887
v -0.31046692 0.86066151 -0.11628394
v -0.31046692 0.86298698 -0.11396887
v -0.31046692 0.86767828 -0.10610895
v -0.30410108 0.86066151 -0.12182879
v -0.30260700 0.86066151 -0.12303190
v -0.30260700 0.86204296 -0.12182879
v -0.30260700 0.86763847 -0.11396887
v -0.29474708 0.86066151 -0.12874605
v -0.29474708 0.86697292 -0.12182879
v -0.29336029 0.86066151 -0.12968871
v -0.28688717 0.86066151 -0.13369957
v -0.28688717 0.86517024 -0.12968871
v -0.27974439 0.86066151 -0.13754864
v -0.27902722 0.86066151 -0.13790987
v -0.27902722 0.86116844 -0.13754864
v -0.27902722 0.86797017 -0.12968871
v -0.27116731 0.86066151 -0.14153467
v -0.27116731 0.86536717 -0.13754864
v -0.26330739 0.86066151 -0.14468837
v -0.26330739 0.86758113 -0.13754864
v -0.26128617 0.86066151 -0.14540856
v -0.25544748 0.86066151 -0.14733504
v -0.25544748 0.86320072 -0.14540856
v -0.24758755 0.86066151 -0.14946187
v -0.24758755 0.86554080 -0.14540856
v -0.23972763 0.86066151 -0.15108301
v -0.23972763 0.86678803 -0.14540856
v -0.23186770 0.86066151 -0.15225050
v -0.23186770 0.86742675 -0.14540856
v -0.22400779 0.86066151 -0.15298790
v -0.22400779 0.86774474 -0.14540856
v -0.21652175 0.86066151 -0.15326849
v -0.21614785 0.86066151 -0.15328084
v -0.21614785 0.86067945 -0.15326849
v -0.21614785 0.86786187 -0.14540856
v -0.21569535 0.86066151 -0.15326849
v -0.20828794 0.86066151 -0.15303887
v -0.20828794 0.86776006 -0.14540856
v -0.20042801 0.86066151 -0.15228455
v -0.20042801 0.86744022 -0.14540856
v -0.19256809 0.86066151 -0.15109020
v -0.19256809 0.86682481 -0.14540856
v -0.18470818 0.86066151 -0.14948425
v -0.18470818 0.86558497 -0.14540856
v -0.17684825 0.86066151 -0.14742889
v -0.17684825 0.86333764 -0.14540856
v -0.17055357 0.86066151 -0.14540856
v -0.16898833 0.86066151 -0.14486125
v -0.16898833 0.86763316 -0.13754864
v -0.16112840 0.86066151 -0.14168428
v -0.16112840 0.86543447 -0.13754864
v -0.15326849 0.86066151 -0.13799503
v -0.15326849 0.86125970 -0.13754864
v -0.15326849 0.86795413 -0.12968871
v -0.15243009 0.86066151 -0.13754864
v -0.14540856 0.86066151 -0.13357298
v -0.14540856 0.86500871 -0.12968871
v -0.13905212 0.86066151 -0.12968871
v -0.13754864 0.86066151 -0.12867090
v -0.13754864 0.86697304 -0.12182879
v -0.12968871 0.86066151 -0.12283347
v -0.12968871 0.86186284 -0.12182879
v -0.12968871 0.86784267 -0.11396887
v -0.12845784 0.86066151 -0.12182879
v -0.12182879 0.86066151 -0.11596869
v -0.12182879 0.86290121 -0.11396887
v -0.12182879 0.86803222 -0.10610895
v -0.11972301 0.86066151 -0.11396887
v -0.11396887 0.86066151 -0.10799975
v -0.11396887 0.86269796 -0.10610895
v -0.11396887 0.86764419 -0.09824903
v -0.11226834 0.86066151 -0.10610895
v -0.10610895 0.86066151 -0.09853759
v -0.10610895 0.86066151 0.05859777
v -0.10610895 0.86096489 -0.09824903
v -0.10610895 0.86649096 -0.09038910
v -0.10610895 0.86843038 0.04322957
v -0.10610895 0.86585706 0.05108950
v -0.10588989 0.86066151 -0.09824903
v -0.10050610 0.86066151 -0.09038910
v -0.09824903 0.86066151 -0.08675352
v -0.10098907 0.86066151 0.05108950
v -0.09824903 0.86066151 0.04662271
v -0.09824903 0.86376798 -0.08252918
v -0.09824903 0.86713272 -0.07466926
v -0.09824903 0.86844921 0.02750973
v -0.09824903 0.86677927 0.03536965
v -0.09824903 0.86306828 0.04322957
v -0.09580653 0.86066151 -0.08252918
v -0.09191375 0.86066151 -0.07466926
v -0.09038910 0.86066151 -0.07126851
v -0.09243648 0.86066151 0.03536965
v -0.09038910 0.86066151 0.03070522
v -0.09632974 0.86066151 0.04322957
v -0.09038910 0.86313319 -0.06680934
v -0.09038910 0.86599392 -0.05894941
v -0.09038910 0.86755306 -0.05108950
v -0.09038910 0.86838144 -0.04322957
v -0.09038910 0.86852139 -0.04039844
v -0.09038910 0.86818117 0.00392996
v -0.09038910 0.86852139 -0.00150528
v -0.09038910 0.86728680 0.01178988
v -0.09038910 0.86560029 0.01964981
v -0.09038910 0.86247414 0.02750973
v -0.09038910 0.86875045 -0.03536965
v -0.09038910 0.86889607 -0.02750973
v -0.09038910 0.86893290 -0.01964981
v -0.09038910 0.86886066 -0.01178988
v -0.09038910 0.86865872 -0.00392996
v -0.08856421 0.86066151 -0.06680934
v -0.08586854 0.86066151 -0.05894941
v -0.08370728 0.86066151 -0.05108950
v -0.08252918 0.86066151 -0.04566415
v -0.08420938 0.86066151 0.01178988
v -0.08252918 0.86066151 0.00443800
v -0.08639780 0.86066151 0.01964981
v -0.08910804 0.86066151 0.02750973
v -0.08252918 0.86138886 -0.04322957
v -0.08994697 0.86852139 -0.03536965
v -0.08252918 0.86293203 -0.03536965
v -0.08960547 0.86852139 -0.02750973
v -0.08252918 0.86374098 -0.02750973
v -0.08951294 0.86852139 -0.01964981
v -0.08252918 0.86392510 -0.01964981
v -0.08968756 0.86852139 -0.01178988
v -0.08252918 0.86355555 -0.01178988
v -0.09012711 0.86852139 -0.00392996
v -0.08252918 0.86258340 -0.00392996
v -0.08252918 0.86082733 0.00392996
v -0.08204741 0.86066151 -0.04322957
v -0.08090235 0.86066151 -0.03536965
v -0.08023600 0.86066151 -0.02750973
v -0.08007848 0.86066151 -0.01964981
v -0.08041872 0.86066151 -0.01178988
v -0.08120530 0.86066151 -0.00392996
v -0.08242311 0.86066151 0.00392996
v 0.19256809 -0.83708173 -0.25544754
v 0.19256809 -0.83708179 -0.25544748
v 0.19256821 -0.83708173 -0.25544748
v 0.66416341 -0.43622586 0.15326849
v 0.66416341 -0.43622568 0.15326861
v 0.66416353 -0.43622568 0.15326849
v 0.74276263 -0.05894941 0.24858035
v 0.74539888 -0.05894941 0.24758755
v 0.75062257 -0.05894941 0.24510506
v 0.74517894 -0.05108950 0.24758755
v 0.75062257 -0.05108950 0.24049376
f 1 11 2
f 3 11 1
f 12 11 3
f 4 12 3
f 13 12 4
f 5 13 4
f 14 13 5
f 6 14 5
f 15 14 6
f 7 15 6
f 16 15 7
f 8 16 7
f 17 16 8
f 9 17 8
f 18 17 9
f 10 18 9
f 19 27 20
f 21 27 19
f 28 27 21
f 22 28 21
f 29 28 22
f 2 29 22
f 2 11 29
f 11 30 29
f 31 32 30
f 31 30 12
f 12 30 11
f 12 13 33
f 31 12 33
f 13 14 34
f 33 13 34
f 14 15 35
f 34 14 35
f 15 16 36
f 35 15 36
f 37 36 16
f 37 16 38
f 38 16 17
f 18 39 17
f 17 39 38
f 23 18 10
f 23 40 18
f 40 39 18
f 24 40 23
f 41 40 24
f 25 41 24
f 42 41 25
f 26 42 25
f 31 43 32
f 33 43 31
f 44 43 33
f 34 44 33
f 45 44 34
f 35 45 34
f 46 45 35
f 36 46 35
f 47 46 36
f 37 47 36
f 48 53 49
f 50 53 48
f 54 53 50
f 20 54 50
f 20 27 54
f 55 41 42
f 51 42 26
f 51 56 42
f 56 55 42
f 52 56 51
f 57 60 58
f 59 60 57
f 61 60 59
f 49 61 59
f 49 53 61
f 53 62 61
f 54 62 53
f 63 65 64
f 58 65 63
f 58 60 65
f 60 66 65
f 61 66 60
f 67 69 68
f 64 69 67
f 64 65 69
f 65 70 69
f 66 70 65
f 71 73 72
f 68 73 71
f 68 69 73
f 69 74 73
f 70 74 69
f 72 76 75
f 73 76 72
f 74 76 73
f 77 79 78
f 76 79 77
f 76 77 75
f 80 82 81
f 78 82 80
f 78 79 82
f 79 83 82
f 81 85 84
f 82 85 81
f 83 85 82
f 84 87 86
f 85 87 84
f 88 90 89
f 87 90 88
f 87 88 86
f 89 92 91
f 90 92 89
f 91 94 93
f 92 94 91
f 93 96 95
f 94 96 93
f 95 98 97
f 96 98 95
f 99 101 100
f 97 101 99
f 97 98 101
f 98 102 101
f 100 101 103
f 103 105 104
f 103 101 105
f 101 102 105
f 104 107 106
f 105 107 104
f 106 109 108
f 107 109 106
f 108 111 110
f 109 111 108
f 110 113 112
f 111 113 110
f 112 113 114
f 113 116 115
f 113 115 114
f 115 118 117
f 116 118 115
f 117 120 119
f 118 120 117
f 118 121 120
f 119 120 122
f 122 124 123
f 122 120 124
f 120 121 124
f 123 124 125
f 124 127 126
f 124 126 125
f 126 129 128
f 127 129 126
f 127 130 129
f 128 129 131
f 131 133 132
f 131 129 133
f 129 130 133
f 130 134 133
f 132 133 135
f 135 137 136
f 135 133 137
f 133 134 137
f 134 138 137
f 136 137 139
f 139 142 140
f 139 137 142
f 137 138 142
f 138 143 142
f 140 142 146
f 143 146 142
f 147 146 143
f 143 151 148
f 143 148 147
f 154 144 155
f 150 145 149
f 150 155 145
f 155 144 145
f 141 149 145
f 148 151 156
f 152 156 151
f 157 156 152
f 152 162 158
f 152 158 157
f 170 153 171
f 160 154 159
f 160 171 154
f 171 153 154
f 155 159 154
f 161 159 155
f 150 161 155
f 158 162 177
f 163 177 162
f 178 177 163
f 164 178 163
f 179 178 164
f 179 185 180
f 179 164 185
f 164 165 185
f 166 186 187
f 166 187 165
f 165 187 185
f 186 188 189
f 187 186 189
f 188 190 191
f 189 188 191
f 190 192 193
f 191 190 193
f 192 194 195
f 193 192 195
f 194 168 167
f 194 167 195
f 195 167 196
f 182 169 181
f 182 196 169
f 196 167 169
f 170 181 169
f 183 181 170
f 171 183 170
f 184 183 171
f 160 184 171
f 166 172 186
f 173 186 172
f 188 186 173
f 174 188 173
f 190 188 174
f 175 190 174
f 192 190 175
f 176 192 175
f 194 192 176
f 168 194 176
f 180 185 197
f 187 197 185
f 198 197 187
f 189 198 187
f 199 198 189
f 191 199 189
f 200 199 191
f 193 200 191
f 201 200 193
f 195 201 193
f 202 201 195
f 196 202 195
f 203 202 196
f 182 203 196
f 205 204 206
f 207 208 209
f 213 211 212
f 214 213 212
f 211 213 210

