# https://github.com/mikedh/trimesh
v -0.71918291 -0.99502867 -0.06680934
v -0.71265781 -0.99428016 -0.09824903
v -0.71132296 -0.99428016 -0.10285097
v -0.71132296 -0.99544340 -0.09824903
v -0.71132296 -0.99667430 -0.09038910
v -0.71475321 -0.99428016 -0.09038910
v -0.71132296 -0.99735063 -0.08252918
v -0.71661645 -0.99428016 -0.08252918
v -0.71132296 -0.99763274 -0.07466926
v -0.71845841 -0.99428016 -0.07466926
v -0.70486826 -0.99428016 -0.12182879
v -0.70346302 -0.99428016 -0.12567888
v -0.70346302 -0.99550200 -0.12182879
v -0.70346302 -0.99695784 -0.11396887
v -0.70753711 -0.99428016 -0.11396887
v -0.70346302 -0.99758863 -0.10610895
v -0.71014744 -0.99428016 -0.10610895
v -0.69855791 -0.99428016 -0.13754864
v -0.69560313 -0.99428016 -0.14485352
v -0.69560313 -0.99642497 -0.13754864
v -0.69560313 -0.99751407 -0.12968871
v -0.70172590 -0.99428016 -0.12968871
v -0.68786347 -0.99428016 -0.16112840
v -0.68774319 -0.99428016 -0.16136329
v -0.68774319 -0.99439931 -0.16112840
v -0.68774319 -0.99671572 -0.15326849
v -0.69141024 -0.99428016 -0.15326849
v -0.68774319 -0.99766034 -0.14540856
v -0.69531029 -0.99428016 -0.14540856
v -0.68338078 -0.99428016 -0.16898833
v -0.67988324 -0.99428016 -0.17553642
v -0.67988324 -0.99657524 -0.16898833
v -0.67988324 -0.99764198 -0.16112840
v -0.67988324 -0.99794793 -0.15326849
v -0.67396033 -0.99428016 -0.18470818
v -0.67202336 -0.99428016 -0.18759669
v -0.67202336 -0.99570340 -0.18470818
v -0.67202336 -0.99748266 -0.17684825
v -0.67902493 -0.99428016 -0.17684825
v -0.66833818 -0.99428016 -0.19256809
v -0.66416341 -0.99428016 -0.19833711
v -0.66416341 -0.99667674 -0.19256809
v -0.66245604 -0.99428016 -0.20042801
v -0.65630352 -0.99428016 -0.20825310
v -0.65630352 -0.99717009 -0.20042801
v -0.64934123 -0.99428016 -0.21614785
v -0.64844358 -0.99428016 -0.21713977
v -0.64844358 -0.99494696 -0.21614785
v -0.64844358 -0.99740112 -0.20828794
v -0.65627253 -0.99428016 -0.20828794
v -0.64196378 -0.99428016 -0.22400779
v -0.64058363 -0.99428016 -0.22543325
v -0.64058363 -0.99523282 -0.22400779
v -0.63416916 -0.99428016 -0.23186770
v -0.63272375 -0.99428016 -0.23328723
v -0.63272375 -0.99525094 -0.23186770
v -0.62598437 -0.99428016 -0.23972763
v -0.62486380 -0.99428016 -0.24075791
v -0.62486380 -0.99503458 -0.23972763
v -0.61733836 -0.99428016 -0.24758755
v -0.61700392 -0.99428016 -0.24787910
v -0.61700392 -0.99451602 -0.24758755
v -0.60914397 -0.99428016 -0.25449184
f 2 3 4
f 2 5 6
f 4 5 2
f 6 7 8
f 5 7 6
f 8 9 10
f 7 9 8
f 10 9 1
f 11 12 13
f 11 14 15
f 13 14 11
f 15 16 17
f 14 16 15
f 17 4 3
f 17 16 4
f 18 19 20
f 18 21 22
f 20 21 18
f 22 13 12
f 22 21 13
f 23 24 25
f 23 26 27
f 25 26 23
f 27 28 29
f 26 28 27
f 29 20 19
f 29 28 20
f 30 31 32
f 30 25 24
f 30 32 25
f 32 33 25
f 25 33 34
f 35 36 37
f 35 38 39
f 37 38 35
f 39 32 31
f 39 38 32
f 40 41 42
f 40 37 36
f 40 42 37
f 43 44 45
f 43 42 41
f 43 45 42
f 46 47 48
f 46 49 50
f 48 49 46
f 50 45 44
f 50 49 45
f 51 52 53
f 51 48 47
f 51 53 48
f 54 55 56
f 54 53 52
f 54 56 53
f 57 58 59
f 57 56 55
f 57 59 56
f 60 61 62
f 60 59 58
f 60 62 59
f 61 63 62

